<svg id="Layer_1" enable-background="new 0 0 512 512" height="512" viewBox="0 0 512 512" width="512" xmlns="http://www.w3.org/2000/svg"><g><path d="m178.733 492h-58.716c-55.229 0-100-44.772-100-100v-272c0-55.229 44.771-100 100-100h58.716c-55.071 0-97.716 44.753-97.716 99.959v272.083c0 55.205 42.644 99.958 97.716 99.958zm176.733-287.155 18.876-85.508c4.824-24.134 16.685-46.3 34.088-63.704l35.408-35.408c-15.123-1.374-30.722 3.722-42.299 15.299l-61.109 61.109c-17.403 17.403-29.264 39.569-34.088 63.704l-11.325 56.663 56.664-11.326c1.268-.253 2.528-.537 3.785-.829z" fill="#cee1f2"/><path d="m299.017 512h-179c-66.168 0-120-53.832-120-120v-272c0-66.168 53.832-120 120-120h183c11.046 0 20 8.954 20 20s-8.954 20-20 20h-183c-44.112 0-80 35.888-80 80v272c0 44.112 35.888 80 80 80h179c44.112 0 80-35.888 80-80v-120c0-11.046 8.954-20 20-20s20 8.954 20 20v120c0 66.168-53.831 120-120 120zm-.08-275.388 56.664-11.326c28.1-5.617 53.663-19.296 73.925-39.559l61.109-61.109c28.463-28.462 28.463-74.775 0-103.237-28.463-28.463-74.774-28.463-103.237 0l-61.109 61.109c-20.262 20.262-33.941 45.825-39.559 73.926l-11.326 56.664c-1.31 6.557.742 13.334 5.47 18.062 3.788 3.788 8.891 5.858 14.142 5.858 1.304 0 2.617-.127 3.921-.388zm163.415-186.946c6.233 6.233 9.666 14.52 9.666 23.334s-3.433 17.102-9.666 23.334l-61.109 61.109c-14.659 14.659-33.152 24.555-53.481 28.618l-27.253 5.447 5.447-27.252c4.063-20.33 13.959-38.824 28.618-53.482l61.109-61.109c6.233-6.233 14.52-9.666 23.334-9.666s17.102 3.434 23.335 9.667z" fill="#0023c4"/><path d="m319.017 352h-218c-11.046 0-20-8.954-20-20s8.954-20 20-20h218c11.046 0 20 8.954 20 20s-8.954 20-20 20zm-108 35c-13.807 0-25 11.193-25 25 0 13.807 11.193 25 25 25s25-11.193 25-25c0-13.807-11.193-25-25-25z" fill="#ff5cf3"/></g></svg>