<svg id="Layer_1" enable-background="new 0 0 512 512" height="512" viewBox="0 0 512 512" width="512" xmlns="http://www.w3.org/2000/svg"><g><path d="m77 235.5c0-103.553 83.947-187.5 187.5-187.5 18.366 0 36.109 2.655 52.883 7.578-30.879-22.373-68.835-35.578-109.883-35.578-103.553 0-187.5 83.947-187.5 187.5 0 63.121 31.191 118.957 79 152.937l14.227-14.135c-22.775-31.041-36.227-69.351-36.227-110.802z" fill="#cee1f2"/><path d="m98.983 380.438c-4.008 0-8.053-1.201-11.569-3.699-54.736-38.903-87.414-102.169-87.414-169.239 0-114.416 93.084-207.5 207.5-207.5 67.607 0 131.166 33.092 170.02 88.52 6.34 9.045 4.148 21.517-4.897 27.857-9.044 6.342-21.517 4.148-27.857-4.897-31.375-44.758-82.689-71.48-137.266-71.48-92.36 0-167.5 75.14-167.5 167.5 0 54.143 26.387 105.221 70.586 136.634 9.003 6.399 11.115 18.885 4.716 27.889-3.9 5.487-10.063 8.415-16.319 8.415z" fill="#0023c4"/><path d="m392 512h-114c-66.168 0-120-53.832-120-120v-114c0-66.168 53.832-120 120-120h114c66.168 0 120 53.832 120 120v114c0 66.168-53.832 120-120 120zm-114-314c-44.112 0-80 35.888-80 80v114c0 44.112 35.888 80 80 80h114c44.112 0 80-35.888 80-80v-114c0-44.112-35.888-80-80-80z" fill="#ff5cf3"/></g></svg>