<svg id="Layer_1" enable-background="new 0 0 512 512" height="512" viewBox="0 0 512 512" width="512" xmlns="http://www.w3.org/2000/svg"><g><path d="m177 432h-60.44c-6.036-17.018-19.541-30.524-36.56-36.56v-60.44c0-11.046-8.954-20-20-20s-20 8.954-20 20v60.44c-23.278 8.257-40 30.487-40 56.56 0 33.084 26.916 60 60 60 26.073 0 48.303-16.722 56.56-40h60.44c11.046 0 20-8.954 20-20s-8.954-20-20-20zm-117 40c-11.028 0-20-8.972-20-20s8.972-20 20-20 20 8.972 20 20-8.972 20-20 20zm392-472c-26.073 0-48.303 16.722-56.56 40h-61.44c-11.046 0-20 8.954-20 20s8.954 20 20 20h61.44c6.036 17.018 19.541 30.524 36.56 36.56v59.44c0 11.046 8.954 20 20 20s20-8.954 20-20v-59.44c23.278-8.256 40-30.487 40-56.56 0-33.084-26.916-60-60-60zm0 80c-11.028 0-20-8.972-20-20s8.972-20 20-20 20 8.972 20 20-8.972 20-20 20zm25 178c0 13.807-11.193 25-25 25s-25-11.193-25-25c0-13.807 11.193-25 25-25s25 11.193 25 25zm-176 20c0 13.807-11.193 25-25 25s-25-11.193-25-25 11.193-25 25-25 25 11.193 25 25zm-124-238h-60.44c-8.257-23.278-30.487-40-56.56-40-33.084 0-60 26.916-60 60 0 26.073 16.722 48.303 40 56.56v59.44c0 11.046 8.954 20 20 20s20-8.954 20-20v-59.44c17.018-6.036 30.524-19.541 36.56-36.56h60.44c11.046 0 20-8.954 20-20s-8.954-20-20-20zm-117 40c-11.028 0-20-8.972-20-20s8.972-20 20-20 20 8.972 20 20-8.972 20-20 20zm220 372c0 13.807-11.193 25-25 25s-25-11.193-25-25c0-13.807 11.193-25 25-25s25 11.193 25 25z" fill="#0023c4"/><path d="m230 60c0-13.807 11.193-25 25-25s25 11.193 25 25c0 13.807-11.193 25-25 25s-25-11.193-25-25zm276.205 338.921-107.635-108.596c-7.13-36.393-23.809-72.394-48.484-104.51-5.199-6.767-14.118-9.488-22.208-6.78-36.576 12.244-82.022 6.228-138.937-18.391-7.413-3.206-16.026-1.639-21.835 3.971-5.809 5.611-7.673 14.165-4.726 21.685 19.989 50.99 25.556 100.363 16.1 142.782-1.505 6.752.586 13.803 5.53 18.643 27.45 26.873 70.399 48.372 105.185 53.194l103.559 105.117c3.915 3.973 9.08 5.964 14.249 5.964 5.068 0 10.14-1.915 14.035-5.752 7.869-7.752 7.963-20.415.211-28.284l-108.592-110.224c-3.443-3.495-8.051-5.603-12.947-5.921-23.671-1.543-56.928-16.656-79.925-35.682 5.895-35.401 3.531-74.005-6.871-113.782 27.138 8.564 52.152 12.83 75.329 12.829 13.241 0 25.888-1.394 37.973-4.175 15.643 22.89 26.587 47.549 32.126 72.367l-23.483 23.483c-7.811 7.811-7.811 20.474 0 28.284s20.474 7.811 28.284 0l16.795-16.795 97.858 98.732c3.91 3.945 9.056 5.92 14.204 5.92 5.088 0 10.179-1.93 14.079-5.795 7.845-7.776 7.901-20.439.126-28.284zm-446.205-165.921c-13.807 0-25 11.193-25 25 0 13.807 11.193 25 25 25s25-11.193 25-25c0-13.807-11.193-25-25-25z" fill="#ff5cf3"/></g></svg>