<svg id="Layer_1" enable-background="new 0 0 512 512" height="512" viewBox="0 0 512 512" width="512" xmlns="http://www.w3.org/2000/svg"><g><path d="m80 412v-231.675c0-13.008 5.195-25.477 14.431-34.637l77.331-76.692c18.729-18.574 44.039-28.996 70.416-28.996h209.822.006c-16.714-12.557-37.491-20-60.006-20h-209.822c-26.378 0-51.688 10.422-70.417 28.997l-62.178 61.665c-18.933 18.776-29.583 44.337-29.583 71.003v210.335c0 55.227 44.768 99.997 99.994 100-24.285-18.245-39.994-47.287-39.994-80z" fill="#cee1f2"/><path d="m371 409c-11.046 0-20-8.954-20-20v-168c0-11.046 8.954-20 20-20s20 8.954 20 20v168c0 11.046-8.954 20-20 20zm43.322 68.204 62.178-61.664c22.561-22.374 35.5-53.43 35.5-85.204v-210.336c0-66.168-53.832-120-120-120h-209.821c-31.865 0-61.875 12.357-84.5 34.796l-62.179 61.664c-22.561 22.374-35.5 53.43-35.5 85.205v210.335c0 66.168 53.832 120 120 120h209.821c31.866 0 61.875-12.357 84.501-34.796zm-22.322-437.204c44.112 0 80 35.888 80 80v210.335c0 21.183-8.626 41.887-23.667 56.803l-62.178 61.665c-15.084 14.959-35.09 23.197-56.334 23.197h-209.821c-44.112 0-80-35.888-80-80v-210.335c0-21.183 8.626-41.887 23.667-56.803l62.178-61.665c15.084-14.959 35.09-23.197 56.334-23.197z" fill="#0023c4"/><path d="m328.292 160h-199.292c-11.046 0-20-8.954-20-20s8.954-20 20-20h199.292c22.296 0 43.371-8.569 59.34-24.129l8.412-8.195c7.91-7.709 20.573-7.544 28.282.368 7.708 7.911 7.544 20.573-.368 28.282l-8.411 8.195c-23.483 22.878-54.47 35.479-87.255 35.479z" fill="#ff5cf3"/></g></svg>