<svg id="Layer_1" enable-background="new 0 0 512 512" height="512" viewBox="0 0 512 512" width="512" xmlns="http://www.w3.org/2000/svg"><g><path d="m113 392-.043-105.874c0-69.351 32.623-137.912 84.438-178.384-3.697-4.85-6.667-10.052-9.045-15.638l-3.637.713c-78.658 28.982-134.756 104.591-134.756 193.309l.043 105.874c0 55.228 44.771 100 100 100h63c-55.229 0-100-44.772-100-100z" fill="#cee1f2"/><path d="m492 45h-151c-11.046 0-20-8.954-20-20s8.954-20 20-20h151c11.046 0 20 8.954 20 20s-8.954 20-20 20zm-301-20c0-11.046-8.954-20-20-20h-151c-11.046 0-20 8.954-20 20s8.954 20 20 20h151c11.046 0 20-8.954 20-20zm291 366.976-.127-105.85c0-47.139-14.375-92.311-41.572-130.631-26.587-37.461-63.334-65.625-106.269-81.445-10.364-3.819-21.862 1.487-25.682 11.852-3.819 10.365 1.487 21.863 11.852 25.682 72.775 26.815 121.67 96.958 121.67 174.566l.128 105.85c0 44.112-35.888 80-80 80h-212c-44.112 0-80-35.888-80-80.008l-.043-105.866c0-77.584 48.896-147.728 121.67-174.542 10.364-3.819 15.67-15.317 11.852-25.682-3.819-10.364-15.316-15.669-25.682-11.852-42.935 15.82-79.682 43.983-106.269 81.445-27.197 38.32-41.572 83.492-41.572 130.639l.044 105.866c0 66.168 53.832 120 120 120h212c66.168 0 120-53.832 120-120.024z" fill="#0023c4"/><path d="m351.29 329.85-13.323-7.994c2.61-8.158 4.033-16.843 4.033-25.856s-1.422-17.698-4.034-25.856l13.324-7.994c9.472-5.683 12.543-17.968 6.86-27.44-5.684-9.472-17.967-12.542-27.44-6.86l-13.569 8.142c-10.877-10.901-24.695-18.852-40.141-22.593v-17.399c0-11.046-8.954-20-20-20s-20 8.954-20 20v17.399c-15.798 3.826-29.881 12.071-40.868 23.356l-14.842-8.905c-9.472-5.684-21.757-2.613-27.44 6.86-5.683 9.472-2.612 21.757 6.86 27.44l15.004 9.002c-2.409 7.864-3.714 16.206-3.714 24.848s1.305 16.984 3.714 24.848l-15.003 9.002c-9.472 5.683-12.543 17.968-6.86 27.439 3.75 6.25 10.374 9.713 17.169 9.713 3.501 0 7.049-.92 10.271-2.853l14.842-8.905c10.988 11.286 25.07 19.53 40.868 23.356v17.4c0 11.046 8.954 20 20 20s20-8.954 20-20v-17.399c15.446-3.741 29.264-11.692 40.141-22.593l13.57 8.142c3.222 1.933 6.769 2.853 10.271 2.853 6.794 0 13.419-3.463 17.169-9.713 5.681-9.472 2.609-21.757-6.862-27.44zm-94.29 11.15c-24.813 0-45-20.187-45-45s20.187-45 45-45 45 20.187 45 45-20.187 45-45 45zm-26-316c0-13.807 11.193-25 25-25s25 11.193 25 25-11.193 25-25 25-25-11.193-25-25z" fill="#ff5cf4"/></g></svg>