<svg id="Layer_1" enable-background="new 0 0 512 512" height="512" viewBox="0 0 512 512" width="512" xmlns="http://www.w3.org/2000/svg"><g><path d="m180 320h-60c-55.229 0-100-44.772-100-100v-100c0-55.229 44.771-100 100-100h60c-55.229 0-100 44.771-100 100v100c0 55.228 44.771 100 100 100zm72 72v-71h-60v71c0 55.228 44.771 100 100 100h60c-55.229 0-100-44.772-100-100z" fill="#cee1f2"/><path d="m388 432h-92c-24.262 0-44-19.738-44-44v-73c0-11.046 8.954-20 20-20s20 8.954 20 20v73c0 2.206 1.794 4 4 4h92c2.206 0 4-1.794 4-4v-92c0-2.206-1.794-4-4-4h-77c-11.046 0-20-8.954-20-20s8.954-20 20-20h77c24.262 0 44 19.738 44 44v92c0 24.262-19.738 44-44 44z" fill="#ff5cf3"/><path d="m392 172h-52v-52c0-66.168-53.832-120-120-120h-100c-66.168 0-120 53.832-120 120v100c0 66.168 53.832 120 120 120h52v52c0 66.168 53.832 120 120 120h100c66.168 0 120-53.832 120-120v-100c0-66.168-53.832-120-120-120zm-352 48v-100c0-44.112 35.888-80 80-80h100c44.112 0 80 35.888 80 80v100c0 44.112-35.888 80-80 80h-100c-44.112 0-80-35.888-80-80zm432 172c0 44.112-35.888 80-80 80h-100c-44.112 0-80-35.888-80-80v-52h8c66.168 0 120-53.832 120-120v-8h52c44.112 0 80 35.888 80 80z" fill="#0023c4"/></g></svg>