<svg id="Layer_1" enable-background="new 0 0 512.009 512.009" height="512" viewBox="0 0 512.009 512.009" width="512" xmlns="http://www.w3.org/2000/svg"><g><path d="m283.712 346.083c-15.458-23.181-23.707-50.42-23.707-78.282v-187.797c0-22.205 12.071-41.577 30-51.953-8.827-5.108-19.067-8.047-30-8.047-33.137 0-60 26.863-60 60v197.848c0 27.862 8.249 55.101 23.707 78.282l36.293 52.869 33.45-48.728z" fill="#cee1f2"/><path d="m260.005 429.005c-6.591 0-12.759-3.247-16.489-8.681l-36.293-52.87c-.051-.074-.101-.148-.15-.223-17.708-26.554-27.067-57.461-27.067-89.378v-197.848c0-44.112 35.888-80 80-80s80 35.888 80 80v197.848c0 31.917-9.359 62.823-27.067 89.378-.05.075-.1.149-.15.223l-36.293 52.87c-3.733 5.433-9.901 8.681-16.491 8.681zm-19.729-84.079 19.729 28.74 19.728-28.738c13.262-19.936 20.272-43.128 20.272-67.075v-197.848c0-22.056-17.944-40-40-40s-40 17.944-40 40v197.848c0 23.947 7.009 47.137 20.271 67.073zm271.729 147.079c0-11.046-8.954-20-20-20h-472c-11.046 0-20 8.954-20 20s8.954 20 20 20h472c11.045 0 20-8.955 20-20z" fill="#0023c4"/><path d="m380.585 376.143c-5.058 0-10.117-1.906-14.011-5.729-7.882-7.738-7.998-20.401-.26-28.283l48.245-49.138c7.74-7.883 20.402-7.998 28.283-.259 7.882 7.738 7.998 20.401.26 28.283l-48.245 49.138c-3.916 3.988-9.093 5.988-14.272 5.988zm33.662 66.52 82.442-19.863c10.738-2.587 17.347-13.39 14.759-24.128s-13.391-17.35-24.128-14.759l-82.442 19.863c-10.738 2.587-17.347 13.39-14.759 24.128 2.208 9.164 10.398 15.32 19.427 15.32 1.55 0 3.127-.181 4.701-.561zm47.758-194.908c0 13.807 11.193 25 25 25s25-11.193 25-25-11.193-25-25-25-25 11.192-25 25zm-316.57 122.659c7.882-7.738 7.998-20.401.26-28.283l-48.245-49.138c-7.739-7.883-20.401-7.998-28.283-.259-7.882 7.738-7.998 20.401-.26 28.283l48.245 49.138c3.916 3.989 9.092 5.988 14.272 5.988 5.057 0 10.118-1.907 14.011-5.729zm-23.545 57.49c2.588-10.738-4.021-21.541-14.759-24.128l-82.442-19.863c-10.739-2.589-21.54 4.02-24.128 14.759-2.588 10.738 4.021 21.541 14.759 24.128l82.442 19.863c1.575.38 3.149.561 4.701.561 9.028 0 17.219-6.156 19.427-15.32zm-96.885-205.149c-13.807 0-25 11.193-25 25s11.193 25 25 25 25-11.193 25-25c0-13.808-11.193-25-25-25z" fill="#ff5cf3"/></g></svg>