<svg id="Layer_1" enable-background="new 0 0 512 512" height="512" viewBox="0 0 512 512" width="512" xmlns="http://www.w3.org/2000/svg"><g><path d="m79 392v-48c0-55.229 44.771-100 100-100h-59c-55.229 0-100 44.771-100 100v48c0 55.228 44.771 100 100 100h59c-55.228 0-100-44.771-100-100z" fill="#cee1f2"/><g fill="#0023c4"><path d="m303.271 357.987c11.378.404 20.729-8.699 20.729-19.987v-25.285c8.441-2.97 16.169-7.832 22.657-14.387 11.32-11.437 17.477-26.59 17.341-42.677l.002-58.65c0-11.045-8.954-20-19.999-20-.001 0 0 0-.001 0-11.045 0-20 8.954-20 20l-.001 60.038c0 11.025-8.938 19.962-19.962 19.962-11.016 0-19.949-8.923-19.963-19.938l-.074-60.096c-.019-11.035-8.969-19.967-19.999-19.967-.011 0-.023 0-.034 0-11.045.018-19.985 8.987-19.967 20.033l.098 59.453c.143 25.85 16.806 47.901 39.902 56.149v24.886c0 10.845 8.433 20.081 19.271 20.466z"/><path d="m487.879 271.829c-15.25-20.233-36.944-35.399-61.088-42.703-10.572-3.198-21.734 2.779-24.935 13.352-3.198 10.573 2.779 21.736 13.353 24.935 33.438 10.116 56.791 41.61 56.791 76.587v48c0 44.112-35.888 80-80 80h-272c-44.112 0-80-35.888-80-80v-48c0-44.112 35.888-80 80-80h64c11.046 0 20-8.954 20-20s-8.954-20-20-20h-64c-66.168 0-120 53.832-120 120v48c0 66.168 53.832 120 120 120h272c66.168 0 120-53.832 120-120v-48c0-26.278-8.341-51.234-24.121-72.171z"/><path d="m227 142.973h152c11.046 0 20-8.954 20-20s-8.954-20-20-20h-14v-41.495c-.036-16.587-6.517-32.123-18.249-43.744-11.664-11.554-27.192-17.847-43.59-17.732-33.724.245-61.161 27.883-61.161 61.608v41.362h-15c-11.046 0-20 8.954-20 20s8.954 20.001 20 20.001zm55-81.363c0-11.83 9.624-21.524 21.453-21.61 5.741-.078 11.101 2.143 15.147 6.15 4.114 4.076 6.387 9.549 6.399 15.37v41.452h-43v-41.362z"/></g><path d="m400 385c13.807 0 25 11.193 25 25 0 13.807-11.193 25-25 25s-25-11.193-25-25c0-13.807 11.193-25 25-25zm-120 25c0 13.807 11.193 25 25 25s25-11.193 25-25c0-13.807-11.193-25-25-25s-25 11.193-25 25zm-97 0c0 13.807 11.193 25 25 25s25-11.193 25-25c0-13.807-11.193-25-25-25s-25 11.193-25 25zm-94 0c0 13.807 11.193 25 25 25s25-11.193 25-25c0-13.807-11.193-25-25-25s-25 11.193-25 25zm287-81c0 13.807 11.193 25 25 25s25-11.193 25-25c0-13.807-11.193-25-25-25s-25 11.193-25 25zm-193 0c0 13.807 11.193 25 25 25s25-11.193 25-25c0-13.807-11.193-25-25-25s-25 11.193-25 25zm-94 0c0 13.807 11.193 25 25 25s25-11.193 25-25c0-13.807-11.193-25-25-25s-25 11.193-25 25z" fill="#ff5cf3"/></g></svg>