<svg id="Layer_1" enable-background="new 0 0 512 512" height="512" viewBox="0 0 512 512" width="512" xmlns="http://www.w3.org/2000/svg"><g><path d="m353 453h-174c-66.168 0-120-53.832-120-120v-174c0-11.046 8.954-20 20-20s20 8.954 20 20v174c0 44.112 35.888 80 80 80h174c11.046 0 20 8.954 20 20s-8.954 20-20 20zm100 39v-39h39c11.046 0 20-8.954 20-20s-8.954-20-20-20h-59c-11.046 0-20 8.954-20 20v59c0 11.046 8.954 20 20 20s20-8.954 20-20zm0-139v-174c0-66.168-53.832-120-120-120h-173c-11.046 0-20 8.954-20 20s8.954 20 20 20h173c44.112 0 80 35.888 80 80v174c0 11.046 8.954 20 20 20s20-8.954 20-20zm-354-274v-59c0-11.046-8.954-20-20-20s-20 8.954-20 20v39h-39c-11.046 0-20 8.954-20 20s8.954 20 20 20h59c11.046 0 20-8.954 20-20z" fill="#0023c4"/><path d="m480.678 66.678c-9.763 9.763-25.592 9.763-35.355 0s-9.763-25.592 0-35.355c9.763-9.763 25.592-9.763 35.355 0s9.763 25.592 0 35.355zm-141.678 80.322c-13.807 0-25 11.193-25 25 0 13.807 11.193 25 25 25s25-11.193 25-25c0-13.807-11.193-25-25-25zm-80 80c0 13.807 11.193 25 25 25 13.807 0 25-11.193 25-25s-11.193-25-25-25c-13.807 0-25 11.193-25 25zm-32 33c-13.807 0-25 11.193-25 25 0 13.807 11.193 25 25 25s25-11.193 25-25c0-13.807-11.193-25-25-25zm-81 81c0 13.807 11.193 25 25 25 13.807 0 25-11.193 25-25s-11.193-25-25-25c-13.807 0-25 11.193-25 25zm-79.322 104.322c-9.763-9.763-25.592-9.763-35.355 0-9.763 9.763-9.763 25.592 0 35.355s25.592 9.763 35.355 0c9.763-9.762 9.763-25.591 0-35.355z" fill="#ff5cf3"/></g></svg>