<svg id="Layer_1" enable-background="new 0 0 512 512" height="512" viewBox="0 0 512 512" width="512" xmlns="http://www.w3.org/2000/svg"><g><path d="m147.241 184c0-85.969 59.31-149.059 137.379-161.68-9.297-1.503-18.86-2.295-28.621-2.32-91.722.234-165.999 67.794-165.999 164 0 119.5 117.345 208 117.345 208h89.655s-149.759-95-149.759-208z" fill="#cee1f2"/><g fill="#0023c4"><path d="m312.14 441.966c-10.512-3.388-21.783 2.382-25.174 12.894l-5.529 17.14h-51.873l-5.529-17.14c-3.391-10.512-14.66-16.286-25.174-12.894-10.512 3.391-16.285 14.662-12.894 25.174l10 31c2.664 8.261 10.353 13.86 19.033 13.86h81c8.68 0 16.369-5.599 19.034-13.86l10-31c3.391-10.512-2.382-21.783-12.894-25.174z"/><path d="m387.099 51.439c-34.198-32.865-81.099-51.439-131.099-51.439s-96.901 18.574-131.099 51.439c-35.403 34.026-54.901 81.103-54.901 132.561 0 53.413 21.782 109.164 62.99 161.225 30.577 38.629 61.03 61.776 62.312 62.743 3.47 2.617 7.697 4.032 12.043 4.032h96.356c4.319 0 8.522-1.398 11.98-3.985 1.292-.966 31.982-24.105 62.802-62.728 41.553-52.073 63.517-107.846 63.517-161.287 0-51.458-19.498-98.535-54.901-132.561zm-90.42 320.561h-82.265c-21.429-17.951-104.414-93.585-104.414-188 0-81.938 62.73-143.766 146-144 83.27.234 146 62.062 146 144 0 94.475-83.837 170.162-105.321 188z"/></g><path d="m325.921 160.067c-20.226-10.08-36.595-31.483-50.042-65.433-2.974-7.509-10.172-12.492-18.248-12.632-8.037-.137-15.442 4.59-18.675 11.992-13.374 30.619-31.099 53.098-52.683 66.813-5.839 3.71-9.346 10.175-9.272 17.093.29 27.224 8.782 50.538 25.242 69.292 3.797 4.327 9.275 6.807 15.032 6.807h57.725v48c0 11.046 8.954 20 20 20s20-8.954 20-20v-60.183c11.08-13.764 18.25-33.926 21.831-61.251 1.108-8.46-3.273-16.692-10.91-20.498zm-40.153 53.933h-58.613c-4.958-7.657-8.117-16.481-9.443-26.377 14.574-11.057 27.508-25.096 38.702-41.993 11.127 18.33 23.936 32.428 38.627 42.544-2.696 13.037-6.194 20.997-9.273 25.826zm176.232-89c0-13.807 11.193-25 25-25s25 11.193 25 25-11.193 25-25 25-25-11.193-25-25zm47 113c0 13.807-11.193 25-25 25s-25-11.193-25-25 11.193-25 25-25 25 11.193 25 25zm-509-113c0-13.807 11.193-25 25-25s25 11.193 25 25-11.193 25-25 25-25-11.193-25-25zm54 113c0 13.807-11.193 25-25 25s-25-11.193-25-25 11.193-25 25-25 25 11.193 25 25zm46-213c0 13.807-11.193 25-25 25s-25-11.193-25-25 11.193-25 25-25 25 11.193 25 25zm364 0c0 13.807-11.193 25-25 25s-25-11.193-25-25 11.193-25 25-25 25 11.193 25 25z" fill="#ff5cf3"/></g></svg>