<svg id="Layer_1" enable-background="new 0 0 512 512" height="512" viewBox="0 0 512 512" width="512" xmlns="http://www.w3.org/2000/svg"><g><path d="m80 392.041v-272.082c0-55.206 44.644-99.959 99.716-99.959h-60.716c-55.229 0-100 44.771-100 100v272c0 55.228 44.771 100 100 100h60.716c-55.072 0-99.716-44.753-99.716-99.959z" fill="#cee1f2"/><path d="m284 512h-164c-66.168 0-120-53.832-120-120v-272c0-66.168 53.832-120 120-120h184c66.168 0 120 53.832 120 120v156c0 11.046-8.954 20-20 20s-20-8.954-20-20v-156c0-44.112-35.888-80-80-80h-184c-44.112 0-80 35.888-80 80v272c0 44.112 35.888 80 80 80h164c11.046 0 20 8.954 20 20s-8.954 20-20 20zm59-328c0-11.046-8.954-20-20-20h-34c-16.542 0-30-13.458-30-30v-34c0-11.046-8.954-20-20-20s-20 8.954-20 20v34c0 38.598 31.402 70 70 70h34c11.046 0 20-8.954 20-20zm34 268v-56c0-11.028 8.972-20 20-20h57c11.046 0 20-8.954 20-20s-8.954-20-20-20h-57c-33.084 0-60 26.916-60 60v56c0 11.046 8.954 20 20 20s20-8.954 20-20z" fill="#0023c4"/><path d="m506.142 506.142c-3.905 3.905-9.023 5.858-14.142 5.858s-10.237-1.953-14.142-5.858l-66-66c-7.811-7.811-7.811-20.474 0-28.284s20.474-7.811 28.284 0l66 66c7.811 7.81 7.811 20.474 0 28.284zm-222.142-223.643v87.002c11.411 2.316 20 12.404 20 24.499 0 13.807-11.193 25-25 25-12.095 0-22.182-8.589-24.499-20h-86.002c-2.316 11.411-12.404 20-24.499 20-13.807 0-25-11.193-25-25 0-12.095 8.589-22.182 20-24.499v-87.002c-11.411-2.316-20-12.404-20-24.499 0-13.807 11.193-25 25-25 12.095 0 22.182 8.589 24.499 20h86.002c2.316-11.411 12.404-20 24.499-20 13.807 0 25 11.193 25 25 0 12.095-8.589 22.182-20 24.499zm-40 10.501h-65v66h65z" fill="#ff5cf4"/></g></svg>