<svg id="Layer_1" enable-background="new 0 0 512.363 512.363" height="512" viewBox="0 0 512.363 512.363" width="512" xmlns="http://www.w3.org/2000/svg"><g><path d="m80 392.182v-272c0-53.213 41.566-96.712 94-99.816-1.986-.118-3.985-.184-6-.184h-48c-55.229 0-100 44.771-100 100v272c0 55.229 44.771 100 100 100h48c2.015 0 4.014-.067 6-.184-52.434-3.104-94-46.603-94-99.816z" fill="#cee1f2"/><path d="m168 512.182h-48c-66.168 0-120-53.832-120-120v-272c0-66.168 53.832-120 120-120h48c66.168 0 120 53.832 120 120v272c0 66.168-53.832 120-120 120zm-48-472c-44.112 0-80 35.888-80 80v272c0 44.112 35.888 80 80 80h48c44.112 0 80-35.888 80-80v-272c0-44.112-35.888-80-80-80zm239.098 280.376 51.854-85.445c34.437-56.448 16.566-130.376-39.83-164.866l-25.486-16.003c-9.354-5.873-21.699-3.052-27.573 6.303-5.874 9.354-3.052 21.699 6.303 27.573l25.589 16.067c.073.045.146.091.219.136 37.658 22.974 49.604 72.301 26.607 109.998l-51.877 85.485c-5.731 9.443-2.721 21.743 6.722 27.474 3.243 1.968 6.822 2.905 10.357 2.905 6.756 0 13.352-3.428 17.115-9.627zm-6.595 116.644 102.544-63.281c34.36-21.053 55.759-57.69 57.24-98.005.849-23.097-5.456-46.329-18.234-67.183-5.77-9.418-18.083-12.375-27.502-6.604-9.418 5.771-12.375 18.083-6.604 27.502 8.65 14.118 12.927 29.615 12.368 44.817-.989 26.894-15.256 51.33-38.22 65.4l-102.599 63.314c-9.4 5.801-12.317 18.124-6.517 27.523 3.781 6.126 10.332 9.5 17.039 9.5 3.584 0 7.212-.963 10.485-2.983zm-182.503-35.02c0-13.807-11.193-25-25-25-13.807 0-25 11.193-25 25s11.193 25 25 25c13.807 0 25-11.193 25-25z" fill="#0023c4"/><path d="m183 237.182c-13.807 0-25-11.193-25-25s11.193-25 25-25c13.807 0 25 11.193 25 25s-11.193 25-25 25zm-53 72c0-13.807-11.193-25-25-25-13.807 0-25 11.193-25 25s11.193 25 25 25c13.807 0 25-11.193 25-25zm0-192c0-13.807-11.193-25-25-25-13.807 0-25 11.193-25 25s11.193 25 25 25c13.807 0 25-11.193 25-25zm0 95c0-13.807-11.193-25-25-25-13.807 0-25 11.193-25 25s11.193 25 25 25c13.807 0 25-11.193 25-25zm78-96c0-13.807-11.193-25-25-25-13.807 0-25 11.193-25 25s11.193 25 25 25c13.807 0 25-11.193 25-25zm0 193c0-13.807-11.193-25-25-25-13.807 0-25 11.193-25 25s11.193 25 25 25c13.807 0 25-11.193 25-25z" fill="#ff5cf3"/></g></svg>