<svg id="Layer_1" enable-background="new 0 0 512 512" height="512" viewBox="0 0 512 512" width="512" xmlns="http://www.w3.org/2000/svg"><g><path d="m91.5 96c0-23.069 12.709-43.159 31.5-53.683-8.876-4.971-19.103-7.817-30-7.817-33.966 0-61.5 27.534-61.5 61.5s27.534 61.5 61.5 61.5c10.897 0 21.124-2.846 30-7.817-18.791-10.524-31.5-30.614-31.5-53.683z" fill="#cee1f2"/><path d="m158 226v178.566c0 22.599-6.627 44.481-19.165 63.284-.05.075-.1.149-.151.223l-24.195 35.246c-3.73 5.434-9.898 8.681-16.489 8.681s-12.759-3.247-16.489-8.681l-24.195-35.246c-.051-.074-.101-.148-.151-.223-12.538-18.803-19.165-40.686-19.165-63.285v-175.565c0-11.046 8.954-20 20-20s20 8.954 20 20v175.565c0 14.632 4.278 28.802 12.375 40.987l7.625 11.109 7.625-11.108c8.097-12.185 12.375-26.355 12.375-40.987v-178.566c0-11.046 8.954-20 20-20s20 8.954 20 20zm345.319-144.489-35.246-24.195c-.074-.051-.148-.101-.223-.151-18.803-12.538-40.685-19.165-63.284-19.165h-175.566c-11.046 0-20 8.954-20 20s8.954 20 20 20h175.566c14.632 0 28.802 4.278 40.987 12.375l11.108 7.625-11.108 7.625c-12.185 8.097-26.356 12.375-40.988 12.375h-179.565c-11.046 0-20 8.954-20 20s8.954 20 20 20h179.565c22.599 0 44.482-6.627 63.284-19.165.075-.05.149-.1.223-.151l35.246-24.195c5.435-3.73 8.682-9.898 8.682-16.489s-3.247-12.759-8.681-16.489zm-327.319 12.989c0 44.939-36.561 81.5-81.5 81.5s-81.5-36.561-81.5-81.5c0-15.232 4.21-29.494 11.513-41.703l-18.655-18.655c-7.811-7.811-7.811-20.474 0-28.284s20.474-7.811 28.284 0l18.655 18.655c12.209-7.303 26.472-11.513 41.703-11.513 44.939 0 81.5 36.561 81.5 81.5zm-40 0c0-22.883-18.617-41.5-41.5-41.5s-41.5 18.617-41.5 41.5 18.617 41.5 41.5 41.5 41.5-18.617 41.5-41.5z" fill="#0023c4"/><path d="m198 512c-11.046 0-20-8.954-20-20s8.954-20 20-20c151.084 0 274-122.916 274-274 0-11.046 8.954-20 20-20s20 8.954 20 20c0 83.873-32.662 162.725-91.969 222.031-59.306 59.307-138.158 91.969-222.031 91.969z" fill="#ff5cf3"/></g></svg>