<svg id="Layer_1" enable-background="new 0 0 512 512" height="512" viewBox="0 0 512 512" width="512" xmlns="http://www.w3.org/2000/svg"><g><path d="m188 440v-53c0-72 37.286-102.886 51.365-124l54.569-76.334-36.934-51.666-78.635 110c-14.079 21.114-51.365 63-51.365 135v42c0 38.66 31.34 70 70 70h14.147c-14.21-12.812-23.147-31.36-23.147-52z" fill="#cee1f2"/><path d="m154.865 83.019-16.846-30.885c-5.289-9.696-1.716-21.845 7.981-27.134 9.697-5.289 21.846-1.716 27.135 7.981l16.846 30.885c5.289 9.696 1.716 21.845-7.981 27.134-9.697 5.289-21.845 1.716-27.135-7.981zm-29.865 56.981c6.628-8.837 4.837-21.373-4-28l-28-21c-8.836-6.627-21.372-4.837-28 4-6.627 8.836-4.837 21.372 4 28l28 21c8.837 6.627 21.373 4.837 28-4zm-20 66c0-11.046-8.954-20-20-20h-34c-11.046 0-20 8.954-20 20 0 11.046 8.954 20 20 20h34c11.046 0 20-8.954 20-20zm172-153v-33c0-11.046-8.954-20-20-20-11.046 0-20 8.954-20 20v33c0 11.046 8.954 20 20 20 11.046 0 20-8.954 20-20zm80.42 30.019 16.846-30.885c5.289-9.697 1.716-21.845-7.981-27.135-9.697-5.289-21.846-1.716-27.135 7.981l-16.846 30.885c-5.289 9.697-1.716 21.845 7.981 27.135 9.697 5.289 21.846 1.716 27.135-7.981zm57.865 60.981 28-21c8.836-6.627 10.627-19.163 4-28-6.627-8.836-19.163-10.627-28-4l-28 21c-8.836 6.627-10.627 19.163-4 28 6.628 8.837 19.164 10.627 28 4zm65.715 62c0-11.046-8.954-20-20-20h-34c-11.046 0-20 8.954-20 20 0 11.046 8.954 20 20 20h34c11.046 0 20-8.954 20-20z" fill="#ff5cf3"/><path d="m317 512h-120c-49.626 0-90-40.374-90-90v-42c0-69.485 31.813-113.927 48.903-137.803 2.285-3.192 4.259-5.949 5.822-8.293.12-.181.243-.359.369-.535l78.635-110c3.755-5.252 9.815-8.369 16.271-8.369s12.516 3.117 16.271 8.369l78.635 110c.126.176.249.354.369.535 1.641 2.46 3.745 5.374 6.182 8.747 16.964 23.486 48.543 67.203 48.543 135.349v44c0 49.626-40.374 90-90 90zm-122.183-255.624c-1.889 2.819-4.076 5.875-6.388 9.104-15.494 21.646-41.429 57.876-41.429 114.52v42c0 27.57 22.43 50 50 50h120c27.57 0 50-22.43 50-50v-44c0-55.21-24.654-89.342-40.969-111.927-2.483-3.437-4.832-6.689-6.848-9.695l-62.183-86.987zm133.183 95.624c0-11.046-8.954-20-20-20-21.682 0-38.468-13.994-39.519-14.89-7.624-7.043-18.957-7.07-26.624-.074-1.049.886-18.092 14.964-39.857 14.964-11.046 0-20 8.954-20 20s8.954 20 20 20c22.709 0 41.336-8.349 53.081-15.459 11.689 7.121 30.222 15.459 52.919 15.459 11.046 0 20-8.954 20-20z" fill="#0023c4"/></g></svg>