<svg id="Layer_1" enable-background="new 0 0 512 512" height="512" viewBox="0 0 512 512" width="512" xmlns="http://www.w3.org/2000/svg"><g><path d="m80 412v-231.675c0-13.008 5.195-25.477 14.431-34.637l77.331-76.692c18.729-18.574 44.039-28.996 70.416-28.996h209.822.006c-16.714-12.557-37.491-20-60.006-20h-209.822c-26.378 0-51.688 10.422-70.417 28.997l-62.178 61.665c-18.933 18.776-29.583 44.337-29.583 71.003v210.335c0 55.227 44.768 99.997 99.994 100-24.285-18.245-39.994-47.287-39.994-80z" fill="#cee1f2"/><path d="m397.004 135c-5.322 0-10.632-2.111-14.568-6.292-7.57-8.043-7.187-20.701.857-28.271l17-16c8.042-7.571 20.699-7.187 28.271.856 7.57 8.043 7.187 20.701-.857 28.271l-17 16c-3.861 3.635-8.788 5.436-13.703 5.436zm17.317 342.204 62.18-61.665c22.56-22.374 35.499-53.43 35.499-85.204v-210.335c0-66.168-53.832-120-120-120h-209.821c-31.865 0-61.875 12.357-84.5 34.796l-62.18 61.664c-22.56 22.375-35.499 53.431-35.499 85.205v210.335c0 66.168 53.832 120 120 120h209.821c31.866 0 61.875-12.357 84.5-34.796zm-22.321-437.204c44.112 0 80 35.888 80 80v210.335c0 21.182-8.626 41.886-23.666 56.803l-62.179 61.665c-15.084 14.959-35.09 23.197-56.334 23.197h-209.821c-44.112 0-80-35.888-80-80v-210.335c0-21.182 8.626-41.886 23.666-56.803l62.179-61.665c15.084-14.959 35.09-23.197 56.334-23.197z" fill="#0023c4"/><path d="m371 409c-11.046 0-20-8.954-20-20v-168c0-33.636-27.364-61-61-61h-161c-11.046 0-20-8.954-20-20s8.954-20 20-20h161c55.691 0 101 45.309 101 101v168c0 11.046-8.954 20-20 20z" fill="#ff5cf3"/></g></svg>