<svg id="Layer_1" enable-background="new 0 0 512 512" height="512" viewBox="0 0 512 512" width="512" xmlns="http://www.w3.org/2000/svg"><g><path d="m283.04 301h-27.667c-23.402 0-42.373-18.971-42.373-42.373v-89.125c0-11.299 4.513-22.13 12.535-30.086l26.347-26.129c7.936-7.87 18.66-12.287 29.838-12.287h88.907c12.964 0 24.561 5.828 32.333 15h-61.24c-11.177 0-21.901 4.416-29.838 12.287l-26.347 26.129c-8.022 7.956-12.535 18.787-12.535 30.086v89.125c0 10.438 3.781 19.988 10.04 27.373zm-203.04 111v-231.675c0-13.008 5.195-25.477 14.431-34.637l77.331-76.692c18.729-18.574 44.039-28.996 70.416-28.996h209.822.006c-16.714-12.557-37.491-20-60.006-20h-209.822c-26.378 0-51.688 10.422-70.417 28.997l-62.178 61.665c-18.933 18.776-29.583 44.337-29.583 71.003v210.335c0 55.227 44.768 99.997 99.994 100-24.285-18.245-39.994-47.287-39.994-80z" fill="#cee1f2"/><path d="m344.28 321h-88.907c-34.393 0-62.373-27.98-62.373-62.373v-89.125c0-16.515 6.725-32.657 18.452-44.287l26.348-26.129c11.759-11.663 27.357-18.086 43.92-18.086h88.907c34.393 0 62.373 27.98 62.373 62.373v89.125c0 16.516-6.726 32.657-18.452 44.287l-26.347 26.129c-11.759 11.662-27.357 18.086-43.921 18.086zm-62.56-200c-5.941 0-11.536 2.304-15.754 6.487l-26.348 26.129c-4.206 4.171-6.618 9.962-6.618 15.886v89.125c0 12.337 10.037 22.373 22.373 22.373h88.907c5.941 0 11.536-2.304 15.753-6.487l26.348-26.129c4.206-4.171 6.618-9.961 6.618-15.885v-89.125c.001-12.337-10.036-22.374-22.372-22.374zm48.101 391h-209.821c-66.168 0-120-53.832-120-120v-210.335c0-31.774 12.939-62.83 35.5-85.204l62.178-61.665c22.626-22.439 52.635-34.796 84.501-34.796h209.821c66.168 0 120 53.832 120 120v210.335c0 31.774-12.939 62.83-35.5 85.204l-62.178 61.665c-22.626 22.439-52.635 34.796-84.501 34.796zm-147.642-472c-21.244 0-41.25 8.238-56.333 23.197l-62.178 61.665c-15.042 14.916-23.668 35.619-23.668 56.803v210.335c0 44.112 35.888 80 80 80h209.821c21.244 0 41.25-8.238 56.334-23.197l62.178-61.664c15.041-14.917 23.667-35.621 23.667-56.804v-210.335c0-44.112-35.888-80-80-80z" fill="#0023c4"/><path d="m351 433c-11.046 0-20-8.954-20-20v-31c0-11.046 8.954-20 20-20s20 8.954 20 20v31c0 11.046-8.954 20-20 20zm-193-262c0-11.046-8.954-20-20-20h-40c-11.046 0-20 8.954-20 20s8.954 20 20 20h40c11.046 0 20-8.954 20-20zm195 52c0-11.046-8.954-20-20-20h-23v-21c0-11.046-8.954-20-20-20s-20 8.954-20 20v41c0 11.046 8.954 20 20 20h43c11.046 0 20-8.954 20-20z" fill="#ff5cf3"/></g></svg>