<svg id="Layer_1" enable-background="new 0 0 512.17 512.17" height="512" viewBox="0 0 512.17 512.17" width="512" xmlns="http://www.w3.org/2000/svg"><g><path d="m164.085 392.17v-54.17c0-33.137 26.863-60 60-60h-62c-33.137 0-60 26.863-60 60v54.17c0 55.229 44.772 100 100 100h62c-55.229 0-100-44.772-100-100z" fill="#cee1f2"/><path d="m312.085 512.17h-110c-66.168 0-120-53.832-120-120v-54.17c0-44.112 35.888-80 80-80h190c44.112 0 80 35.888 80 80v54.17c0 66.168-53.832 120-120 120zm-150-214.17c-22.056 0-40 17.944-40 40v54.17c0 44.112 35.888 80 80 80h110c44.112 0 80-35.888 80-80v-54.17c0-22.056-17.944-40-40-40zm270-178c0-66.168-53.832-120-120-120h-110c-66.168 0-120 53.832-120 120 0 11.046 8.954 20 20 20s20-8.954 20-20c0-44.112 35.888-80 80-80h110c44.112 0 80 35.888 80 80 0 11.046 8.954 20 20 20s20-8.954 20-20zm80 249v-71c0-66.168-53.832-120-120-120h-272c-66.168 0-120 53.832-120 120v71c0 11.046 8.954 20 20 20s20-8.954 20-20v-71c0-44.112 35.888-80 80-80h272c44.112 0 80 35.888 80 80v71c0 11.046 8.954 20 20 20s20-8.954 20-20z" fill="#0023c4"/><path d="m301.181 432.218c-14.768 0-29.83-5.754-43.683-16.709-.086-.068-.171-.137-.256-.206l-30.408-24.87c-11.497-9.007-27.69-8.462-38.558 1.313-8.212 7.386-20.858 6.717-28.245-1.496-7.386-8.213-6.716-20.858 1.497-28.244 25.442-22.883 63.391-24.086 90.231-2.859.086.068.171.137.256.206l30.416 24.877c14.458 11.38 25.792 10.58 37.884-2.663 7.447-8.158 20.098-8.733 28.255-1.284 8.157 7.447 8.732 20.098 1.284 28.255-17.205 18.844-34.958 23.262-46.821 23.65-.617.019-1.234.03-1.852.03z" fill="#ff5cf4"/></g></svg>