<svg id="Layer_1" enable-background="new 0 0 512 512" height="512" viewBox="0 0 512 512" width="512" xmlns="http://www.w3.org/2000/svg"><g><path d="m180 320h-60c-55.229 0-100-44.771-100-100v-100c0-55.229 44.771-100 100-100h60c-55.229 0-100 44.771-100 100v100c0 55.229 44.771 100 100 100zm72 72v-100c0-55.229 44.771-100 100-100h-60c-55.229 0-100 44.771-100 100v100c0 55.229 44.771 100 100 100h60c-55.229 0-100-44.771-100-100z" fill="#cee1f2"/><path d="m392 172h-52v-52c0-66.168-53.832-120-120-120h-100c-66.168 0-120 53.832-120 120v100c0 66.168 53.832 120 120 120h52v52c0 66.168 53.832 120 120 120h100c66.168 0 120-53.832 120-120v-100c0-66.168-53.832-120-120-120zm-272 128c-44.112 0-80-35.888-80-80v-100c0-44.112 35.888-80 80-80h100c44.112 0 80 35.888 80 80v52h-8c-66.168 0-120 53.832-120 120v8zm352 92c0 44.112-35.888 80-80 80h-100c-44.112 0-80-35.888-80-80v-100c0-44.112 35.888-80 80-80h100c44.112 0 80 35.888 80 80z" fill="#0023c4"/><path d="m388 432h-92c-24.262 0-44-19.738-44-44v-92c0-24.262 19.738-44 44-44h92c24.262 0 44 19.738 44 44v92c0 24.262-19.738 44-44 44zm-92-140c-2.206 0-4 1.794-4 4v92c0 2.206 1.794 4 4 4h92c2.206 0 4-1.794 4-4v-92c0-2.206-1.794-4-4-4z" fill="#ff5cf3"/></g></svg>