<svg id="Layer_1" enable-background="new 0 0 512.807 512.807" height="512" viewBox="0 0 512.807 512.807" width="512" xmlns="http://www.w3.org/2000/svg"><g><path d="m120.621 151.778c-26.025 13.13-58.576 8.852-80.312-12.883l-.024-.024c-27.104-27.104-27.102-71.05.006-98.157 21.741-21.742 54.308-26.029 80.336-12.898-6.427 3.242-12.462 7.53-17.83 12.898-27.107 27.108-27.11 71.053-.006 98.157l.024.024c5.362 5.361 11.388 9.643 17.806 12.883zm-17.823 320.275c-13.196-13.196-19.964-30.381-20.308-47.67-.327-16.444 7.18-34.707 18.471-48l-12-22c-17.62.102-35.207 6.043-48.652 19.489l-.024.024c-27.104 27.104-27.102 71.05.006 98.157 21.741 21.742 54.308 26.03 80.336 12.898-6.426-3.243-12.461-7.53-17.829-12.898z" fill="#cee1f2"/><path d="m491.951 457.383c-4.557 0-9.139-1.549-12.893-4.719l-340.944-287.899c-14.759 9.601-31.758 14.404-48.749 14.404-22.891.001-45.774-8.709-63.198-26.133-34.882-34.882-34.88-91.604-.018-126.465 34.307-34.309 89.786-34.857 124.763-1.641.649.505 1.27 1.053 1.858 1.641 8.552 8.552 15.216 18.813 19.806 30.5 4.039 10.281-1.022 21.889-11.303 25.927-10.282 4.039-21.889-1.023-25.928-11.303-2.338-5.952-5.577-11.183-9.641-15.573-.484-.4-.951-.825-1.398-1.272-19.262-19.262-50.607-19.259-69.873.006-19.266 19.266-19.268 50.611-.006 69.873 19.28 19.28 50.619 19.271 69.885.006 7.349-7.349 19.104-7.844 27.045-1.139l353.507 298.507c8.439 7.126 9.504 19.744 2.377 28.184-3.955 4.684-9.604 7.096-15.29 7.096zm-341.035 30.45c.648-.505 1.268-1.051 1.854-1.638 8.552-8.551 15.216-18.813 19.807-30.501 4.038-10.28-1.023-21.889-11.304-25.927-10.28-4.039-21.889 1.022-25.928 11.304-2.338 5.952-5.577 11.183-9.64 15.572-.484.4-.951.825-1.399 1.273-9.331 9.33-21.735 14.468-34.931 14.468-.001 0-.002 0-.003 0-13.197 0-25.605-5.141-34.939-14.475-19.266-19.265-19.268-50.61-.006-69.873.021-.02.045-.045.07-.07 11.157-11.125 24.959-13.529 34.579-13.584 13.548-.104 26.037 4.944 35.235 14.143 7.366 7.366 19.154 7.845 27.091 1.1l76.507-65c8.418-7.152 9.444-19.773 2.292-28.191-7.151-8.417-19.773-9.443-28.191-2.293l-63.969 54.348c-14.258-9.188-31.007-14.106-48.647-14.106-.183 0-.367 0-.549.001-24.214.14-46.474 9.142-62.679 25.346-.022.022-.049.05-.077.078-34.807 34.863-34.785 91.544.059 126.389 16.888 16.887 39.34 26.188 63.221 26.189h.006c23.098-.001 44.861-8.702 61.541-24.553zm197.906-266.134 156-131c8.459-7.103 9.558-19.719 2.455-28.177-7.104-8.459-19.719-9.559-28.177-2.455l-156 131c-8.459 7.103-9.558 19.719-2.455 28.177 3.956 4.711 9.621 7.139 15.326 7.139 4.539.001 9.104-1.537 12.851-4.684z" fill="#0023c4"/><path d="m487.807 279.614c-13.807 0-25-11.193-25-25s11.193-25 25-25c13.807 0 25 11.193 25 25s-11.193 25-25 25zm-52-25c0-13.807-11.193-25-25-25-13.807 0-25 11.193-25 25s11.193 25 25 25c13.807 0 25-11.193 25-25zm-308 0c0-13.807-11.193-25-25-25-13.807 0-25 11.193-25 25s11.193 25 25 25c13.807 0 25-11.193 25-25zm-77 0c0-13.807-11.193-25-25-25-13.807 0-25 11.193-25 25s11.193 25 25 25c13.807 0 25-11.193 25-25z" fill="#ff5cf3"/></g></svg>