<svg id="Layer_1" enable-background="new 0 0 512 512" height="512" viewBox="0 0 512 512" width="512" xmlns="http://www.w3.org/2000/svg"><g><path d="m119 492c-55.229 0-100-44.771-100-100v-272c0-55.229 44.771-100 100-100 0 0 4.745 17.053 4.722 17.24-26.388 17.984-43.722 48.321-43.722 82.718v272.083c0 33.08 16.034 62.401 40.731 80.595-.068 6.449-1.731 19.364-1.731 19.364zm277.777-47.723c-17.403-17.403-28.628-39.956-33.452-64.09l-14.972-81.567c-1.884-.47-62.353-12.62-62.353-12.62l11.326 56.664c4.824 24.134 16.685 46.3 34.088 63.703l70.109 70.109 13.602-13.852z" fill="#cee1f2"/><path d="m414 262c-11.046 0-20-8.954-20-20v-122c0-44.112-35.888-80-80-80h-94c-11.046 0-20-8.954-20-20s8.954-20 20-20h94c66.168 0 120 53.832 120 120v122c0 11.046-8.954 20-20 20zm-90 230c0-11.046-8.954-20-20-20h-84c-11.046 0-20 8.954-20 20s8.954 20 20 20h84c11.046 0 20-8.954 20-20zm-164 0v-472c0-11.046-8.954-20-20-20h-20c-66.168 0-120 53.832-120 120v272c0 66.168 53.832 120 120 120h20c11.046 0 20-8.954 20-20zm-40-20c-44.112 0-80-35.888-80-80v-272c0-44.112 35.888-80 80-80z" fill="#0023c4"/><path d="m439 512c-19.499 0-37.831-7.594-51.619-21.382l-70.109-70.108c-20.262-20.264-33.941-45.826-39.558-73.926l-11.326-56.664c-1.31-6.557.742-13.334 5.47-18.063 4.728-4.728 11.506-6.782 18.062-5.47l56.664 11.326c28.1 5.616 53.663 19.295 73.926 39.559l70.109 70.108c13.788 13.789 21.381 32.121 21.381 51.62 0 19.498-7.593 37.83-21.381 51.618s-32.12 21.382-51.619 21.382zm-127.509-200.509 5.447 27.253c4.063 20.328 13.959 38.821 28.618 53.481l70.109 70.108c6.233 6.234 14.521 9.667 23.335 9.667s17.102-3.433 23.334-9.665c6.233-6.233 9.666-14.521 9.666-23.335s-3.433-17.102-9.666-23.334l-70.109-70.109c-14.659-14.66-33.152-24.556-53.481-28.618z" fill="#0023c4"/><path d="m334 155h-114c-11.046 0-20-8.954-20-20s8.954-20 20-20h114c11.046 0 20 8.954 20 20s-8.954 20-20 20zm20 50c0-11.046-8.954-20-20-20h-114c-11.046 0-20 8.954-20 20s8.954 20 20 20h114c11.046 0 20-8.954 20-20z" fill="#ff5cf4"/></g></svg>