<svg id="Layer_1" enable-background="new 0 0 512 512" height="512" viewBox="0 0 512 512" width="512" xmlns="http://www.w3.org/2000/svg"><g><path d="m252 427.5v-343c0-24.788 13.991-46.298 34.5-57.097-8.964-4.72-19.166-7.403-30-7.403-35.622 0-64.5 28.878-64.5 64.5v343c0 35.622 28.878 64.5 64.5 64.5 10.834 0 21.036-2.684 30-7.403-20.509-10.799-34.5-32.309-34.5-57.097z" fill="#cee1f2"/><path d="m256.5 512c-46.594 0-84.5-37.906-84.5-84.5v-343c0-46.593 37.906-84.5 84.5-84.5s84.5 37.907 84.5 84.5v343c0 46.594-37.906 84.5-84.5 84.5zm0-472c-24.537 0-44.5 19.963-44.5 44.5v343c0 24.537 19.963 44.5 44.5 44.5s44.5-19.963 44.5-44.5v-343c0-24.537-19.963-44.5-44.5-44.5z" fill="#0023c4"/><path d="m103.105 448c-4.584 0-9.189-1.566-12.954-4.771-57.292-48.765-90.151-119.848-90.151-195.019 0-39.121 8.593-76.708 25.538-111.714 4.813-9.942 16.771-14.102 26.716-9.288 9.942 4.813 14.101 16.774 9.288 26.716-14.294 29.529-21.542 61.251-21.542 94.286 0 63.427 27.729 123.406 76.079 164.561 8.411 7.159 9.426 19.781 2.266 28.193-3.955 4.646-9.58 7.036-15.24 7.036zm28.895-293-.001-47.998c.065-14.743-5.617-28.579-16.007-38.968-10.33-10.33-24.067-16.007-38.716-16.007-.082 0-.164 0-.246 0l-47.018-.027c-.004 0-.008 0-.012 0-11.04 0-19.993 8.947-20 19.988-.007 11.046 8.942 20.006 19.988 20.012l47.067.027h.126c4.006-.006 7.737 1.501 10.526 4.291 2.79 2.79 4.314 6.529 4.291 10.527v.114l.002 48.041c0 11.045 8.955 20 20 20 11.046 0 20-8.955 20-20zm354.462 220.504c16.945-35.007 25.538-72.593 25.538-111.714 0-75.171-32.859-146.253-90.151-195.02-8.412-7.159-21.035-6.145-28.193 2.267-7.16 8.411-6.146 21.034 2.266 28.193 48.349 41.154 76.078 101.134 76.078 164.56 0 33.035-7.248 64.757-21.542 94.286-4.813 9.941-.654 21.903 9.288 26.716 2.808 1.359 5.776 2.003 8.699 2.003 7.429 0 14.563-4.156 18.017-11.291zm15.538 64.508c.007-11.046-8.942-20.005-19.988-20.012l-47.067-.027c-.072-.001-.143.001-.214.001-3.965 0-7.67-1.522-10.438-4.292-2.79-2.789-4.314-6.528-4.291-10.527 0-.037 0-.075 0-.113l-.002-48.042c0-11.046-8.955-20-20-20-11.046 0-20 8.955-20 20l.001 47.998c-.065 14.742 5.617 28.579 16.007 38.968 10.33 10.33 24.067 16.008 38.716 16.008.082 0 .164-.001.246-.001l47.018.027h.012c11.04 0 19.993-8.946 20-19.988z" fill="#ff5cf4"/></g></svg>