<svg id="Layer_1" enable-background="new 0 0 512.008 512.008" height="512" viewBox="0 0 512.008 512.008" width="512" xmlns="http://www.w3.org/2000/svg"><g><path d="m299.004 273.489c-5.077 2.723-11.185 2.723-16.262 0l-198.212-102.194c-4.717-2.53-4.697-9.286.035-11.789l194.439-104.017c5.03-2.661 11.056-2.661 16.086 0l116.841 38.324-98.407-52.053c-35.975-19.029-79.064-19.029-115.039 0l-153.019 80.94c-33.838 17.898-33.978 66.216-.245 84.31l152.635 81.872c36.308 19.475 79.988 19.475 116.296 0l55.091-29.55z" fill="#cee1f2"/><path d="m256.004 323.537c-23.221.001-46.434-5.676-67.602-17.029l-152.634-81.872c-22.133-11.871-35.836-34.828-35.764-59.911.073-25.083 13.909-47.96 36.11-59.704l153.019-80.939c41.873-22.148 91.869-22.148 133.742 0l153.019 80.939c22.201 11.743 36.037 34.62 36.11 59.704.072 25.083-13.631 48.04-35.763 59.911l-152.636 81.872c-21.162 11.352-44.385 17.027-67.601 17.029zm0-276.062c-16.544 0-33.087 3.989-48.168 11.966l-153.018 80.939c-9.245 4.89-14.783 14.035-14.813 24.461s5.454 19.602 14.671 24.546l152.635 81.871c30.492 16.355 66.897 16.355 97.388 0l152.636-81.871c9.217-4.944 14.701-14.12 14.671-24.546s-5.568-19.571-14.813-24.461l-153.021-80.939c-15.081-7.977-31.624-11.966-48.168-11.966zm-57.519-5.714h.01zm125.12 445.747 177.853-95.394c9.734-5.221 13.393-17.345 8.172-27.078-5.221-9.734-17.344-13.393-27.078-8.172l-177.854 95.394c-30.489 16.355-66.895 16.355-97.465-.041l-177.853-94.394c-9.759-5.179-21.865-1.466-27.042 8.29-5.179 9.757-1.467 21.863 8.29 27.042l177.774 94.353c21.168 11.354 44.381 17.029 67.602 17.029 23.216 0 46.439-5.677 67.601-17.029z" fill="#0023c4"/><path d="m256.004 414.537c-23.221 0-46.434-5.676-67.602-17.029l-177.774-94.353c-9.757-5.179-13.469-17.285-8.29-27.042 5.177-9.756 17.283-13.469 27.042-8.29l177.853 94.394c30.569 16.396 66.976 16.397 97.465.041l177.854-95.394c9.734-5.22 21.857-1.563 27.078 8.172 5.221 9.733 1.563 21.857-8.172 27.078l-177.853 95.394c-21.162 11.352-44.385 17.029-67.601 17.029z" fill="#ff5cf3"/></g></svg>