<svg id="Layer_1" enable-background="new 0 0 512 512" height="512" viewBox="0 0 512 512" width="512" xmlns="http://www.w3.org/2000/svg"><g><path d="m124 392.041v-272.082c0-55.206 44.644-99.959 99.716-99.959h-60.716c-55.229 0-100 44.771-100 100v272c0 55.228 44.771 100 100 100h60.716c-55.072 0-99.716-44.753-99.716-99.959z" fill="#cee1f2"/><path d="m348 512h-184c-66.168 0-120-53.832-120-120v-272c0-66.168 53.832-120 120-120h184c66.168 0 120 53.832 120 120v272c0 66.168-53.832 120-120 120zm-184-472c-44.112 0-80 35.888-80 80v272c0 44.112 35.888 80 80 80h184c44.112 0 80-35.888 80-80v-272c0-44.112-35.888-80-80-80zm223 144c0-11.046-8.954-20-20-20h-34c-16.542 0-30-13.458-30-30v-34c0-11.046-8.954-20-20-20s-20 8.954-20 20v34c0 38.598 31.402 70 70 70h34c11.046 0 20-8.954 20-20z" fill="#0023c4"/><path d="m343.062 356.615-11.344-6.603c2.059-6.986 3.183-14.368 3.183-22.012 0-7.633-1.121-15.005-3.174-21.981l11.376-6.658c9.533-5.579 12.738-17.83 7.158-27.363-5.579-9.533-17.83-12.737-27.363-7.158l-11.955 6.997c-9.405-9.053-21.059-15.777-34.042-19.225v-14.612c0-11.046-8.954-20-20-20s-20 8.954-20 20v14.611c-13.297 3.531-25.208 10.492-34.728 19.878l-13.07-7.65c-9.533-5.581-21.784-2.375-27.363 7.158-5.58 9.533-2.375 21.784 7.158 27.363l12.92 7.562c-1.886 6.71-2.917 13.774-2.917 21.078 0 7.317 1.035 14.393 2.927 21.113l-12.889 7.502c-9.546 5.557-12.78 17.8-7.224 27.347 3.715 6.382 10.416 9.941 17.304 9.941 3.416 0 6.878-.876 10.043-2.718l13.139-7.648c9.515 9.373 21.415 16.324 34.7 19.852v14.611c0 11.046 8.954 20 20 20s20-8.954 20-20v-14.611c12.972-3.444 24.617-10.161 34.017-19.201l12.021 6.997c3.165 1.842 6.627 2.718 10.043 2.718 6.887 0 13.589-3.561 17.304-9.941 5.556-9.547 2.321-21.79-7.224-27.347zm-86.162 9.385c-20.953 0-38-17.047-38-38s17.047-38 38-38 38 17.047 38 38-17.046 38-38 38z" fill="#ff5cf3"/></g></svg>