<svg id="Layer_1" enable-background="new 0 0 512 512" height="512" viewBox="0 0 512 512" width="512" xmlns="http://www.w3.org/2000/svg"><g><path d="m82 298.041v-164.082c0-55.206 44.644-99.959 99.716-99.959h-60.716c-55.229 0-100 44.771-100 100v164c0 55.228 44.771 100 100 100h60.716c-55.072 0-99.716-44.753-99.716-99.959z" fill="#cee1f2"/><path d="m392 418h-272.021c-66.157 0-119.979-53.822-119.979-119.979v-164.021c0-66.168 53.832-120 120-120h272c66.168 0 120 53.832 120 120v164c0 66.168-53.832 120-120 120zm-272-364c-44.112 0-80 35.888-80 80v164.021c0 44.1 35.879 79.979 79.979 79.979h272.021c44.112 0 80-35.888 80-80v-164c0-44.112-35.888-80-80-80zm252 424c0-11.046-8.954-20-20-20h-192c-11.046 0-20 8.954-20 20s8.954 20 20 20h192c11.046 0 20-8.954 20-20z" fill="#0023c4"/><path d="m188 272c-11.046 0-20-8.954-20-20v-56c0-33.084 26.916-60 60-60h57c11.046 0 20 8.954 20 20s-8.954 20-20 20h-57c-11.028 0-20 8.972-20 20v56c0 11.046-8.954 20-20 20zm149.143 34.143c7.811-7.811 7.811-20.475 0-28.285l-66-66c-7.811-7.811-20.475-7.811-28.285 0s-7.811 20.474 0 28.284l66 66c3.905 3.906 9.024 5.858 14.142 5.858s10.237-1.952 14.143-5.857z" fill="#ff5cf3"/></g></svg>