<svg id="Layer_1" enable-background="new 0 0 512.133 512.133" height="512" viewBox="0 0 512.133 512.133" width="512" xmlns="http://www.w3.org/2000/svg"><g><path d="m178.124 486.962-3.058 5.038s-136 7-136-83c0-92 119.117-132.294 156-145 8.056-2.775 22.421-6.82 39.952-12.408 2.617 5.55 5.165 11.13 7.655 16.735-45.802 16.399-143.607 57.308-143.607 140.673 0 49.899 41.803 69.973 79.058 77.962zm137.392-7.117 18.876-85.508c4.824-24.134 16.685-46.3 34.088-63.704l35.408-35.408c-15.123-1.374-30.722 3.722-42.299 15.299l-61.109 61.109c-17.403 17.403-29.264 39.569-34.088 63.704l-11.326 56.663s59.193-11.863 60.45-12.155z" fill="#cee1f2"/><path d="m490.685 256.381c-13.789-13.788-32.121-21.381-51.619-21.381-19.499 0-37.831 7.593-51.619 21.381l-101.109 101.109c-20.263 20.264-33.941 45.827-39.558 73.926l-11.326 56.664c-1.311 6.557.742 13.334 5.47 18.063 3.788 3.787 8.891 5.857 14.143 5.857 1.304 0 2.616-.127 3.92-.388l56.664-11.326c28.099-5.616 53.662-19.295 73.926-39.558l101.108-101.109c13.788-13.788 21.382-32.12 21.382-51.619s-7.594-37.831-21.382-51.619zm-28.285 74.953-101.109 101.109c-14.659 14.66-33.152 24.556-53.48 28.618l-27.253 5.447 5.447-27.253c4.063-20.328 13.958-38.821 28.618-53.48l101.109-101.11c6.232-6.232 14.52-9.665 23.334-9.665s17.102 3.433 23.335 9.666c6.232 6.232 9.665 14.52 9.665 23.334s-3.432 17.102-9.666 23.334zm-246.486-53.036c-5.837 1.836-11.756 3.724-15.213 4.914-35.031 12.062-141.635 48.77-141.635 125.788 0 14.89 4.815 26.715 14.721 36.149 26.023 24.786 81.223 27.806 100.278 26.876 11.042-.55 20.41 7.955 20.962 18.975.552 11.021-7.912 20.406-18.933 20.974-.583.03-3.373.159-7.82.159-22.15 0-85.43-3.212-121.98-37.93-18.066-17.16-27.228-39.098-27.228-65.203 0-25.238 7.551-49.001 22.441-70.629 11.89-17.267 28.605-33.284 49.685-47.606 36.256-24.634 77.81-38.943 97.36-45.674 3.968-1.367 9.248-3.027 15.362-4.95 27.312-8.589 73.023-22.964 112.232-44.797 43.077-23.987 64.919-49.461 64.919-75.715 0-29.962-14.196-48.885-26.106-59.483-13.75-12.239-32.55-20.146-47.893-20.146-11.046 0-20-8.954-20-20s8.954-20 20-20c25.346 0 53.191 11.313 74.485 30.263 25.481 22.676 39.515 54.413 39.515 89.365 0 94.154-143.762 139.364-205.152 158.67z" fill="#0023c4"/><path d="m110.066 124c-42.119 0-67.86-17.885-82.037-32.889-17.77-18.808-27.963-44.727-27.963-71.111 0-11.046 8.954-20 20-20s20 8.954 20 20c0 30.824 21.905 64 70 64 34.555 0 56.37-17.156 81.63-37.021 7.829-6.157 15.924-12.523 24.61-18.505 9.097-6.264 21.55-3.97 27.816 5.127 6.265 9.097 3.97 21.55-5.127 27.815-7.645 5.265-14.896 10.967-22.573 17.005-27.165 21.364-57.956 45.579-106.356 45.579z" fill="#ff5cf3"/></g></svg>