<svg id="Layer_1" enable-background="new 0 0 512 512" height="512" viewBox="0 0 512 512" width="512" xmlns="http://www.w3.org/2000/svg"><g><path d="m40 116.56v59.44c0 11.046 8.954 20 20 20s20-8.954 20-20v-59.44c17.018-6.036 30.524-19.541 36.56-36.56h60.44c11.046 0 20-8.954 20-20s-8.954-20-20-20h-60.44c-8.257-23.278-30.487-40-56.56-40-33.084 0-60 26.916-60 60 0 26.073 16.722 48.303 40 56.56zm20-76.56c11.028 0 20 8.972 20 20s-8.972 20-20 20-20-8.972-20-20 8.972-20 20-20zm274 40h61.44c6.036 17.018 19.541 30.524 36.56 36.56v59.44c0 11.046 8.954 20 20 20s20-8.954 20-20v-59.44c23.278-8.256 40-30.487 40-56.56 0-33.084-26.916-60-60-60-26.073 0-48.303 16.722-56.56 40h-61.44c-11.046 0-20 8.954-20 20s8.954 20 20 20zm118-40c11.028 0 20 8.972 20 20s-8.972 20-20 20-20-8.972-20-20 8.972-20 20-20zm-83.895 138.18-81.095 80.668 80.367 81.072c7.776 7.845 7.721 20.508-.124 28.284-3.899 3.865-8.99 5.796-14.08 5.796-5.148 0-10.294-1.975-14.204-5.92l-80.319-81.023-80.547 80.123c-3.902 3.881-9.004 5.82-14.104 5.82-5.137 0-10.271-1.966-14.18-5.896-7.79-7.831-7.757-20.494.074-28.284l80.596-80.171-79.868-80.569c-7.776-7.845-7.721-20.508.124-28.284 7.844-7.776 20.507-7.722 28.284.124l79.819 80.52 81.046-80.619c7.832-7.789 20.495-7.756 28.284.075 7.791 7.831 7.758 20.494-.073 28.284zm103.895 217.26v-61.44c0-11.046-8.954-20-20-20s-20 8.954-20 20v61.44c-17.018 6.036-30.524 19.541-36.56 36.56h-59.44c-11.046 0-20 8.954-20 20s8.954 20 20 20h59.44c8.256 23.278 30.487 40 56.56 40 33.084 0 60-26.916 60-60 0-26.073-16.722-48.303-40-56.56zm-20 76.56c-11.028 0-20-8.972-20-20s8.972-20 20-20 20 8.972 20 20-8.972 20-20 20zm-275-40h-60.44c-6.036-17.018-19.541-30.524-36.56-36.56v-60.44c0-11.046-8.954-20-20-20s-20 8.954-20 20v60.44c-23.278 8.257-40 30.487-40 56.56 0 33.084 26.916 60 60 60 26.073 0 48.303-16.722 56.56-40h60.44c11.046 0 20-8.954 20-20s-8.954-20-20-20zm-117 40c-11.028 0-20-8.972-20-20s8.972-20 20-20 20 8.972 20 20-8.972 20-20 20z" fill="#0023c4"/><path d="m280 60c0 13.807-11.193 25-25 25s-25-11.193-25-25c0-13.807 11.193-25 25-25s25 11.193 25 25zm-25 367c-13.807 0-25 11.193-25 25 0 13.807 11.193 25 25 25s25-11.193 25-25c0-13.807-11.193-25-25-25zm197-194c-13.807 0-25 11.193-25 25 0 13.807 11.193 25 25 25s25-11.193 25-25c0-13.807-11.193-25-25-25zm-392 0c-13.807 0-25 11.193-25 25 0 13.807 11.193 25 25 25s25-11.193 25-25c0-13.807-11.193-25-25-25z" fill="#ff5cf3"/></g></svg>