<svg id="Layer_1" enable-background="new 0 0 512 512" height="512" viewBox="0 0 512 512" width="512" xmlns="http://www.w3.org/2000/svg"><g><path d="m326.104 225.865c-5.119 0-10.236-1.952-14.142-5.857-7.811-7.811-7.811-20.475 0-28.285l165.896-165.896c7.81-7.811 20.473-7.811 28.284 0s7.811 20.475 0 28.285l-165.896 165.896c-3.905 3.904-9.024 5.857-14.142 5.857zm-271.962 280.247 165.896-165.896c7.811-7.811 7.811-20.475 0-28.285-7.811-7.811-20.474-7.811-28.284 0l-165.896 165.896c-7.811 7.811-7.811 20.475 0 28.285 3.906 3.905 9.023 5.857 14.142 5.857 5.118 0 10.237-1.953 14.142-5.857zm139.189-231.371c10.029-4.628 14.408-16.511 9.779-26.54-4.628-10.028-16.51-14.408-26.54-9.778-47.885 22.097-105.122 11.882-142.428-25.424-7.811-7.811-20.474-7.811-28.284 0s-7.811 20.475 0 28.285c24.554 24.554 55.572 40.595 89.702 46.39 9.384 1.593 18.801 2.384 28.175 2.384 23.948-.001 47.6-5.166 69.596-15.317zm81.379-81.379c14.124-30.605 18.595-64.414 12.932-97.771-5.794-34.13-21.836-65.148-46.39-89.702-7.811-7.811-20.474-7.811-28.284 0s-7.811 20.475 0 28.285c37.305 37.305 47.521 94.542 25.423 142.427-4.628 10.029-.25 21.912 9.779 26.54 2.714 1.253 5.563 1.846 8.368 1.846 7.56-.001 14.796-4.31 18.172-11.625z" fill="#0023c4"/><path d="m311 446.969c-11.046 0-20-8.954-20-20v-76c0-33.084 26.916-60 60-60h77c11.046 0 20 8.954 20 20s-8.954 20-20 20h-77c-11.028 0-20 8.972-20 20v76c0 11.046-8.954 20-20 20zm195.206 59.079c7.775-7.845 7.718-20.508-.127-28.283l-112-111c-7.846-7.775-20.509-7.72-28.284.127-7.775 7.845-7.718 20.508.127 28.283l112 111c3.9 3.865 8.99 5.795 14.078 5.795 5.148-.001 10.295-1.976 14.206-5.922zm-257.884-257.756c-9.763 9.763-9.763 25.592 0 35.355s25.592 9.763 35.355 0 9.763-25.592 0-35.355c-9.762-9.763-25.592-9.763-35.355 0" fill="#ff5cf3"/></g></svg>