<svg id="Layer_1" enable-background="new 0 0 512 512" height="512" viewBox="0 0 512 512" width="512" xmlns="http://www.w3.org/2000/svg"><g><path d="m80 255.846c0-62.732 18.904-128.015 53.491-178.198-2.479-2.959-4.926-5.968-7.45-8.895-1.995-1.959-4.06-3.852-6.144-5.724-60.435 42.738-99.897 113.167-99.897 192.817 0 130.339 105.661 236 236 236 10.163 0 20.176-.643 30-1.89-116.174-14.738-206-113.934-206-234.11z" fill="#cee1f2"/><g fill="#0023c4"><path d="m460.294 375.863c-9.021-6.371-21.5-4.226-27.875 4.797-40.52 56.782-106.764 91.34-176.419 91.34-119.103 0-216-96.813-216-216 0-69.415 33.789-135.317 90.384-175.849 8.98-6.432 11.046-18.926 4.615-27.905-6.431-8.98-18.924-11.048-27.905-4.615-32.426 23.222-59.344 54.084-77.843 89.248-19.136 36.375-29.251 77.738-29.251 119.121 0 141.244 114.841 256 256 256 41.466 0 82.656-10.148 119.119-29.348 35.276-18.576 66.768-46.396 89.973-78.914 6.372-9.022 4.224-21.502-4.798-27.875z"/><path d="m460.294 375.863c-9.021-6.371-21.5-4.226-27.875 4.797-40.52 56.782-106.764 91.34-176.419 91.34-119.103 0-216-96.813-216-216 0-69.415 33.789-135.317 90.384-175.849 8.98-6.432 11.046-18.926 4.615-27.905-6.431-8.98-18.924-11.048-27.905-4.615-32.426 23.222-59.344 54.084-77.843 89.248-19.136 36.375-29.251 77.738-29.251 119.121 0 141.244 114.841 256 256 256 41.466 0 82.656-10.148 119.119-29.348 35.276-18.576 66.768-46.396 89.973-78.914 6.372-9.022 4.224-21.502-4.798-27.875z"/></g><path d="m437.02 74.98c-32.077-32.076-94.943-74.98-181.02-74.98-5.53 0-11.139.187-16.67.554-18.128 1.203-34.563 10.359-45.088 25.12-10.475 14.69-13.766 33.104-9.03 50.506l50.418 185.804c.286 1.112 1.907 5.837 5.356 9.286s8.062 4.862 9.208 5.146l186.233 48.761c5.07 1.333 10.218 1.988 15.33 1.988 12.524 0 24.829-3.936 35.221-11.487 14.613-10.62 23.583-27.048 24.608-45.07.274-4.838.414-9.754.414-14.608 0-68.38-26.628-132.667-74.98-181.02zm-14.041 44.157c14.701 17.903 26.591 38.197 34.973 60.21l-133.895 37.528zm-92.156-65.776c23.545 8.722 45.164 21.442 64.04 37.322l-101.194 99.983zm-107.012 12.33c-2.157-7.929.953-13.925 2.998-16.794 3.532-4.953 9.061-8.026 15.17-8.432 4.654-.308 9.372-.465 14.021-.465 12.329 0 24.41 1.036 36.18 3.03l-37.207 137.5zm247.838 202.641c-.341 5.99-3.326 11.453-8.188 14.987-4.884 3.548-11.033 4.703-16.885 3.166l-115.124-30.143 137.183-38.448c2.211 12.372 3.365 25.108 3.365 38.106 0 4.1-.118 8.249-.351 12.332z" fill="#ff5cf3"/></g></svg>