<svg id="Layer_1" enable-background="new 0 0 512 512" height="512" viewBox="0 0 512 512" width="512" xmlns="http://www.w3.org/2000/svg"><g><path d="m82 298.041v-164.082c0-55.206 44.644-99.959 99.716-99.959h-60.716c-55.229 0-100 44.771-100 100v164c0 55.228 44.771 100 100 100h60.716c-55.072 0-99.716-44.753-99.716-99.959z" fill="#cee1f2"/><path d="m392 418h-272.021c-66.156 0-119.979-53.822-119.979-119.979v-164.021c0-66.168 53.832-120 120-120h272c66.168 0 120 53.832 120 120v164c0 66.168-53.832 120-120 120zm-272-364c-44.112 0-80 35.888-80 80v164.021c0 44.1 35.879 79.979 79.979 79.979h272.021c44.112 0 80-35.888 80-80v-164c0-44.112-35.888-80-80-80zm252 424c0-11.046-8.954-20-20-20h-192c-11.046 0-20 8.954-20 20s8.954 20 20 20h192c11.046 0 20-8.954 20-20z" fill="#0023c4"/><path d="m351 282.501v-127.002c11.411-2.316 20-12.404 20-24.499 0-13.807-11.193-25-25-25-12.095 0-22.183 8.589-24.499 20h-126.002c-2.316-11.411-12.404-20-24.499-20-13.807 0-25 11.193-25 25 0 12.095 8.589 22.183 20 24.499v127.002c-11.411 2.316-20 12.404-20 24.499 0 13.807 11.193 25 25 25 12.095 0 22.183-8.589 24.499-20h126.002c2.316 11.411 12.404 20 24.499 20 13.807 0 25-11.193 25-25 0-12.095-8.589-22.183-20-24.499zm-40-10.501h-105v-106h105z" fill="#ff5cf4"/></g></svg>