<svg id="Layer_1" enable-background="new 0 0 512 512" height="512" viewBox="0 0 512 512" width="512" xmlns="http://www.w3.org/2000/svg"><g><path d="m80 412v-231.675c0-13.008 5.195-25.477 14.431-34.637l77.331-76.692c18.729-18.574 44.039-28.996 70.416-28.996h209.822.006c-16.714-12.557-37.491-20-60.006-20h-209.822c-26.378 0-51.688 10.422-70.417 28.997l-62.178 61.665c-18.933 18.776-29.583 44.337-29.583 71.003v210.335c0 55.227 44.768 99.997 99.994 100-24.285-18.245-39.994-47.287-39.994-80z" fill="#cee1f2"/><path d="m295 160h-166c-11.046 0-20-8.954-20-20s8.954-20 20-20h166c11.046 0 20 8.954 20 20s-8.954 20-20 20zm119.321 317.204 62.18-61.665c22.56-22.375 35.499-53.431 35.499-85.204v-210.335c0-66.168-53.832-120-120-120h-209.821c-31.865 0-61.874 12.357-84.5 34.796l-62.18 61.665c-22.56 22.375-35.499 53.431-35.499 85.204v210.335c0 66.168 53.832 120 120 120h209.821c31.866 0 61.874-12.357 84.5-34.796zm-22.321-437.204c44.112 0 80 35.888 80 80v210.335c0 21.183-8.626 41.887-23.666 56.804l-62.179 61.664c-15.084 14.959-35.091 23.197-56.334 23.197h-209.821c-44.112 0-80-35.888-80-80v-210.335c0-21.183 8.626-41.887 23.666-56.804l62.179-61.664c15.084-14.959 35.091-23.197 56.334-23.197z" fill="#0023c4"/><path d="m371 409c-11.046 0-20-8.954-20-20v-206.815c0-32.171 13.215-63.498 36.257-85.948l8.785-8.561c7.911-7.71 20.574-7.544 28.282.366 7.709 7.911 7.545 20.573-.366 28.282l-8.786 8.562c-15.362 14.967-24.172 35.851-24.172 57.299v206.815c0 11.046-8.954 20-20 20z" fill="#ff5cf3"/></g></svg>