<svg id="Layer_1" enable-background="new 0 0 512 512" height="512" viewBox="0 0 512 512" width="512" xmlns="http://www.w3.org/2000/svg"><g><path d="m179.734 416.925c2.53-5.055 5.763-11.063 9.134-14.695-52.979-39.378-78.868-105.429-78.868-176.272 0-104.878 70.795-191.446 172.18-204.309-8.574-1.088-17.312-1.649-26.181-1.649-113.748 0-205.958 92.21-205.958 205.958 0 86.732 53.616 160.934 129.508 191.292.062-.108.122-.218.185-.325z" fill="#cee1f2"/><g fill="#0023c4"><path d="m255.999 166.831c-33.084 0-60 26.916-60 60s26.916 60 60 60 60-26.916 60-60-26.916-60-60-60zm0 80c-11.028 0-20-8.972-20-20s8.972-20 20-20 20 8.972 20 20-8.972 20-20 20z"/><path d="m492 467h-151c-11.046 0-20 8.954-20 20s8.954 20 20 20h151c11.046 0 20-8.954 20-20s-8.954-20-20-20z"/><path d="m171 467h-151c-11.046 0-20 8.954-20 20s8.954 20 20 20h151c11.046 0 20-8.954 20-20s-8.954-20-20-20z"/><path d="m415.775 66.182c-42.677-42.678-99.421-66.182-159.776-66.182s-117.099 23.504-159.776 66.182c-42.204 42.203-65.707 98.214-66.223 157.818 0 47.139 14.332 94.185 41.528 132.505 26.587 37.462 63.334 65.625 106.269 81.444 10.367 3.821 21.862-1.487 25.682-11.852 3.819-10.365-1.487-21.862-11.852-25.682-72.206-26.603-120.87-97.554-121.627-174.415 0-102.538 83.462-186 185.999-186 101.874 0 184.93 82.375 186.001 184 0 77.585-49.023 149.602-121.798 176.416-10.364 3.819-15.671 15.316-11.852 25.682 2.979 8.084 10.629 13.091 18.769 13.091 2.297 0 4.632-.398 6.913-1.239 42.935-15.819 79.682-43.982 106.269-81.444 26.805-37.772 41.293-84.1 41.699-130.506 0-60.355-23.547-117.141-66.225-159.818z"/></g><circle cx="256" cy="487" fill="#ff5cf4" r="25"/></g></svg>