<svg id="Layer_1" enable-background="new 0 0 512 512" height="512" viewBox="0 0 512 512" width="512" xmlns="http://www.w3.org/2000/svg"><g><path d="m288 492h-60c-55.229 0-100-44.771-100-100v-272c0-55.229 44.771-100 100-100h60c-55.229 0-100 44.771-100 100v272c0 55.229 44.771 100 100 100zm108.819-47.431c-17.403-17.403-28.669-40.247-33.493-64.382l-14.972-81.567c-1.885-.47-62.354-12.62-62.354-12.62l11.326 56.664c4.824 24.134 16.685 46.3 34.088 63.703l70.109 70.109 13.643-13.56z" fill="#cee1f2"/><path d="m439 512c-19.499 0-37.831-7.594-51.619-21.382l-70.109-70.108c-20.263-20.264-33.941-45.827-39.558-73.926l-11.326-56.664c-1.311-6.557.742-13.334 5.47-18.063 4.729-4.728 11.508-6.781 18.063-5.47l56.664 11.326c28.099 5.616 53.662 19.295 73.926 39.558l70.109 70.109c28.462 28.463 28.462 74.775 0 103.238-13.789 13.789-32.121 21.382-51.62 21.382zm-127.509-200.509 5.447 27.253c4.063 20.328 13.958 38.821 28.618 53.48l70.109 70.109c6.233 6.234 14.521 9.667 23.335 9.667s17.102-3.433 23.334-9.666c12.867-12.866 12.867-33.802 0-46.668l-70.109-70.109c-14.659-14.66-33.152-24.556-53.48-28.618zm8.509 180.509c0-11.046-8.954-20-20-20h-72c-44.112 0-80-35.888-80-80v-272c0-44.112 35.888-80 80-80h164c44.112 0 80 35.888 80 80v182c0 11.046 8.954 20 20 20s20-8.954 20-20v-182c0-66.168-53.832-120-120-120h-164c-66.168 0-120 53.832-120 120v272c0 66.168 53.832 120 120 120h72c11.046 0 20-8.954 20-20z" fill="#0023c4"/><path d="m60 430c-33.084 0-60-26.916-60-60s26.916-60 60-60c11.046 0 20 8.954 20 20s-8.954 20-20 20c-11.028 0-20 8.972-20 20s8.972 20 20 20c11.046 0 20 8.954 20 20s-8.954 20-20 20zm20-250c0-11.046-8.954-20-20-20-11.028 0-20-8.972-20-20s8.972-20 20-20c11.046 0 20-8.954 20-20s-8.954-20-20-20c-33.084 0-60 26.916-60 60s26.916 60 60 60c11.046 0 20-8.954 20-20z" fill="#ff5cf4"/></g></svg>