<svg id="Layer_1" enable-background="new 0 0 511.967 511.967" height="512" viewBox="0 0 511.967 511.967" width="512" xmlns="http://www.w3.org/2000/svg"><g><path d="m128.245 420.522c-23.506-12.183-39.261-36.562-39.261-63.17v-205.262c0-26.659 15.812-51.076 39.386-63.235l-.151-22.218-60.833 31.375c-23.575 12.159-38.403 36.575-38.403 63.235v186.949c0 26.609 14.772 50.987 38.278 63.17l61.042 31.798z" fill="#cee1f2"/><path d="m289.998 240.972c-7.402 0-14.516-4.126-17.984-11.225-4.849-9.924-.735-21.9 9.189-26.75l88-43c9.922-4.851 21.9-.735 26.75 9.189 4.849 9.924.735 21.9-9.189 26.75l-88 43c-2.826 1.381-5.82 2.036-8.766 2.036zm-40.546 270.961c11.043-.259 19.785-9.421 19.525-20.463-.259-11.043-9.399-19.813-20.463-19.525-13.709.319-27.335-2.843-39.483-9.148l-115.981-60.198c-27.182-14.108-44.066-41.914-44.066-72.567v-148.775c0-30.653 16.885-58.46 44.065-72.567l114.739-59.552c23.277-12.082 51.135-12.203 74.515-.323l115.984 58.927c27.569 14.007 44.696 41.937 44.696 72.891v86.335c0 11.046 8.954 20 20 20s20-8.954 20-20v-86.335c0-46.094-25.512-87.688-66.578-108.553l-115.983-58.928c-34.85-17.706-76.367-17.524-111.061.482l-114.738 59.552c-40.488 21.014-65.64 62.424-65.64 108.071v148.774c0 45.646 25.151 87.055 65.639 108.069l115.981 60.197c17.272 8.965 36.582 13.669 56.024 13.668.941.001 1.885-.01 2.825-.032zm-35.539-282.105c4.895-9.901.834-21.896-9.068-26.791l-87-43c-9.902-4.896-21.897-.835-26.791 9.068-4.895 9.901-.834 21.896 9.068 26.791l87 43c2.849 1.408 5.869 2.075 8.846 2.075 7.369.001 14.459-4.089 17.945-11.143zm52.07 182.139v-126c0-11.046-8.954-20-20-20s-20 8.954-20 20v126c0 11.046 8.954 20 20 20s20-8.954 20-20z" fill="#0023c4"/><path d="m482.983 366.967h-72c-11.046 0-20-8.954-20-20s8.954-20 20-20h72c11.046 0 20 8.954 20 20s-8.954 20-20 20zm-151 5c13.807 0 25-11.193 25-25s-11.193-25-25-25-25 11.193-25 25 11.193 25 25 25zm86 45c0-11.046-8.954-20-20-20h-71c-11.046 0-20 8.954-20 20s8.954 20 20 20h71c11.046 0 20-8.954 20-20zm60 25c13.807 0 25-11.193 25-25s-11.193-25-25-25-25 11.193-25 25 11.193 25 25 25zm25 45c0-11.046-8.954-20-20-20h-71c-11.046 0-20 8.954-20 20s8.954 20 20 20h71c11.046 0 20-8.954 20-20zm-146 0c0-13.807-11.193-25-25-25s-25 11.193-25 25 11.193 25 25 25 25-11.193 25-25z" fill="#ff5cf4"/></g></svg>