<svg id="Layer_1" enable-background="new 0 0 512.001 512.001" height="512" viewBox="0 0 512.001 512.001" width="512" xmlns="http://www.w3.org/2000/svg"><g><path d="m140.24 135c0-51.123 33.362-94.446 79.5-109.407-11.182-3.625-23.111-5.593-35.5-5.593-63.513 0-115 51.487-115 115s51.487 115 115 115c12.39 0 24.318-1.968 35.5-5.593-46.138-14.961-79.5-58.284-79.5-109.407z" fill="#cee1f2"/><path d="m20 512c-11.046 0-20-8.954-20-20 0-100.355 81.645-182 182-182h20c11.046 0 20 8.954 20 20s-8.954 20-20 20h-20c-78.299 0-142 63.701-142 142 0 11.046-8.954 20-20 20zm310-377c0-74.439-60.56-135-135-135s-135 60.561-135 135 60.561 135 135 135 135-60.561 135-135zm-40 0c0 52.383-42.617 95-95 95s-95-42.617-95-95 42.617-95 95-95 95 42.617 95 95zm41 262c0 13.807 11.193 25 25 25s25-11.193 25-25-11.193-25-25-25-25 11.193-25 25z" fill="#0023c4"/><path d="m506.806 332.555c-7.426-8.177-20.074-8.785-28.251-1.36l-42.869 38.931c-3.84 3.486-6.175 8.329-6.513 13.505-1.806 27.701-10.24 51.052-25.105 69.573-35.383-5.878-73.966-3.512-113.715 6.884 13.441-42.591 16.296-79.972 8.685-113.178 20.455-13.36 38.278-18.027 61.476-22.124l23.342 23.353c3.904 3.907 9.024 5.861 14.144 5.861 5.116 0 10.234-1.951 14.139-5.854 7.813-7.809 7.815-20.472.007-28.284l-15.969-15.977 30.425-28.222c8.098-7.512 8.573-20.166 1.062-28.265-7.513-8.096-20.166-8.573-28.265-1.062l-41.256 38.269c-34.758 5.936-61.082 12.765-94.328 38.309-6.766 5.198-9.488 14.117-6.78 22.209 12.245 36.573 6.229 82.021-18.391 138.937-3.206 7.413-1.64 16.026 3.972 21.835 3.842 3.979 9.064 6.106 14.389 6.106 2.452 0 4.925-.451 7.296-1.381 50.988-19.988 100.363-25.553 142.782-16.1 6.754 1.507 13.805-.586 18.644-5.529 23.959-24.476 38.615-57.021 42.652-94.523l37.067-33.662c8.177-7.426 8.786-20.075 1.36-28.251z" fill="#ff5cf4"/></g></svg>