<svg id="Layer_1" enable-background="new 0 0 512 512" height="512" viewBox="0 0 512 512" width="512" xmlns="http://www.w3.org/2000/svg"><g><path d="m259.017 396.63c-11.057-16.154-26.541-28.478-44.782-35.642-10.694-4.198-20.678-10.015-29.675-17.287-13.858-11.202-30.294-18.334-47.806-20.792 6.928-16.188 9.294-33.809 6.844-51.313-.729-5.208-1.098-10.539-1.098-15.847 0-5.53.402-11.087 1.195-16.51 2.562-17.498.309-35.128-6.515-51.369-6.984-28.037 5.756-40.903 19.051-49.889-3.892-5.097-7.721-10.251-11.353-15.53-11.655 7.622-26.628 8.353-38.904 1.38l-1.147-.651c-19.27-10.857-43.727-4.099-54.626 15.097-10.9 19.195-4.115 43.558 15.155 54.416l.322.183c13.328 7.57 20.869 22.508 18.649 37.674-1.204 8.226-1.828 16.639-1.828 25.199 0 8.2.572 16.266 1.677 24.161 2.1 15.002-5.338 29.738-18.511 37.219l-.309.175c-19.27 10.858-26.055 35.221-15.155 54.417 10.9 19.195 35.356 25.955 54.626 15.097l.057-.033c13.38-7.599 29.989-6.096 41.956 3.577 13.606 10.999 28.912 19.976 45.464 26.476 14.272 5.604 23.695 19.327 23.695 34.66v.502c0 22.091 17.909 40 40 40s40-17.909 40-40v-.903c0-1.223.081-2.431.199-3.63-6.175-5.578-13.511-9.895-21.609-12.531-2.354-13.671-7.622-26.691-15.572-38.306z" fill="#cee1f2"/><path d="m256 512c-33.084 0-60-26.916-60-60v-.502c0-7.121-4.32-13.419-11.005-16.044-18.305-7.188-35.372-17.125-50.727-29.537-5.658-4.573-13.314-5.255-19.507-1.74-.017.01-.09.052-.107.062-28.823 16.237-65.535 6.08-81.845-22.641-7.908-13.929-9.906-30.094-5.627-45.52 4.288-15.455 14.358-28.31 28.356-36.197l.27-.153c6.058-3.44 9.506-10.295 8.562-17.045-1.241-8.864-1.87-17.926-1.87-26.933 0-9.397.686-18.851 2.04-28.095 1.004-6.86-2.507-13.849-8.737-17.387l-.305-.174c-13.977-7.889-24.03-20.733-28.314-36.173-4.28-15.426-2.281-31.592 5.626-45.519 16.31-28.724 53.023-38.883 81.836-22.646l1.206.685c6.146 3.491 13.793 2.816 19.484-1.718 8.638-6.883 21.222-5.461 28.105 3.18 6.883 8.64 5.459 21.223-3.18 28.105-18.543 14.773-43.729 16.821-64.163 5.215l-1.146-.65c-9.604-5.411-21.903-2.026-27.359 7.581-2.62 4.614-3.283 9.967-1.866 15.073 1.425 5.136 4.78 9.412 9.447 12.042.032.018.063.036.094.054l.322.184c20.421 11.598 31.9 34.891 28.527 57.94-1.073 7.334-1.618 14.838-1.618 22.303 0 7.158.499 14.354 1.484 21.388 3.248 23.202-7.916 45.727-28.441 57.383l-.328.187c-4.707 2.652-8.063 6.929-9.487 12.064-1.417 5.106-.754 10.46 1.866 15.075 5.455 9.604 17.753 12.99 27.417 7.547 20.586-11.691 45.868-9.567 64.403 5.416 12.176 9.842 25.701 17.719 40.201 23.412 22.104 8.68 36.385 29.592 36.385 53.276v.502c0 11.028 8.972 20 20 20s20-8.972 20-20v-.903c0-23.557 14.175-44.427 36.113-53.169 14.323-5.708 27.686-13.553 39.717-23.316 18.594-15.09 43.942-17.269 64.574-5.55l.648.368c9.6 5.409 21.899 2.023 27.354-7.584 2.62-4.614 3.283-9.968 1.866-15.074-1.425-5.136-4.78-9.412-9.448-12.043l-1.29-.731c-20.464-11.622-31.633-34.101-28.459-57.271.945-6.898 1.425-13.955 1.425-20.977 0-7.384-.533-14.81-1.583-22.069-3.313-22.895 8.107-46.028 28.418-57.564l1.428-.812c4.729-2.665 8.084-6.941 9.509-12.077 1.417-5.105.754-10.459-1.866-15.073-5.455-9.606-17.755-12.992-27.417-7.548l-1.694.962c-19.426 11.035-43.775 9.612-62.032-3.622-8.943-6.482-10.938-18.988-4.456-27.932s18.987-10.938 27.931-4.455c5.595 4.057 12.975 4.536 18.802 1.228l1.754-.996c28.875-16.269 65.586-6.11 81.895 22.612 7.909 13.927 9.907 30.092 5.627 45.519-4.288 15.455-14.358 28.31-28.356 36.197l-1.369.777c-6.111 3.471-9.562 10.325-8.587 17.056 1.324 9.15 1.996 18.503 1.996 27.798 0 8.832-.604 17.717-1.795 26.407-.926 6.761 2.521 13.615 8.579 17.056l1.231.698c13.944 7.857 24.014 20.713 28.302 36.167 4.279 15.426 2.281 31.592-5.627 45.519-16.31 28.724-53.021 38.879-81.836 22.646l-.707-.401c-6.202-3.524-13.901-2.805-19.611 1.829-15.173 12.313-32.034 22.209-50.114 29.415-6.635 2.644-10.921 8.929-10.921 16.011v.902c0 33.084-26.916 60-60 60zm112-256c0-11.046-8.954-20-20-20s-20 8.954-20 20c0 39.701-32.299 72-72 72s-72-32.299-72-72c0-11.046-8.954-20-20-20s-20 8.954-20 20c0 61.757 50.243 112 112 112s112-50.243 112-112z" fill="#0023c4"/><path d="m255.923 258c-33.084 0-60-26.916-60-60v-90.565c0-22.598 6.626-44.481 19.165-63.284.05-.075.1-.149.151-.224l24.195-35.246c3.73-5.434 9.898-8.681 16.489-8.681s12.758 3.247 16.489 8.681l24.196 35.246c.051.074.101.148.151.224 12.538 18.802 19.165 40.685 19.165 63.284v90.565c-.001 33.084-26.917 60-60.001 60zm-7.626-191.554c-8.096 12.186-12.375 26.356-12.374 40.987v90.566c0 11.028 8.972 20 20 20s20-8.972 20-20v-90.565c0-14.634-4.279-28.805-12.375-40.99l-7.625-11.105z" fill="#ff5cf4"/></g></svg>