<svg id="Layer_1" enable-background="new 0 0 512 512" height="512" viewBox="0 0 512 512" width="512" xmlns="http://www.w3.org/2000/svg"><g><path d="m240 326.535c-8.949 4.759-19.157 7.465-30 7.465-35.346 0-64-28.654-64-64s28.654-64 64-64c10.843 0 21.051 2.706 30 7.465-20.224 10.754-34 32.032-34 56.535s13.776 45.78 34 56.535zm-160 65.008v-167c0-55.229 45.402-100 100.63-100h-58c-55.229 0-100 44.771-100 100v167c0 55.229 44.771 100 100 100h58c-55.228 0-100.63-44.771-100.63-100z" fill="#cee1f2"/><path d="m392 512h-272c-66.168 0-120-53.832-120-120v-164c0-66.168 53.832-120 120-120h272c66.168 0 120 53.832 120 120v164c0 66.168-53.832 120-120 120zm-272-364c-44.112 0-80 35.888-80 80v164c0 44.112 35.888 80 80 80h272c44.112 0 80-35.888 80-80v-164c0-44.112-35.888-80-80-80zm90 206c-46.318 0-84-37.683-84-84s37.682-84 84-84 84 37.683 84 84-37.682 84-84 84zm0-128c-24.262 0-44 19.738-44 44s19.738 44 44 44 44-19.738 44-44-19.738-44-44-44zm186 107.5c0-28.513-12.346-55.607-33.873-74.336-8.333-7.25-20.966-6.371-28.216 1.961-7.25 8.334-6.372 20.967 1.961 28.217 12.792 11.129 20.128 27.223 20.128 44.158 0 32.257-26.243 58.5-58.5 58.5-9.769 0-19.427-2.449-27.932-7.082-9.7-5.285-21.847-1.706-27.131 7.994-5.285 9.699-1.706 21.847 7.994 27.131 14.359 7.822 30.634 11.957 47.069 11.957 54.313 0 98.5-44.187 98.5-98.5z" fill="#0023c4"/><path d="m182 80c-11.046 0-20-8.954-20-20 0-11.028-8.972-20-20-20s-20 8.972-20 20c0 11.046-8.954 20-20 20s-20-8.954-20-20c0-33.084 26.916-60 60-60s60 26.916 60 60c0 11.046-8.954 20-20 20zm250-20c0-33.084-26.916-60-60-60s-60 26.916-60 60c0 11.046 8.954 20 20 20s20-8.954 20-20c0-11.028 8.972-20 20-20s20 8.972 20 20c0 11.046 8.954 20 20 20s20-8.954 20-20z" fill="#ff5cf4"/></g></svg>