<svg id="Layer_1" enable-background="new 0 0 512.041 512.041" height="512" viewBox="0 0 512.041 512.041" width="512" xmlns="http://www.w3.org/2000/svg"><g><g fill="#cee1f2"><path d="m89.594 448.505c-23.431-23.431-23.431-61.421 0-84.853l37.572-37.581-13.081-12.928-76.491 76.509c-23.431 23.432-23.431 61.421 0 84.853 23.432 23.432 61.421 23.432 84.853 0l8.451-8.453c-14.979-.279-29.874-6.117-41.304-17.547z"/><path d="m84.244 32.015c-.392-.082-64.223-11.975-64.223-11.975l11.721 63.047c5.461 27.322 18.889 52.416 38.59 72.117l56.316 56.331 14.372-12.957c-19.702-19.702-33.129-44.795-38.591-72.117z"/></g><path d="m317.629 421.617c-5.107 0-10.215-1.943-14.118-5.834l-247.297-246.452c-22.592-22.592-37.829-51.064-44.084-82.363-.018-.088-.035-.176-.051-.265l-11.722-63.047c-1.205-6.479.86-13.137 5.521-17.798 4.66-4.659 11.317-6.728 17.798-5.521l63.048 11.723c.088.017.176.033.264.051 31.298 6.256 59.771 21.491 82.339 44.06l247.273 246.427c7.824 7.797 7.846 20.46.049 28.284-7.798 7.822-20.461 7.845-28.284.048l-247.298-246.451c-16.958-16.957-38.315-28.399-61.792-33.118l-34.267-6.371 6.37 34.263c4.718 23.479 16.161 44.836 33.096 61.771l247.272 246.429c7.824 7.797 7.845 20.46.048 28.284-3.906 3.918-9.036 5.88-14.165 5.88zm-181.038 67.029 76.991-77.01c7.81-7.812 7.808-20.475-.004-28.284-7.81-7.81-20.474-7.809-28.284.003l-76.989 77.008c-15.596 15.596-40.973 15.596-56.568 0-7.555-7.555-11.716-17.6-11.716-28.284s4.161-20.729 11.718-28.286l76.49-76.509c7.81-7.812 7.808-20.475-.003-28.284s-20.475-7.808-28.285.003l-76.488 76.507c-15.11 15.11-23.432 35.2-23.432 56.569s8.321 41.459 23.432 56.569c15.596 15.596 36.081 23.393 56.568 23.393 20.485-.001 40.973-7.799 56.57-23.395zm274.217-274.284 45.043-45.055c22.568-22.568 37.805-51.041 44.061-82.34.018-.088.035-.176.051-.265l11.721-63.047c1.205-6.479-.86-13.137-5.521-17.798-4.66-4.66-11.316-6.727-17.798-5.521l-63.048 11.724c-.088.017-.176.033-.264.051-31.298 6.256-59.771 21.491-82.341 44.062l-44.295 44.307c-7.81 7.812-7.808 20.476.004 28.284 7.812 7.81 20.475 7.809 28.284-.003l44.293-44.305c16.935-16.936 38.293-28.377 61.771-33.096l34.264-6.37-6.371 34.267c-4.719 23.478-16.161 44.834-33.097 61.769l-45.045 45.057c-7.81 7.812-7.808 20.476.004 28.284 3.905 3.904 9.022 5.856 14.14 5.856 5.119-.001 10.238-1.954 14.144-5.861z" fill="#0023c4"/><path d="m432.021 512.041c-20.486 0-40.972-7.798-56.568-23.394-.148-.148-.293-.299-.437-.451l-15.427-16.427c-7.562-8.052-7.164-20.709.888-28.271 8.052-7.561 20.709-7.163 28.271.888l15.19 16.175c15.613 15.396 40.839 15.33 56.368-.199 7.555-7.555 11.716-17.6 11.716-28.284s-4.161-20.729-11.716-28.284c-.148-.148-.293-.299-.437-.451l-15.426-16.426c-7.562-8.052-7.165-20.708.887-28.271 8.051-7.561 20.709-7.163 28.27.888l15.227 16.213c14.959 15.082 23.195 35.074 23.195 56.331 0 21.369-8.321 41.459-23.432 56.569-15.597 15.596-36.083 23.394-56.569 23.394z" fill="#ff5cf4"/></g></svg>