<svg id="Layer_1" enable-background="new 0 0 512 512" height="512" viewBox="0 0 512 512" width="512" xmlns="http://www.w3.org/2000/svg"><g><path d="m376.414 422.891c-17.403-17.403-29.264-39.569-34.088-63.704l-14.972-81.567c-1.885-.47-62.354-12.62-62.354-12.62l11.326 56.664c4.824 24.134 16.685 46.3 34.088 63.703l91.109 91.109 14.238-14.238z" fill="#cee1f2"/><path d="m399.51 296.272c-20.263-20.264-45.827-33.942-73.926-39.559l-56.664-11.326c-6.555-1.313-13.333.741-18.062 5.47-4.728 4.729-6.78 11.506-5.47 18.063l11.326 56.664c5.617 28.1 19.296 53.662 39.558 73.926l91.109 91.108c13.788 13.788 32.12 21.382 51.619 21.382s37.831-7.594 51.619-21.382 21.381-32.12 21.381-51.618c0-19.499-7.593-37.831-21.381-51.619zm62.824 166.063c-6.232 6.232-14.52 9.665-23.334 9.665s-17.102-3.433-23.334-9.666l-91.109-91.108c-14.659-14.66-24.555-33.153-28.618-53.481l-5.447-27.253 27.253 5.447c20.329 4.063 38.822 13.958 53.481 28.618l91.109 91.109c6.232 6.232 9.665 14.52 9.665 23.334s-3.433 17.102-9.666 23.335zm-285.334-422.335h-60.44c-8.257-23.278-30.487-40-56.56-40-33.084 0-60 26.916-60 60 0 26.073 16.722 48.303 40 56.56v59.44c0 11.046 8.954 20 20 20s20-8.954 20-20v-59.44c17.018-6.036 30.524-19.541 36.56-36.56h60.44c11.046 0 20-8.954 20-20s-8.954-20-20-20zm-117 40c-11.028 0-20-8.972-20-20s8.972-20 20-20 20 8.972 20 20-8.972 20-20 20zm274 0h61.44c6.036 17.018 19.541 30.524 36.56 36.56v59.44c0 11.046 8.954 20 20 20s20-8.954 20-20v-59.44c23.278-8.256 40-30.487 40-56.56 0-33.084-26.916-60-60-60-26.073 0-48.303 16.722-56.56 40h-61.44c-11.046 0-20 8.954-20 20s8.954 20 20 20zm118-40c11.028 0 20 8.972 20 20s-8.972 20-20 20-20-8.972-20-20 8.972-20 20-20zm-275 392h-60.44c-6.036-17.018-19.541-30.524-36.56-36.56v-60.44c0-11.046-8.954-20-20-20s-20 8.954-20 20v60.44c-23.278 8.257-40 30.487-40 56.56 0 33.084 26.916 60 60 60 26.073 0 48.303-16.722 56.56-40h60.44c11.046 0 20-8.954 20-20s-8.954-20-20-20zm-117 40c-11.028 0-20-8.972-20-20s8.972-20 20-20 20 8.972 20 20-8.972 20-20 20z" fill="#0023c4"/><path d="m280 60c0 13.807-11.193 25-25 25s-25-11.193-25-25c0-13.807 11.193-25 25-25s25 11.193 25 25zm-25 367c-13.807 0-25 11.193-25 25 0 13.807 11.193 25 25 25s25-11.193 25-25c0-13.807-11.193-25-25-25zm197-194c-13.807 0-25 11.193-25 25 0 13.807 11.193 25 25 25s25-11.193 25-25c0-13.807-11.193-25-25-25zm-392 0c-13.807 0-25 11.193-25 25 0 13.807 11.193 25 25 25s25-11.193 25-25c0-13.807-11.193-25-25-25z" fill="#ff5cf3"/></g></svg>