<svg id="Layer_1" enable-background="new 0 0 512 512" height="512" viewBox="0 0 512 512" width="512" xmlns="http://www.w3.org/2000/svg"><g><path d="m81.5 195.5c0-75.286 47.41-139.49 114-164.411v-11.089c-96.926 0-175.5 78.574-175.5 175.5s78.574 175.5 175.5 175.5v-11.089c-66.59-24.921-114-89.125-114-164.411z" fill="#cee1f2"/><path d="m195.5 391c-107.799 0-195.5-87.701-195.5-195.5s87.701-195.5 195.5-195.5 195.5 87.701 195.5 195.5-87.701 195.5-195.5 195.5zm0-351c-85.743 0-155.5 69.757-155.5 155.5s69.757 155.5 155.5 155.5 155.5-69.757 155.5-155.5-69.757-155.5-155.5-155.5z" fill="#0023c4"/><path d="m392 512h-114c-39.291 0-76.15-19.285-98.599-51.587-6.303-9.07-4.061-21.533 5.011-27.837 9.069-6.302 21.534-4.061 27.837 5.011 14.975 21.548 39.555 34.413 65.751 34.413h114c44.112 0 80-35.888 80-80v-114c0-26.973-13.463-51.957-36.014-66.835-9.22-6.083-11.764-18.488-5.681-27.708 6.083-9.221 18.49-11.762 27.708-5.681 33.805 22.303 53.987 59.77 53.987 100.224v114c0 66.168-53.832 120-120 120z" fill="#ff5cf3"/></g></svg>