<svg id="Layer_1" enable-background="new 0 0 512.005 512.005" height="512" viewBox="0 0 512.005 512.005" width="512" xmlns="http://www.w3.org/2000/svg"><g><path d="m80 392.041v-272.082c0-55.206 44.644-99.959 99.716-99.959h-60.716c-55.228 0-100 44.771-100 100v272c0 55.228 44.771 100 100 100h60.716c-55.072 0-99.716-44.753-99.716-99.959z" fill="#cee1f2"/><path d="m237 512h-117c-66.168 0-120-53.832-120-120v-272c0-66.168 53.832-120 120-120h184c66.168 0 120 53.832 120 120v30c0 11.046-8.954 20-20 20s-20-8.954-20-20v-30c0-44.112-35.888-80-80-80h-184c-44.112 0-80 35.888-80 80v272c0 44.112 35.888 80 80 80h117c11.046 0 20 8.954 20 20s-8.954 20-20 20zm106-328c0-11.046-8.954-20-20-20h-34c-16.542 0-30-13.458-30-30v-34c0-11.046-8.954-20-20-20s-20 8.954-20 20v34c0 38.598 31.402 70 70 70h34c11.046 0 20-8.954 20-20z" fill="#0023c4"/><path d="m496.79 454.399c8.728-2.149 15.21-10.007 15.21-19.399 0-11.046-8.954-20-20-20h-13.237l-33.787-73.844c.549-.511 1.097-1.023 1.63-1.557 11.19-11.222 17.328-26.129 17.283-41.978l-.002-.642c-.005-15.815-6.11-30.738-17.191-42.021-6.502-6.62-14.293-11.535-22.809-14.539v-10.419c0-11.046-8.954-20-20-20s-20 8.954-20 20v10.5c-7.978 2.883-15.344 7.49-21.64 13.667-11.668 11.447-18.36 27.348-18.36 43.624 0 17.188 7.368 32.683 19.104 43.509l-33.221 73.7h-13.77c-11.046 0-20 8.954-20 20 0 9.65 6.835 17.702 15.928 19.583l-13.161 29.198c-4.539 10.07-.056 21.913 10.015 26.452 2.668 1.202 5.459 1.771 8.207 1.771 7.624 0 14.908-4.385 18.245-11.786l20.382-45.218h97.461l20.737 45.321c3.361 7.348 10.614 11.684 18.199 11.684 2.783 0 5.611-.584 8.309-1.818 10.044-4.596 14.461-16.464 9.865-26.508zm-106.53-171.678c3.769-3.697 8.606-5.72 13.662-5.72.121 0 .242.001.363.003 10.809.207 19.602 9.177 19.602 19.996v.058l.002.678c.015 5.142-1.977 9.979-5.607 13.619-3.63 3.641-8.461 5.646-13.603 5.646h-1.582c-10.593 0-19.21-8.617-19.21-19.21 0-5.604 2.323-11.098 6.373-15.07zm-16.614 132.279 26.186-58.094c1.081.059 3.168.094 4.168.094s3.022-.045 4.186-.112l26.589 58.112z" fill="#ff5cf3"/></g></svg>