<svg id="Layer_1" enable-background="new 0 0 512 512" height="512" viewBox="0 0 512 512" width="512" xmlns="http://www.w3.org/2000/svg"><g><path d="m103.132 429.23-28.772 11.066c-26.201 10.077-54.36-9.262-54.36-37.334v-225.486c0-41.377 25.483-78.481 64.102-93.334l37.539-14.438c10.778-4.146 21.883-3.304 31.228 1.066l-8.766 3.372c-38.62 14.853-64.103 51.957-64.103 93.334v225.486c0 16.524 9.761 30.014 23.132 36.268zm356.97 7.628c-38.619-14.853-64.102-51.957-64.102-93.334v-226.487c0-16.523 9.761-30.013 23.132-36.267l-28.772-11.066c-26.201-10.077-54.36 9.262-54.36 37.333v226.487c0 41.377 25.483 78.481 64.102 93.334l37.539 14.438c10.778 4.146 21.883 3.304 31.228-1.066z" fill="#cee1f2"/><path d="m452 463.965c-7.266 0-14.564-1.319-21.539-4.002l-37.538-14.438c-22.738-8.745-42.048-23.983-55.841-44.065-13.792-20.082-21.082-43.574-21.082-67.937v-226.486c0-19.774 9.731-38.264 26.031-49.458 16.301-11.195 37.05-13.641 55.508-6.542l37.538 14.438c22.738 8.745 42.048 23.983 55.841 44.065 13.792 20.082 21.082 43.574 21.082 67.937v226.486c0 19.774-9.731 38.264-26.031 49.458-10.142 6.965-22.007 10.543-33.969 10.544zm-76.065-376.958c-3.951 0-7.84 1.197-11.258 3.545-5.514 3.787-8.677 9.796-8.677 16.485v226.486c0 32.864 20.608 62.871 51.282 74.668l37.538 14.438c6.243 2.402 12.988 1.607 18.503-2.181 5.514-3.787 8.677-9.796 8.677-16.485v-226.486c0-32.864-20.608-62.871-51.282-74.668l-37.538-14.438c-2.374-.913-4.822-1.364-7.245-1.364zm-315.935 375.958c-11.963 0-23.826-3.578-33.969-10.544-16.3-11.194-26.031-29.684-26.031-49.458v-225.486c0-24.362 7.29-47.854 21.082-67.937 13.793-20.082 33.103-35.32 55.841-44.065l37.538-14.438c18.458-7.099 39.206-4.653 55.508 6.542 16.3 11.194 26.031 29.684 26.031 49.458v225.486c0 24.362-7.29 47.854-21.082 67.937-13.793 20.082-33.103 35.32-55.841 44.065l-37.538 14.438c-6.974 2.682-14.275 4.002-21.539 4.002zm76.065-375.958c-2.424 0-4.87.451-7.245 1.364l-37.538 14.438c-30.674 11.796-51.282 41.803-51.282 74.668v225.486c0 6.689 3.163 12.698 8.677 16.485 5.516 3.788 12.258 4.583 18.503 2.181l37.538-14.438c30.674-11.796 51.282-41.803 51.282-74.668v-225.486c0-6.689-3.163-12.698-8.677-16.485-3.418-2.348-7.307-3.545-11.258-3.545z" fill="#0023c4"/><path d="m281 25c0 13.807-11.193 25-25 25s-25-11.193-25-25c0-13.807 11.193-25 25-25s25 11.193 25 25zm-25 52c-13.807 0-25 11.193-25 25 0 13.807 11.193 25 25 25s25-11.193 25-25c0-13.807-11.193-25-25-25zm0 76c-13.807 0-25 11.193-25 25 0 13.807 11.193 25 25 25s25-11.193 25-25c0-13.807-11.193-25-25-25zm0 77c-13.807 0-25 11.193-25 25 0 13.807 11.193 25 25 25s25-11.193 25-25c0-13.807-11.193-25-25-25zm0 77c-13.807 0-25 11.193-25 25 0 13.807 11.193 25 25 25s25-11.193 25-25c0-13.807-11.193-25-25-25zm0 78c-13.807 0-25 11.193-25 25 0 13.807 11.193 25 25 25s25-11.193 25-25c0-13.807-11.193-25-25-25zm0 77c-13.807 0-25 11.193-25 25 0 13.807 11.193 25 25 25s25-11.193 25-25c0-13.807-11.193-25-25-25z" fill="#ff5cf3"/></g></svg>