<svg id="Layer_1" enable-background="new 0 0 512.039 512.039" height="512" viewBox="0 0 512.039 512.039" width="512" xmlns="http://www.w3.org/2000/svg"><g><path d="m189.208 464.08-16.188 16.244c-15.621 15.621-40.948 15.621-56.568 0l-51.82-51.82c-15.147-15.147-15.605-39.418-1.378-55.118l14.795-15.303-.036-.036c-77.324-77.324-77.324-202.69 0-280.014 38.608-38.609 89.195-57.937 139.798-57.99-25.085 11.56-51.266 30.458-78.798 57.99-72.393 72.393-71.679 168.578-2.897 251.339 10.211 12.286 9.414 30.327-1.736 41.767-11.523 11.823-11.402 30.712.271 42.385zm268.333-31.817c-14.685-22.022-22.522-47.899-22.522-74.368v-280.856c0-21.094 11.468-39.499 28.5-49.355-8.386-4.853-18.114-7.645-28.5-7.645-31.48 0-57 25.52-57 57v290.406c0 26.469 7.837 52.346 22.522 74.368l34.478 50.226 31.778-46.292z" fill="#cee1f2"/><path d="m144.726 512.008c-15.365 0-30.723-5.849-42.417-17.542l-51.819-51.819c-22.647-22.649-23.551-58.971-2.057-82.691.145-.16.292-.317.442-.473l1.729-1.789c-32.762-39.145-50.584-88.028-50.584-139.655 0-58.23 22.676-112.975 63.852-154.149 33.067-33.068 74.911-54.276 121.01-61.331 45.152-6.91 90.485.239 131.103 20.673 9.867 4.964 13.843 16.987 8.878 26.854-4.963 9.868-16.987 13.845-26.854 8.878-68.703-34.562-151.429-21.215-205.853 33.21-33.62 33.62-52.136 78.319-52.136 125.865s18.516 92.245 52.136 125.864c7.717 7.718 7.858 20.234.271 28.081l-14.531 15.029c-6.973 7.9-6.608 19.862.878 27.349l51.819 51.818c7.8 7.8 20.488 7.798 28.284 0l128.861-129.367c7.794-7.827 20.459-7.852 28.284-.056 7.826 7.795 7.851 20.459.056 28.284l-128.888 129.397c-11.714 11.714-27.093 17.569-42.464 17.57zm5.412-197.802 164.049-164.049c7.811-7.811 7.811-20.475 0-28.285-53.027-53.025-139.307-53.025-192.334 0-53.026 53.026-53.026 139.308 0 192.334 3.905 3.905 9.024 5.857 14.143 5.857s10.237-1.951 14.142-5.857zm120.14-176.71-132.801 132.802c-24.143-37.19-19.922-87.559 12.661-120.141 18.715-18.716 43.298-28.073 67.882-28.073 18.215 0 36.43 5.137 52.258 15.412zm181.231 365.863 34.478-50.226c.052-.074.102-.149.151-.224 16.933-25.393 25.882-54.945 25.882-85.464v-290.406c0-42.458-34.542-77-77-77s-77 34.542-77 77v290.406c0 30.519 8.949 60.071 25.882 85.464.05.074.1.149.151.224l34.478 50.226c3.73 5.434 9.898 8.681 16.489 8.681s12.758-3.248 16.489-8.681zm-53.489-135.913v-290.407c0-20.402 16.598-37 37-37s37 16.598 37 37v290.406c0 22.55-6.601 44.389-19.089 63.163l-17.911 26.092-17.911-26.092c-12.489-18.774-19.089-40.613-19.089-63.162zm71.478 74.368h.01z" fill="#0023c4"/><path d="m175.02 393.039c0 13.807-11.193 25-25 25s-25-11.193-25-25c0-13.807 11.193-25 25-25s25 11.193 25 25zm33-83c-13.807 0-25 11.193-25 25 0 13.807 11.193 25 25 25s25-11.193 25-25c0-13.807-11.193-25-25-25zm60-60c-13.807 0-25 11.193-25 25 0 13.807 11.193 25 25 25s25-11.193 25-25c0-13.807-11.193-25-25-25z" fill="#ff5cf3"/></g></svg>