<svg id="Layer_1" enable-background="new 0 0 512 512" height="512" viewBox="0 0 512 512" width="512" xmlns="http://www.w3.org/2000/svg"><g><path d="m228 392v-28c0-22.091-17.909-40-40-40h-20v19.287c-49.571-5.928-88-48.12-88-99.287v-124c0-55.229 44.771-100 100-100h-60c-55.228 0-100 44.772-100 100v124c0 55.228 44.772 100 100 100h48v48c0 55.228 44.772 100 100 100h60c-55.229 0-100-44.771-100-100z" fill="#cee1f2"/><path d="m392 512h-124c-66.168 0-120-53.832-120-120v-28h-28c-66.168 0-120-53.832-120-120v-124c0-66.168 53.832-120 120-120h124c66.168 0 120 53.832 120 120v28h28c66.168 0 120 53.832 120 120v124c0 66.168-53.832 120-120 120zm-272-472c-44.112 0-80 35.888-80 80v124c0 44.112 35.888 80 80 80h48c11.046 0 20 8.954 20 20v48c0 44.112 35.888 80 80 80h124c44.112 0 80-35.888 80-80v-124c0-44.112-35.888-80-80-80h-48c-11.046 0-20-8.954-20-20v-48c0-44.112-35.888-80-80-80z" fill="#0023c4"/><path d="m168 288c-11.046 0-20-8.954-20-20 0-66.168 53.832-120 120-120 11.046 0 20 8.954 20 20s-8.954 20-20 20c-44.112 0-80 35.888-80 80 0 11.046-8.954 20-20 20zm196-44c0-11.046-8.954-20-20-20s-20 8.954-20 20c0 44.112-35.888 80-80 80-11.046 0-20 8.954-20 20s8.954 20 20 20c66.168 0 120-53.832 120-120z" fill="#ff5cf3"/></g></svg>