<svg id="Layer_1" enable-background="new 0 0 512 512" height="512" viewBox="0 0 512 512" width="512" xmlns="http://www.w3.org/2000/svg"><g><path d="m240.239 244.407c-11.182 3.625-23.11 5.593-35.5 5.593-63.513 0-115-51.487-115-115s51.487-115 115-115c12.39 0 24.318 1.968 35.5 5.593-46.138 14.961-79.5 58.284-79.5 109.407s33.362 94.446 79.5 109.407zm102.261 187.593v-27c0-33.137 26.863-60 60-60h-60c-33.137 0-60 26.863-60 60v27c0 33.137 26.863 60 60 60h60c-33.137 0-60-26.863-60-60z" fill="#cee1f2"/><path d="m437.5 329.361v-26.361c0-33.084-26.916-60-60-60s-60 26.916-60 60v26.022c-31.902 10.524-55 40.596-55 75.978v27c0 44.112 35.888 80 80 80h69c44.112 0 80-35.888 80-80v-27c0-35.011-22.617-64.82-54-75.639zm-80-26.361c0-11.028 8.972-20 20-20s20 8.972 20 20v22h-40zm94 129c0 22.056-17.944 40-40 40h-69c-22.056 0-40-17.944-40-40v-27c0-22.056 17.944-40 40-40h69c22.056 0 40 17.944 40 40zm-101-297c0-74.439-60.561-135-135-135s-135 60.561-135 135 60.561 135 135 135 135-60.561 135-135zm-135 95c-52.383 0-95-42.617-95-95s42.617-95 95-95 95 42.617 95 95-42.617 95-95 95z" fill="#1428bf"/><path d="m40.5 512c-11.046 0-20-8.954-20-20 0-100.355 81.645-182 182-182h20c11.046 0 20 8.954 20 20s-8.954 20-20 20h-20c-78.299 0-142 63.701-142 142 0 11.046-8.954 20-20 20zm336.333-118c-13.807 0-25 11.193-25 25s11.193 25 25 25 25-11.193 25-25-11.193-25-25-25z" fill="#ff5cf0"/></g></svg>