<svg id="Layer_1" enable-background="new 0 0 512 512" height="512" viewBox="0 0 512 512" width="512" xmlns="http://www.w3.org/2000/svg"><g><path d="m286 307.953c-8.827 5.108-19.067 8.047-30 8.047-33.137 0-60-26.863-60-60s26.863-60 60-60c10.933 0 21.173 2.939 30 8.047-17.929 10.376-30 29.748-30 51.953s12.071 41.577 30 51.953zm-204 30.088v-164.082c0-55.206 44.644-99.959 99.716-99.959h-60.716c-55.229 0-100 44.771-100 100v164c0 55.228 44.771 100 100 100h60.716c-55.072 0-99.716-44.753-99.716-99.959z" fill="#cee1f2"/><path d="m392 458h-272.021c-66.157 0-119.979-53.823-119.979-119.979v-164.021c0-66.168 53.832-120 120-120h272c66.168 0 120 53.832 120 120v164c0 66.168-53.832 120-120 120zm-272-364c-44.112 0-80 35.888-80 80v164.021c0 44.1 35.879 79.979 79.979 79.979h272.021c44.112 0 80-35.888 80-80v-164c0-44.112-35.888-80-80-80zm136 242c-44.112 0-80-35.888-80-80s35.888-80 80-80 80 35.888 80 80-35.888 80-80 80zm0-120c-22.056 0-40 17.944-40 40s17.944 40 40 40 40-17.944 40-40-17.944-40-40-40z" fill="#1428bf"/><path d="m413 209c-30.327 0-55-24.673-55-55 0-11.046 8.954-20 20-20s20 8.954 20 20c0 8.271 6.729 15 15 15 11.046 0 20 8.954 20 20s-8.954 20-20 20zm-257-53c0-11.046-8.954-20-20-20s-20 8.954-20 20c0 8.271-6.729 15-15 15-11.046 0-20 8.954-20 20s8.954 20 20 20c30.327 0 55-24.673 55-55zm242 202c0-8.271 6.729-15 15-15 11.046 0 20-8.954 20-20s-8.954-20-20-20c-30.327 0-55 24.673-55 55 0 11.046 8.954 20 20 20s20-8.954 20-20zm-242-2c0-30.327-24.673-55-55-55-11.046 0-20 8.954-20 20s8.954 20 20 20c8.271 0 15 6.729 15 15 0 11.046 8.954 20 20 20s20-8.954 20-20z" fill="#ff5cf0"/></g></svg>