<svg id="Layer_1" enable-background="new 0 0 512 512" height="512" viewBox="0 0 512 512" width="512" xmlns="http://www.w3.org/2000/svg"><g><path d="m80 418.963v-200.648c0-10.789 5.034-20.959 13.612-27.502l161.743-123.363c20.662-15.759 45.929-22.407 70.489-19.983l-9.2-7.017c-35.816-27.317-85.474-27.317-121.29 0l-136 103.729c-24.8 18.916-39.354 48.321-39.354 79.512v168.271c0 52.28 40.121 95.182 91.251 99.615-19.244-18.226-31.251-44.017-31.251-72.614z" fill="#cee1f2"/><path d="m392 511.963h-272c-66.168 0-120-53.832-120-120v-168.271c0-37.191 17.654-72.86 47.227-95.415l136-103.729c42.848-32.681 102.699-32.681 145.547 0l136 103.729c29.572 22.554 47.226 58.223 47.226 95.415v168.271c0 66.168-53.832 120-120 120zm-136-471.951c-17.116 0-34.233 5.447-48.516 16.34l-136 103.729c-19.714 15.037-31.484 38.817-31.484 63.611v168.271c0 44.112 35.888 80 80 80h272c44.112 0 80-35.888 80-80v-168.271c0-24.794-11.77-48.573-31.484-63.61l-136-103.729c-14.283-10.894-31.4-16.341-48.516-16.341zm72.775 307.364 96.355-73.512c8.782-6.7 10.47-19.25 3.77-28.032-6.698-8.781-19.251-10.47-28.031-3.77l-96.354 73.511c-28.566 21.787-68.466 21.787-97.054-.018l-95.355-72.512c-8.792-6.686-21.34-4.979-28.026 3.814-6.686 8.792-4.979 21.34 3.813 28.026l95.333 72.495c21.424 16.34 47.098 24.51 72.772 24.51 25.677-.001 51.353-8.171 72.777-24.512z" fill="#1428bf"/><path d="m193 202.963c-5.104 0-10.207-1.941-14.109-5.825-7.828-7.792-7.858-20.456-.065-28.285l31.672-31.82c25.371-25.369 66.603-25.375 91.944-.044l31.729 31.861c7.795 7.826 7.769 20.49-.058 28.284-7.826 7.794-20.489 7.769-28.284-.059l-31.697-31.828c-9.717-9.711-25.575-9.708-35.317.038l-31.64 31.787c-3.908 3.926-9.041 5.891-14.175 5.891zm84 71v-62c0-11.046-8.954-20-20-20s-20 8.954-20 20v62c0 11.046 8.954 20 20 20s20-8.955 20-20z" fill="#ff5cf0"/></g></svg>