<svg id="Layer_1" enable-background="new 0 0 512 512" height="512" viewBox="0 0 512 512" width="512" xmlns="http://www.w3.org/2000/svg"><g><g opacity=".8"><path d="m124 392.041v-272.082c0-55.206 44.644-99.959 99.716-99.959h-60.716c-55.229 0-100 44.771-100 100v272c0 55.228 44.771 100 100 100h60.716c-55.072 0-99.716-44.753-99.716-99.959z" fill="#c2d9ef"/></g><g><circle cx="187" cy="210" fill="#ff5cf0" r="25"/></g><g><path d="m348.021 512h-184.042c-66.157 0-119.979-53.822-119.979-119.979v-272.042c0-66.157 53.822-119.979 119.979-119.979h184.041c66.158 0 119.98 53.822 119.98 119.979v272.041c0 66.158-53.822 119.98-119.979 119.98zm-184.042-472c-44.1 0-79.979 35.879-79.979 79.979v272.041c0 44.101 35.879 79.98 79.979 79.98h184.041c44.101 0 79.98-35.879 79.98-79.979v-272.042c0-44.1-35.879-79.979-79.979-79.979z" fill="#1428bf"/></g><g><path d="m367 204h-34c-38.598 0-70-31.402-70-70v-34c0-11.046 8.954-20 20-20s20 8.954 20 20v34c0 16.542 13.458 30 30 30h34c11.046 0 20 8.954 20 20s-8.954 20-20 20z" fill="#1428bf"/></g><g><path d="m317 395h-138c-11.046 0-20-8.954-20-20s8.954-20 20-20h138c11.046 0 20 8.954 20 20s-8.954 20-20 20z" fill="#ff5cf0"/></g><g><path d="m317 318h-138c-11.046 0-20-8.954-20-20s8.954-20 20-20h138c11.046 0 20 8.954 20 20s-8.954 20-20 20z" fill="#ff5cf0"/></g></g></svg>