<svg id="Layer_1" enable-background="new 0 0 512 512" height="512" viewBox="0 0 512 512" width="512" xmlns="http://www.w3.org/2000/svg"><g><path d="m469.167 483.167c-8.285 5.577-18.262 8.833-29 8.833-28.719 0-52-23.281-52-52s23.281-52 52-52c10.738 0 20.715 3.257 29 8.833-13.873 9.338-23 25.186-23 43.167s9.127 33.828 23 43.167zm-206.167-44.167c0-17.981 9.127-33.828 23-43.167-8.285-5.577-18.262-8.833-29-8.833-28.719 0-52 23.281-52 52s23.281 52 52 52c10.738 0 20.715-3.257 29-8.833-13.873-9.339-23-25.186-23-43.167zm-185 1c0-17.981 9.127-33.828 23-43.167-8.285-5.576-18.262-8.833-29-8.833-28.719 0-52 23.281-52 52s23.281 52 52 52c10.738 0 20.715-3.257 29-8.833-13.873-9.339-23-25.186-23-43.167z" fill="#cee1f2"/><path d="m310 130c0-13.637-6.054-26.824-16.609-36.18-10.055-8.912-23.333-13.82-37.391-13.82-9.691 0-17-4.299-17-10 0-5.514 4.486-10 10-10 7.104 0 15.745.804 30.751 6.64 10.295 4.002 21.886-1.097 25.889-11.391 4.003-10.295-1.097-21.886-11.391-25.889-6.409-2.492-12.11-4.325-17.249-5.68v-3.68c0-11.046-8.954-20-20-20s-20 8.954-20 20v1.466c-21.792 5.39-38 25.101-38 48.534 0 28.505 24.505 50 57 50 7.589 0 14 4.58 14 10s-4.809 10-10.5 10c-4.18 0-18.457-1.363-34.112-7.585-10.262-4.079-21.894.933-25.973 11.198-4.08 10.265.933 21.893 11.198 25.973 9.153 3.638 18.236 6.154 26.388 7.807v2.607c0 11.046 8.954 20 20 20s20-8.954 20-20v-3.099c19.245-7.063 32.999-25.42 32.999-46.901z" fill="#ff5cf0"/><path d="m441 333c-11.046 0-20-8.954-20-20v-91.021c0-37.112-26.234-69.933-62.378-78.041-10.778-2.418-17.555-13.115-15.137-23.893 2.418-10.777 13.111-17.552 23.893-15.137 26.172 5.871 49.933 20.639 66.902 41.583 17.23 21.265 26.72 48.074 26.72 75.488v91.021c0 11.046-8.954 20-20 20zm-351-20v-91.021c0-37.112 26.234-69.933 62.378-78.041 10.778-2.418 17.555-13.115 15.137-23.893s-13.117-17.555-23.893-15.137c-26.172 5.871-49.933 20.639-66.902 41.583-17.231 21.265-26.72 48.074-26.72 75.488v91.021c0 11.046 8.954 20 20 20s20-8.954 20-20zm187-2v-61c0-11.046-8.954-20-20-20s-20 8.954-20 20v61c0 11.046 8.954 20 20 20s20-8.954 20-20zm52 129c0-39.701-32.299-72-72-72s-72 32.299-72 72 32.299 72 72 72 72-32.299 72-72zm-40 0c0 17.645-14.355 32-32 32s-32-14.355-32-32 14.355-32 32-32 32 14.355 32 32zm223 0c0-39.701-32.299-72-72-72s-72 32.299-72 72 32.299 72 72 72 72-32.299 72-72zm-40 0c0 17.645-14.355 32-32 32s-32-14.355-32-32 14.355-32 32-32 32 14.355 32 32zm-328 0c0-39.701-32.299-72-72-72s-72 32.299-72 72 32.299 72 72 72 72-32.299 72-72zm-40 0c0 17.645-14.355 32-32 32s-32-14.355-32-32 14.355-32 32-32 32 14.355 32 32z" fill="#1428bf"/></g></svg>