<svg id="Layer_1" enable-background="new 0 0 512 512" height="512" viewBox="0 0 512 512" width="512" xmlns="http://www.w3.org/2000/svg"><g><path d="m421 322.658c-8.977 4.681-19.175 7.342-30 7.342-35.898 0-65-29.102-65-65s29.102-65 65-65c10.825 0 21.023 2.661 30 7.342-20.794 10.842-35 32.585-35 57.658s14.206 46.816 35 57.658zm-341 69.383v-272.082c0-55.206 44.644-99.959 99.716-99.959h-60.716c-55.229 0-100 44.771-100 100v272c0 55.228 44.771 100 100 100h60.716c-55.072 0-99.716-44.753-99.716-99.959z" fill="#cee1f2"/><path d="m244 126c0 13.807-11.193 25-25 25s-25-11.193-25-25 11.193-25 25-25 25 11.193 25 25zm232 139c0-46.869-38.131-85-85-85s-85 38.131-85 85 38.131 85 85 85 85-38.131 85-85zm-40 0c0 24.813-20.187 45-45 45s-45-20.187-45-45 20.187-45 45-45 45 20.187 45 45zm-224 247h-92.021c-66.156 0-119.979-53.823-119.979-119.979v-272.042c0-66.156 53.823-119.979 119.979-119.979h184.041c66.178 0 120 53.823 120 119.979 0 11.046-8.954 20-20 20s-20-8.954-20-20c0-44.101-35.878-79.979-79.979-79.979h-184.062c-44.1 0-79.979 35.879-79.979 79.979v272.041c0 44.101 35.879 79.98 79.979 79.98h92.021c11.046 0 20 8.954 20 20s-8.954 20-20 20zm118-386c0 13.807-11.193 25-25 25s-25-11.193-25-25 11.193-25 25-25 25 11.193 25 25zm-172 86c0 13.807-11.193 25-25 25s-25-11.193-25-25 11.193-25 25-25 25 11.193 25 25zm0 86c0 13.807-11.193 25-25 25s-25-11.193-25-25 11.193-25 25-25 25 11.193 25 25zm0 86c0 13.807-11.193 25-25 25s-25-11.193-25-25 11.193-25 25-25 25 11.193 25 25zm86-172c0 13.807-11.193 25-25 25s-25-11.193-25-25 11.193-25 25-25 25 11.193 25 25zm0 86c0 13.807-11.193 25-25 25s-25-11.193-25-25 11.193-25 25-25 25 11.193 25 25zm0 86c0 13.807-11.193 25-25 25s-25-11.193-25-25 11.193-25 25-25 25 11.193 25 25z" fill="#0023c4"/><path d="m492 512c-11.046 0-20-8.954-20-20 0-39.701-32.086-72-71.525-72h-16.949c-39.44 0-71.526 32.299-71.526 72 0 11.046-8.954 20-20 20s-20-8.954-20-20c0-61.757 50.03-112 111.525-112h16.949c61.496 0 111.526 50.243 111.526 112 0 11.046-8.954 20-20 20zm-359-411c-13.807 0-25 11.193-25 25s11.193 25 25 25 25-11.193 25-25-11.193-25-25-25z" fill="#ff5cf0"/></g></svg>