<svg id="Layer_1" enable-background="new 0 0 512 512" height="512" viewBox="0 0 512 512" width="512" xmlns="http://www.w3.org/2000/svg"><g><path d="m142 184c0-85.969 62.169-149.059 144-161.68-9.745-1.503-19.769-2.289-30-2.314-96.143.234-174 67.788-174 163.994 0 119.5 123 208 123 208h86s-149-88.5-149-208z" fill="#cee1f2"/><path d="m296 512h-81c-8.68 0-16.369-5.599-19.034-13.86l-10-31c-3.391-10.512 2.382-21.783 12.894-25.174 10.515-3.39 21.783 2.382 25.174 12.894l5.529 17.14h51.873l5.529-17.14c3.392-10.513 14.663-16.284 25.174-12.894 10.512 3.391 16.285 14.662 12.894 25.174l-10 31c-2.664 8.261-10.353 13.86-19.033 13.86zm21.619-103.721c1.351-.964 33.453-24.055 65.723-62.635 43.608-52.137 66.658-108.032 66.658-161.644 0-51.638-20.454-98.829-57.594-132.882-35.625-32.664-83.688-50.786-135.477-51.114-.142-.003-.285-.004-.429-.004h-1c-.144 0-.287.001-.429.004-51.789.327-99.852 18.45-135.477 51.114-37.14 34.053-57.594 81.244-57.594 132.882 0 53.582 22.86 109.457 66.108 161.583 32.016 38.588 63.871 61.687 65.211 62.651 3.403 2.449 7.489 3.766 11.681 3.766h101c4.166 0 8.228-1.301 11.619-3.721zm-215.619-224.279c0-81.938 66.169-143.766 154-144 87.831.234 154 62.062 154 144 0 94.719-88.779 170.661-110.753 188h-87.447c-21.923-17.453-109.8-93.34-109.8-188z" fill="#1428bf"/><path d="m316.931 163.95c-2.868-2.133-28.931-20.949-62.931-20.949-33 0-60.064 18.816-62.933 20.948-8.864 6.59-10.708 19.119-4.118 27.983 3.925 5.28 9.956 8.069 16.066 8.069 4.148 0 8.333-1.286 11.917-3.951.115-.085 7.849-5.649 19.067-9.483v106.433c0 11.046 8.954 20 20 20s20-8.954 20-20v-106.432c11.217 3.834 18.951 9.397 19.066 9.482 3.584 2.665 7.769 3.951 11.917 3.951 6.11 0 12.141-2.789 16.066-8.069 6.591-8.864 4.748-21.392-4.117-27.982z" fill="#ff5cf0"/></g></svg>