<svg id="Layer_1" enable-background="new 0 0 512 512" height="512" viewBox="0 0 512 512" width="512" xmlns="http://www.w3.org/2000/svg"><g><path d="m135 130h-60c-30.376 0-55-24.624-55-55s24.624-55 55-55h60c-30.376 0-55 24.624-55 55s24.624 55 55 55zm222 172h60c-30.376 0-55-24.624-55-55s24.624-55 55-55h-60c-30.376 0-55 24.624-55 55s24.624 55 55 55zm5 135c0-30.376 24.624-55 55-55h-60c-30.376 0-55 24.624-55 55 0 30.375 24.624 55 55 55h60c-30.376 0-55-24.625-55-55z" fill="#cee1f2"/><path d="m155 150h-80c-41.355 0-75-33.645-75-75s33.645-75 75-75h80c41.355 0 75 33.645 75 75s-33.645 75-75 75zm-80-110c-19.299 0-35 15.701-35 35s15.701 35 35 35h80c19.299 0 35-15.701 35-35s-15.701-35-35-35zm362 472h-80c-41.355 0-75-33.645-75-75s33.645-75 75-75h80c41.355 0 75 33.645 75 75s-33.645 75-75 75zm-80-110c-19.299 0-35 15.701-35 35s15.701 35 35 35h80c19.299 0 35-15.701 35-35s-15.701-35-35-35zm80-80h-80c-41.355 0-75-33.645-75-75s33.645-75 75-75h80c41.355 0 75 33.645 75 75s-33.645 75-75 75zm-80-110c-19.299 0-35 15.701-35 35s15.701 35 35 35h80c19.299 0 35-15.701 35-35s-15.701-35-35-35z" fill="#1428bf"/><path d="m227 417h-61c-16.542 0-30-13.458-30-30v-119h86c11.046 0 20-8.954 20-20s-8.954-20-20-20h-86v-18c0-11.046-8.954-20-20-20s-20 8.954-20 20v177c0 38.598 31.402 70 70 70h61c11.046 0 20-8.954 20-20s-8.954-20-20-20z" fill="#ff5cf0"/></g></svg>