<svg id="Layer_1" enable-background="new 0 0 512.001 512.001" height="512" viewBox="0 0 512.001 512.001" width="512" xmlns="http://www.w3.org/2000/svg"><g><path d="m80 452c0-22.091 17.909-40 40-40h-60c-22.091 0-40 17.909-40 40 0 22.091 17.909 40 40 40h60c-22.091 0-40-17.908-40-40z" fill="#cee1f2"/><path d="m452 357c-11.046 0-20-8.954-20-20v-28c0-11.046 8.954-20 20-20s20 8.954 20 20v28c0 11.046-8.954 20-20 20zm-372-20v-147c0-44.112 35.888-80 80-80h37c11.046 0 20-8.954 20-20s-8.954-20-20-20h-37c-66.168 0-120 53.832-120 120v147c0 11.046 8.954 20 20 20s20-8.954 20-20zm432 115c0-33.084-26.916-60-60-60h-392c-33.084 0-60 26.916-60 60s26.916 60 60 60h392c33.084 0 60-26.916 60-60zm-60-20c11.028 0 20 8.972 20 20s-8.972 20-20 20h-392c-11.028 0-20-8.972-20-20s8.972-20 20-20z" fill="#1428bf"/><path d="m511.995 133.192c.316-35.604-13.236-69.066-38.167-94.237-24.88-25.12-58.202-38.955-93.828-38.955-35.384 0-68.658 13.921-93.696 39.2-25.036 25.278-38.638 58.693-38.298 94.092.337 35.123 14.208 68.009 39.058 92.602 24.832 24.576 57.832 38.107 92.936 38.106h.063c18.916-.008 36.878-3.359 51.944-9.691 10.184-4.279 14.97-16.003 10.69-26.186s-16.001-14.971-26.187-10.69c-10.209 4.29-22.818 6.561-36.466 6.567-.016 0-.027 0-.043 0-50.248 0-91.515-40.856-91.997-91.092-.236-24.642 9.253-47.925 26.72-65.56s40.65-27.348 65.276-27.348c24.869 0 48.098 9.625 65.408 27.103 17.384 17.552 26.83 40.922 26.592 65.806-.001.069 0 2.645 0 2.645 0 8.916-7.241 16.447-15.813 16.447-8.623 0-16.188-7.686-16.188-16.447 0-.401 0-2.76 0-3.553 0-33.084-26.916-60-60-60s-60 26.916-60 60 26.916 60 60 60c14.847 0 28.442-5.433 38.93-14.399 10.347 9.304 23.448 14.398 37.259 14.398 30.775 0 55.812-25.322 55.812-56.462zm-131.995 18.808c-11.028 0-20-8.972-20-20s8.972-20 20-20 20 8.972 20 20-8.972 20-20 20z" fill="#ff5cf0"/></g></svg>