<svg id="Layer_1" enable-background="new 0 0 512 512" height="512" viewBox="0 0 512 512" width="512" xmlns="http://www.w3.org/2000/svg"><g><path d="m273.177 251.038c-35.893-14.45-58.177-44.396-58.177-78.756 0-40.782 28.111-75.047 65.878-84.751-14.691-2.193-27.152-2.749-38.17-2.749-48.237 0-87.708 39.175-87.708 87.5s44.038 87.968 108.087 87.968c3.838 0 7.615.212 11.337.579-.282-2.272-1.113-8.8-1.247-9.791z" fill="#cee1f2"/><path d="m346.916 270.556c-22.461-19.543-52.231-30.306-83.828-30.306-50.219 0-88.088-29.22-88.088-67.968 0-37.22 30.374-67.5 67.708-67.5 23.883 0 55.038 2.626 105.031 22.104 10.293 4.009 21.887-1.083 25.896-11.375 4.01-10.292-1.083-21.886-11.375-25.896-32.227-12.556-58.126-18.863-79.26-21.968v-47.647c0-11.046-8.954-20-20-20s-20 8.954-20 20v44.783c-.096 0-.196-.001-.292-.001-59.391 0-107.708 48.224-107.708 107.5 0 29.823 13.201 57.321 37.171 77.428 23.478 19.694 55.766 30.54 90.917 30.54 44.063 0 79.912 30.07 79.912 67.032 0 36.589-31.929 67.5-69.723 67.5-20.827 0-68.607-6.688-114.878-25.113-10.265-4.084-21.894.919-25.98 11.182-4.086 10.262.92 21.894 11.182 25.98 34.261 13.643 70.821 22.003 99.399 25.704v39.465c0 11.046 8.954 20 20 20s20-8.954 20-20v-37.652c25.085-2.213 48.625-12.95 67.118-30.805 21.204-20.472 32.882-47.555 32.882-76.261 0-29.23-12.815-56.479-36.084-76.726z" fill="#1428bf"/><path d="m69.999 259.25c-5.081 0-10.162-1.923-14.061-5.778l-37.796-37.37c-11.699-11.566-18.142-26.963-18.142-43.352s6.443-31.786 18.143-43.353l37.796-37.37c7.854-7.767 20.519-7.694 28.283.161 7.767 7.854 7.694 20.518-.16 28.284l-37.796 37.37c-4.041 3.995-6.266 9.289-6.266 14.908s2.225 10.913 6.266 14.908l37.796 37.37c7.854 7.766 7.927 20.429.16 28.284-3.911 3.956-9.067 5.938-14.223 5.938zm386.063 169.222 37.796-37.37c11.699-11.566 18.142-26.963 18.142-43.352s-6.443-31.786-18.143-43.353l-37.796-37.37c-7.854-7.766-20.519-7.694-28.283.161-7.767 7.854-7.694 20.518.16 28.284l37.796 37.37c4.041 3.995 6.266 9.29 6.266 14.908s-2.225 10.913-6.266 14.908l-37.796 37.37c-7.854 7.766-7.927 20.429-.16 28.284 3.911 3.957 9.065 5.938 14.223 5.938 5.08 0 10.163-1.924 14.061-5.778z" fill="#ff5cf0"/></g></svg>