<svg id="Layer_1" enable-background="new 0 0 512 512" height="512" viewBox="0 0 512 512" width="512" xmlns="http://www.w3.org/2000/svg"><g><path d="m170.239 135c0-51.123 33.362-94.446 79.5-109.407-11.182-3.625-23.11-5.593-35.5-5.593-63.513 0-115 51.487-115 115s51.487 115 115 115c12.39 0 24.318-1.968 35.5-5.593-46.138-14.961-79.5-58.284-79.5-109.407z" fill="#cee1f2"/><path d="m50 512c-11.046 0-20-8.954-20-20 0-100.355 81.645-182 182-182h30c22.034 0 43.58 3.9 64.038 11.591 10.339 3.887 15.569 15.42 11.683 25.759-3.888 10.339-15.424 15.57-25.759 11.683-15.942-5.994-32.752-9.033-49.962-9.033h-30c-78.299 0-142 63.701-142 142 0 11.046-8.954 20-20 20zm310-377c0-74.439-60.561-135-135-135s-135 60.561-135 135 60.561 135 135 135 135-60.561 135-135zm-40 0c0 52.383-42.617 95-95 95s-95-42.617-95-95 42.617-95 95-95 95 42.617 95 95z" fill="#1428bf"/><path d="m482 426.333c0-31.246-27.788-56.667-61.944-56.667-14.519.001-25.056-7.009-25.056-16.666 0-9.19 7.402-16.667 16.5-16.667 9.173 0 21.121 1 40.195 8.418 10.293 4.003 21.885-1.096 25.889-11.391 4.004-10.294-1.096-21.886-11.391-25.889-9.929-3.861-18.586-6.393-26.193-8.06v-15.411c0-11.046-8.954-20-20-20s-20 8.954-20 20v13.516c-25.658 5.343-45 28.189-45 55.484 0 32.305 27.968 56.667 65.056 56.667 11.896 0 21.944 7.632 21.944 16.667 0 8.878-8.256 16.667-17.667 16.667-7.343 0-25.767-2.693-43.945-9.919-10.263-4.078-21.893.933-25.973 11.197-4.081 10.265.933 21.894 11.197 25.974 11.582 4.604 23.665 7.889 34.388 9.97v11.777c0 11.046 8.954 20 20 20s20-8.954 20-20v-11.169c9.145-2.573 17.596-7.382 24.639-14.17 11.195-10.788 17.361-25.111 17.361-40.328z" fill="#ff5cf0"/></g></svg>