<svg id="Layer_1" enable-background="new 0 0 512.003 512.003" height="512" viewBox="0 0 512.003 512.003" width="512" xmlns="http://www.w3.org/2000/svg"><g><path d="m80 305.002v-162c0-55.229 44.772-100 100-100h-60c-55.228 0-100 44.772-100 100v162c0 55.228 44.771 100 100 100h60c-55.229 0-100-44.772-100-100z" fill="#cee1f2"/><path d="m245 425.002h-125c-66.168 0-120-53.832-120-120v-162c0-66.168 53.832-120 120-120h272c66.168 0 120 53.832 120 120v95c0 11.046-8.954 20-20 20s-20-8.954-20-20v-95c0-44.112-35.888-80-80-80h-272c-44.112 0-80 35.888-80 80v162c0 44.112 35.888 80 80 80h125c11.046 0 20 8.954 20 20s-8.954 20-20 20zm83.776-164.587 96.355-73.512c8.782-6.7 10.469-19.25 3.77-28.032-6.7-8.781-19.25-10.469-28.032-3.77l-96.353 73.511c-28.565 21.787-68.467 21.787-97.032 0l-95.355-72.729c-8.783-6.699-21.333-5.01-28.031 3.773-6.699 8.783-5.009 21.333 3.773 28.031l95.355 72.729c21.424 16.34 47.098 24.51 72.773 24.51s51.352-8.171 72.777-24.511z" fill="#1428bf"/><path d="m502.29 402.852-13.323-7.994c2.611-8.158 4.034-16.843 4.034-25.856s-1.422-17.698-4.034-25.856l13.324-7.994c9.472-5.683 12.543-17.968 6.86-27.44s-17.968-12.542-27.44-6.86l-13.569 8.142c-10.877-10.901-24.695-18.853-40.141-22.593v-17.399c0-11.046-8.954-20-20-20s-20 8.954-20 20v17.399c-15.798 3.826-29.881 12.071-40.868 23.356l-14.842-8.905c-9.472-5.683-21.757-2.612-27.44 6.86s-2.612 21.757 6.86 27.44l15.004 9.002c-2.409 7.864-3.714 16.205-3.714 24.848s1.305 16.984 3.714 24.848l-15.003 9.002c-9.472 5.683-12.543 17.968-6.86 27.439 3.75 6.25 10.374 9.713 17.169 9.713 3.501 0 7.049-.92 10.271-2.853l14.842-8.905c10.987 11.285 25.07 19.53 40.868 23.356v17.399c0 11.046 8.954 20 20 20s20-8.954 20-20v-17.399c15.446-3.74 29.264-11.692 40.141-22.593l13.57 8.142c3.222 1.933 6.769 2.853 10.271 2.853 6.794 0 13.419-3.463 17.169-9.713 5.68-9.471 2.608-21.757-6.863-27.439zm-94.29 11.15c-24.813 0-45-20.187-45-45s20.187-45 45-45 45 20.187 45 45-20.187 45-45 45z" fill="#ff5cf0"/></g></svg>