<svg id="Layer_1" enable-background="new 0 0 512 512" height="512" viewBox="0 0 512 512" width="512" xmlns="http://www.w3.org/2000/svg"><g><path d="m80 392v-109.447c0-11.652 5.229-21.342 13.017-27.733l-15.523-11.633c-6.087-4.53-12.83-6.786-19.494-7.137-19.336-1.018-38 13.999-38 36.016v119.934c0 55.228 44.771 100 100 100h60c-55.229 0-100-44.772-100-100z" fill="#cee1f2"/><path d="m392 512h-272c-66.168 0-120-53.832-120-120v-119.935c0-15.548 6.142-29.938 17.295-40.519 11.214-10.639 26.452-16.278 41.757-15.47 10.924.575 21.43 4.402 30.384 11.065l117.914 88.366c.045.034.09.068.135.102 28.564 21.787 68.467 21.787 97.031 0 .045-.034.09-.068.135-.102l117.861-88.326c9.007-6.703 19.513-10.53 30.437-11.105 15.304-.817 30.543 4.831 41.757 15.47 11.152 10.581 17.294 24.971 17.294 40.519v119.935c0 66.168-53.832 120-120 120zm-335.837-256c-4.104 0-8.292 1.674-11.338 4.564-2.201 2.088-4.825 5.778-4.825 11.5v119.936c0 44.112 35.888 80 80 80h272c44.112 0 80-35.888 80-80v-119.935c0-5.722-2.624-9.412-4.825-11.5-3.24-3.074-7.749-4.765-12.123-4.544-3.065.162-5.961 1.241-8.604 3.209l-117.741 88.236c-42.82 32.608-102.592 32.608-145.412 0l-117.795-88.276c-2.591-1.928-5.486-3.008-8.552-3.169-.26-.014-.523-.021-.785-.021zm407.837-99v-37c0-66.168-53.832-120-120-120h-174c-66.168 0-120 53.832-120 120v37c0 11.046 8.954 20 20 20s20-8.954 20-20v-37c0-44.112 35.888-80 80-80h174c44.112 0 80 35.888 80 80v37c0 11.046 8.954 20 20 20s20-8.954 20-20z" fill="#1428bf"/><path d="m310 213c0-28.038-23.5-50-53.5-50-9.691 0-17-4.299-17-10 0-5.514 4.486-10 10-10 7.104 0 15.745.804 30.751 6.64 10.291 4.003 21.885-1.096 25.889-11.391s-1.096-21.886-11.391-25.889c-6.409-2.492-12.11-4.325-17.249-5.68v-3.68c0-11.046-8.954-20-20-20s-20 8.954-20 20v1.466c-21.792 5.39-38 25.101-38 48.534 0 28.505 24.505 50 57 50 7.57 0 13.5 4.393 13.5 10 0 5.514-4.486 10-10 10-4.18 0-18.457-1.363-34.112-7.585-10.262-4.079-21.893.934-25.974 11.198-4.08 10.265.934 21.893 11.198 25.973 9.153 3.638 18.236 6.154 26.388 7.807v2.607c0 11.046 8.954 20 20 20s20-8.954 20-20v-3.168c18.963-7.109 32.5-25.417 32.5-46.832z" fill="#ff5cf0"/></g></svg>