<svg id="Layer_1" enable-background="new 0 0 512 512" height="512" viewBox="0 0 512 512" width="512" xmlns="http://www.w3.org/2000/svg"><g><path d="m159 178c0-77.002 55.088-141.126 128-155.143-9.714-1.867-19.741-2.857-30-2.857-87.261 0-158 70.739-158 158s70.739 158 158 158c10.259 0 20.286-.99 30-2.857-72.912-14.017-128-78.141-128-155.143z" fill="#cee1f2"/><path d="m257 392c-33.084 0-60 26.916-60 60s26.916 60 60 60 60-26.916 60-60-26.916-60-60-60zm0 80c-11.028 0-20-8.972-20-20s8.972-20 20-20 20 8.972 20 20-8.972 20-20 20zm0-472c-98.149 0-178 79.851-178 178s79.851 178 178 178 178-79.851 178-178-79.851-178-178-178zm0 316c-76.094 0-138-61.907-138-138s61.906-138 138-138 138 61.907 138 138-61.906 138-138 138zm92.963-138c0 11.046-8.954 20-20 20h-3.953c-1.847 25.774-7.32 48.298-16.119 65.913-3.503 7.012-10.568 11.066-17.907 11.066-3.003 0-6.053-.679-8.922-2.113-9.882-4.936-13.891-16.948-8.954-26.83 6.2-12.412 10.203-28.785 11.81-48.037h-57.836c1.607 19.252 5.609 35.625 11.81 48.037 4.937 9.881.928 21.894-8.954 26.83-2.869 1.434-5.919 2.113-8.922 2.113-7.34 0-14.404-4.054-17.907-11.066-8.799-17.614-14.271-40.138-16.119-65.913h-3.953c-11.046 0-20-8.954-20-20s8.954-20 20-20h3.882c1.767-26.892 7.218-49.406 16.28-67.103 5.034-9.831 17.084-13.721 26.918-8.686 9.831 5.035 13.72 17.086 8.686 26.917-6.223 12.152-10.21 28.825-11.771 48.872h57.938c-1.561-20.047-5.548-36.719-11.771-48.872-5.034-9.832-1.146-21.883 8.686-26.917 9.835-5.037 21.884-1.145 26.918 8.686 9.062 17.697 14.513 40.211 16.28 67.103h3.882c11.044 0 19.998 8.954 19.998 20z" fill="#1428bf"/><path d="m492 472h-115c-11.046 0-20-8.954-20-20s8.954-20 20-20h115c11.046 0 20 8.954 20 20s-8.954 20-20 20zm-337-20c0-11.046-8.954-20-20-20h-115c-11.046 0-20 8.954-20 20s8.954 20 20 20h115c11.046 0 20-8.954 20-20z" fill="#ff5cf0"/></g></svg>