<svg id="Layer_1" enable-background="new 0 0 512 512" height="512" viewBox="0 0 512 512" width="512" xmlns="http://www.w3.org/2000/svg"><g><path d="m82 312.041v-164.082c0-55.206 44.644-99.959 99.716-99.959h-60.716c-55.229 0-100 44.771-100 100v164c0 55.228 44.771 100 100 100h60.716c-55.072 0-99.716-44.753-99.716-99.959z" fill="#cee1f2"/><path d="m392 432h-272.021c-66.156 0-119.979-53.823-119.979-119.979v-164.021c0-66.168 53.832-120 120-120h90c11.046 0 20 8.954 20 20s-8.954 20-20 20h-90c-44.112 0-80 35.888-80 80v164.021c0 44.1 35.879 79.979 79.979 79.979h272.021c44.112 0 80-35.888 80-80v-27c0-11.046 8.954-20 20-20s20 8.954 20 20v27c0 66.168-53.832 120-120 120zm-20 60c0-11.046-8.954-20-20-20h-192c-11.046 0-20 8.954-20 20s8.954 20 20 20h192c11.046 0 20-8.954 20-20z" fill="#1428bf"/><path d="m267.996 264c-2.577 0-5.175-.498-7.65-1.523-7.474-3.096-12.346-10.389-12.346-18.478l.005-110.808c-.312-35.359 13.287-68.738 38.299-93.991 25.037-25.278 58.313-39.2 93.696-39.2 35.626 0 68.949 13.834 93.829 38.955 24.953 25.194 38.507 58.697 38.165 94.337-.337 35.115-14.301 68.016-39.32 92.64-24.943 24.55-58.011 38.068-93.119 38.068-.042 0-.086 0-.128 0-20.645 0-40.385-4.612-58.659-13.71-12.289-6.119-27.084-3.689-36.818 6.045l-1.808 1.808c-3.826 3.825-8.942 5.857-14.146 5.857zm38.571-57.063c10.872 0 21.831 2.469 32.028 7.546 12.686 6.315 26.43 9.518 40.851 9.518h.088c50.517.003 91.979-40.853 92.461-91.092.239-24.884-9.203-48.253-26.586-65.805-17.31-17.479-40.54-27.104-65.409-27.104-24.626 0-47.809 9.712-65.276 27.349-17.467 17.635-26.956 40.918-26.719 65.56 0 .064.001.128.001.193l-.004 76.274c6.05-1.618 12.293-2.439 18.565-2.439z" fill="#ff5cf0"/></g></svg>