<svg id="Layer_1" enable-background="new 0 0 512.177 512.177" height="512" viewBox="0 0 512.177 512.177" width="512" xmlns="http://www.w3.org/2000/svg"><g><path d="m177.707 63.861-35.084-4.966c-18.463-2.613-35.67 9.897-38.892 28.275l-6.122 34.923c-1.842 10.51-8.428 19.58-17.848 24.581l-31.3 16.618c-16.472 8.745-23.044 28.987-14.855 45.75l15.561 31.854c4.683 9.586 4.683 20.798 0 30.384l-15.561 31.854c-8.189 16.763-1.616 37.005 14.855 45.75l31.3 16.618c9.419 5.001 16.005 14.072 17.848 24.581l6.122 34.923c3.222 18.378 20.429 30.888 38.892 28.275l35.084-4.966c2.183-.309 4.369-.394 6.533-.288l1.848-19.398c-12.744 1.804-24.622-6.831-26.846-19.517l-12.547-60.532c-1.272-7.254-5.818-13.516-12.32-16.968l-21.605-11.471c-11.37-6.037-15.907-20.009-10.254-31.58l10.741-21.988c3.232-6.617 3.232-14.356 0-20.973l-10.741-21.988c-5.653-11.571-1.116-25.543 10.254-31.58l21.605-11.471c6.502-3.452 11.048-9.713 12.32-16.968l12.065-60.99c2.224-12.686 14.101-21.321 26.846-19.517l2.356-19.323c-3.358.536-6.811.585-10.255.098z" fill="#cee1f2"/><path d="m256.088 512.177c-13.654 0-27.308-5.149-37.947-15.448l-25.467-24.653c-3.251-3.148-7.681-4.589-12.165-3.956l-35.083 4.966c-2.63.372-5.244.553-7.822.553-26.157.001-48.917-18.623-53.572-45.178l-6.122-34.923c-.783-4.466-3.526-8.246-7.527-10.37l-31.3-16.617c-26.144-13.881-36.442-45.592-23.447-72.194l15.561-31.854c1.991-4.076 1.991-8.751 0-12.826l-15.561-31.855c-12.995-26.602-2.696-58.313 23.447-72.193l31.301-16.618c4-2.124 6.744-5.903 7.526-10.37l6.122-34.923c5.114-29.172 32.084-48.773 61.394-44.625l35.084 4.966c4.479.635 8.913-.808 12.164-3.956l25.467-24.653c21.279-20.599 54.616-20.598 75.894 0l25.466 24.653c3.252 3.148 7.684 4.592 12.165 3.956l35.083-4.966c29.314-4.146 56.28 15.453 61.395 44.625l6.122 34.923c.783 4.466 3.526 8.246 7.526 10.37l31.3 16.617c26.144 13.881 36.443 45.593 23.447 72.194l-15.56 31.854c-1.992 4.076-1.992 8.751 0 12.826l15.561 31.855c12.996 26.601 2.697 58.312-23.447 72.193l-31.301 16.618c-4 2.124-6.744 5.903-7.526 10.37l-6.122 34.923c-5.114 29.172-32.085 48.774-61.395 44.625l-35.083-4.966c-4.478-.634-8.913.808-12.164 3.956l-25.467 24.653c-10.639 10.298-24.293 15.448-37.947 15.448zm-73.411-84.213c14.059 0 27.521 5.402 37.82 15.372l25.466 24.653c5.679 5.496 14.574 5.497 20.252 0l25.466-24.652c12.184-11.795 28.801-17.201 45.591-14.822l35.084 4.966c7.819 1.102 15.023-4.131 16.39-11.926l6.122-34.923c2.928-16.704 13.195-30.843 28.169-38.793l31.3-16.618c6.988-3.71 9.739-12.19 6.263-19.306l-15.561-31.855c-7.442-15.233-7.442-32.708 0-47.941l15.56-31.854c3.477-7.116.725-15.597-6.263-19.307l-31.3-16.617c-14.974-7.95-25.241-22.09-28.169-38.793l-6.122-34.923c-1.366-7.795-8.567-13.035-16.39-11.926l-35.083 4.966c-16.79 2.372-33.407-3.027-45.592-14.822l-25.466-24.653c-5.679-5.497-14.574-5.497-20.253 0l-25.466 24.652c-12.185 11.795-28.803 17.199-45.591 14.822l-35.084-4.966c-7.826-1.105-15.023 4.131-16.389 11.926l-6.122 34.923c-2.928 16.704-13.195 30.843-28.168 38.793l-31.301 16.618c-6.988 3.71-9.74 12.19-6.264 19.306l15.561 31.854c7.442 15.233 7.442 32.708 0 47.942l-15.561 31.854c-3.476 7.116-.725 15.596 6.264 19.307l31.3 16.617c14.974 7.951 25.241 22.09 28.169 38.793l6.122 34.923c1.366 7.794 8.563 13.039 16.389 11.926l35.084-4.966c2.6-.368 5.197-.55 7.773-.55z" fill="#1428bf"/><path d="m257.088 299.089c-11.046 0-20-8.954-20-20v-122c0-11.046 8.954-20 20-20s20 8.954 20 20v122c0 11.045-8.954 20-20 20zm0 79c13.807 0 25-11.193 25-25s-11.193-25-25-25-25 11.193-25 25 11.193 25 25 25" fill="#ff5cf0"/></g></svg>