<svg id="Layer_1" enable-background="new 0 0 512 512" height="512" viewBox="0 0 512 512" width="512" xmlns="http://www.w3.org/2000/svg"><g><path d="m469.167 115.166c-8.285 5.577-18.262 8.834-29 8.834-28.719 0-52-23.281-52-52s23.281-52 52-52c10.738 0 20.715 3.257 29 8.833-13.873 9.338-23 25.186-23 43.167s9.127 33.828 23 43.166zm-23.167 137.834c0-17.981 9.127-33.828 23-43.167-8.285-5.577-18.262-8.833-29-8.833-28.719 0-52 23.281-52 52s23.281 52 52 52c10.738 0 20.715-3.257 29-8.833-13.873-9.339-23-25.186-23-43.167zm0 187c0-17.981 9.127-33.828 23-43.167-8.285-5.577-18.262-8.833-29-8.833-28.719 0-52 23.281-52 52s23.281 52 52 52c10.738 0 20.715-3.257 29-8.833-13.873-9.339-23-25.186-23-43.167zm-329.976 28.589c0-84.589-36.024-128.589-36.024-128.589v-84.356c0-29.602 18.738-54.827 45-64.462-7.371-2.704-15.335-4.182-23.644-4.182h-12.712c-37.911 0-68.644 30.733-68.644 68.644v84.356s36.024 44 36.024 128.589c0 13.289 12.213 23.411 25.502 23.411h26.948c6.094 0 11.958-2.133 16.526-5.72-5.392-4.234-8.976-10.496-8.976-17.691z" fill="#cee1f2"/><path d="m440 326c-39.701 0-72-32.299-72-72s32.299-72 72-72 72 32.299 72 72-32.299 72-72 72zm0-104c-17.645 0-32 14.355-32 32s14.355 32 32 32 32-14.355 32-32-14.355-32-32-32zm0-78c-39.701 0-72-32.299-72-72s32.299-72 72-72 72 32.299 72 72-32.299 72-72 72zm0-104c-17.645 0-32 14.355-32 32s14.355 32 32 32 32-14.355 32-32-14.355-32-32-32zm-331.526 472h-26.948c-25.09 0-45.502-19.474-45.502-43.411 0-75.339-31.184-115.534-31.499-115.919-2.926-3.574-4.525-8.051-4.525-12.67v-84.356c0-48.878 39.766-88.644 88.644-88.644h12.712c48.878 0 88.644 39.766 88.644 88.644v84.356c0 4.688-1.476 9.021-4.479 12.615-1.269 1.64-31.545 41.7-31.545 115.974 0 23.937-20.412 43.411-45.502 43.411zm-68.474-178.403c10.619 15.927 36.023 61.694 36.023 134.992 0 1.316 2.518 3.411 5.502 3.411h26.948c2.984 0 5.502-2.095 5.502-3.411 0-73.297 25.405-119.065 36.024-134.992v-77.953c.001-26.822-21.821-48.644-48.643-48.644h-12.712c-26.822 0-48.644 21.822-48.644 48.644zm130 6.403h.01zm-76-204c-37.495 0-68-30.505-68-68s30.505-68 68-68 68 30.505 68 68-30.505 68-68 68zm0-96c-15.439 0-28 12.561-28 28s12.561 28 28 28 28-12.561 28-28-12.561-28-28-28zm346 472c-39.701 0-72-32.299-72-72s32.299-72 72-72 72 32.299 72 72-32.299 72-72 72zm0-104c-17.645 0-32 14.355-32 32s14.355 32 32 32 32-14.355 32-32-14.355-32-32-32z" fill="#1428bf"/><path d="m313 421c-22.374 0-40.576-18.203-40.576-40.576v-106.424h38.576c11.046 0 20-8.954 20-20s-8.954-20-20-20h-38.576v-103.424c0-22.373 18.202-40.576 40.576-40.576 11.046 0 20-8.954 20-20s-8.954-20-20-20c-44.43 0-80.576 36.146-80.576 80.576v249.848c0 44.43 36.146 80.576 80.576 80.576 11.046 0 20-8.954 20-20s-8.954-20-20-20z" fill="#ff5cf0"/></g></svg>