<svg id="Layer_1" enable-background="new 0 0 512 512" height="512" viewBox="0 0 512 512" width="512" xmlns="http://www.w3.org/2000/svg"><g><path d="m80 391.543v-167c0-55.229 45.402-100 100.63-100h-58c-55.229 0-100 44.771-100 100v167c0 55.229 44.771 100 100 100h58c-55.228 0-100.63-44.771-100.63-100z" fill="#cee1f2"/><path d="m333 512h-213c-66.168 0-120-53.832-120-120v-164c0-66.168 53.832-120 120-120h272c66.168 0 120 53.832 120 120 0 11.046-8.954 20-20 20s-20-8.954-20-20c0-44.112-35.888-80-80-80h-272c-44.112 0-80 35.888-80 80v164c0 44.112 35.888 80 80 80h213c11.046 0 20 8.954 20 20s-8.954 20-20 20zm-202-310c-13.807 0-25 11.193-25 25s11.193 25 25 25 25-11.193 25-25-11.193-25-25-25zm86 0c-13.807 0-25 11.193-25 25s11.193 25 25 25 25-11.193 25-25-11.193-25-25-25zm86 0c-13.807 0-25 11.193-25 25s11.193 25 25 25 25-11.193 25-25-11.193-25-25-25zm84 0c-13.807 0-25 11.193-25 25s11.193 25 25 25 25-11.193 25-25-11.193-25-25-25zm-256 86c-13.807 0-25 11.193-25 25s11.193 25 25 25 25-11.193 25-25-11.193-25-25-25zm0 86c-13.807 0-25 11.193-25 25s11.193 25 25 25 25-11.193 25-25-11.193-25-25-25zm86-86c-13.807 0-25 11.193-25 25s11.193 25 25 25 25-11.193 25-25-11.193-25-25-25zm0 86c-13.807 0-25 11.193-25 25s11.193 25 25 25 25-11.193 25-25-11.193-25-25-25zm86-86c-13.807 0-25 11.193-25 25s11.193 25 25 25 25-11.193 25-25-11.193-25-25-25zm0 86c-13.807 0-25 11.193-25 25s11.193 25 25 25 25-11.193 25-25-11.193-25-25-25z" fill="#1428bf"/><path d="m202 60c0 11.046-8.954 20-20 20s-20-8.954-20-20c0-11.028-8.972-20-20-20s-20 8.972-20 20c0 11.046-8.954 20-20 20s-20-8.954-20-20c0-33.084 26.916-60 60-60s60 26.916 60 60zm190 0c0 11.046 8.954 20 20 20s20-8.954 20-20c0-33.084-26.916-60-60-60s-60 26.916-60 60c0 11.046 8.954 20 20 20s20-8.954 20-20c0-11.028 8.972-20 20-20s20 8.972 20 20zm120 366.333c0-31.246-27.788-56.667-61.944-56.667-14.519.001-25.056-7.009-25.056-16.666 0-9.19 7.402-16.667 16.5-16.667 9.173 0 21.121 1 40.195 8.418 10.293 4.002 21.885-1.096 25.889-11.391 4.004-10.294-1.096-21.886-11.391-25.889-9.929-3.861-18.586-6.393-26.193-8.06v-15.411c0-11.046-8.954-20-20-20s-20 8.954-20 20v13.516c-25.658 5.343-45 28.189-45 55.484 0 32.305 27.968 56.667 65.056 56.667 11.896 0 21.944 7.632 21.944 16.667 0 8.878-8.256 16.667-17.667 16.667-7.343 0-25.767-2.693-43.945-9.919-10.261-4.078-21.893.933-25.973 11.197-4.081 10.265.933 21.894 11.197 25.974 11.582 4.604 23.665 7.889 34.388 9.97v11.777c0 11.046 8.954 20 20 20s20-8.954 20-20v-11.169c9.145-2.573 17.596-7.382 24.639-14.17 11.195-10.788 17.361-25.111 17.361-40.328z" fill="#ff5cf0"/></g></svg>