<svg id="Layer_1" enable-background="new 0 0 512 512" height="512" viewBox="0 0 512 512" width="512" xmlns="http://www.w3.org/2000/svg"><g><path d="m80 392v-272c0-55.229 44.771-100 100-100l211.95.221.05-.221h-272c-55.229 0-100 44.771-100 100v272c0 55.228 44.771 100 100 100l52.058-.314c-51.515-4.048-92.058-47.131-92.058-99.686z" fill="#cee1f2"/><path d="m286 512h-166c-66.168 0-120-53.832-120-120v-272c0-66.168 53.832-120 120-120h272c66.168 0 120 53.832 120 120v164c0 11.046-8.954 20-20 20s-20-8.954-20-20v-164c0-44.112-35.888-80-80-80h-272c-44.112 0-80 35.888-80 80v272c0 44.112 35.888 80 80 80h166c11.046 0 20 8.954 20 20s-8.954 20-20 20zm146-383c0-11.046-8.954-20-20-20h-312c-11.046 0-20 8.954-20 20s8.954 20 20 20h312c11.046 0 20-8.954 20-20zm-55 323v-56c0-11.028 8.972-20 20-20h57c11.046 0 20-8.954 20-20s-8.954-20-20-20h-57c-33.084 0-60 26.916-60 60v56c0 11.046 8.954 20 20 20s20-8.954 20-20zm129.142 54.142c7.811-7.811 7.811-20.474 0-28.284l-66-66c-7.811-7.811-20.474-7.811-28.284 0s-7.811 20.474 0 28.284l66 66c3.905 3.905 9.023 5.858 14.142 5.858s10.237-1.953 14.142-5.858z" fill="#1428bf"/><path d="m313 343c0-27.57-24.673-50-55-50-9.691 0-17-4.299-17-10 0-5.514 4.486-10 10-10 7.104 0 15.745.804 30.751 6.64 10.295 4.001 21.886-1.097 25.889-11.391 4.003-10.295-1.097-21.886-11.391-25.889-6.409-2.492-12.11-4.325-17.249-5.68v-3.68c0-11.046-8.954-20-20-20s-20 8.954-20 20v1.466c-21.792 5.39-38 25.101-38 48.534 0 28.505 24.505 50 57 50 8.448 0 15 5.375 15 10 0 5.14-5.589 10-11.5 10-4.18 0-18.457-1.363-34.112-7.585-10.263-4.078-21.893.934-25.973 11.198-4.08 10.265.933 21.893 11.198 25.973 9.153 3.638 18.236 6.154 26.388 7.807v2.607c0 11.046 8.954 20 20 20s20-8.954 20-20v-3.093c19.606-7.128 33.999-25.734 33.999-46.907z" fill="#ff5cf0"/></g></svg>