<svg id="Layer_1" enable-background="new 0 0 512 512" height="512" viewBox="0 0 512 512" width="512" xmlns="http://www.w3.org/2000/svg"><g><path d="m80 370.025v-105.05c0-55.228 44.771-100 100-100h-60c-55.229 0-100 44.771-100 100v105.051c0 55.228 44.771 100 100 100h60c-55.229-.001-100-44.772-100-100.001z" fill="#cee1f2"/><path d="m312 490.025h-192c-66.168 0-120-53.832-120-120v-105.05c0-66.168 53.832-120 120-120h192c66.168 0 120 53.832 120 120v105.051c0 66.167-53.832 119.999-120 119.999zm-192-305.05c-44.112 0-80 35.888-80 80v105.051c0 44.112 35.888 80 80 80h192c44.112 0 80-35.888 80-80v-105.051c0-44.112-35.888-80-80-80zm392 113v-156c0-66.168-53.832-120-120-120h-192c-39.284 0-76.14 19.284-98.589 51.586-6.304 9.07-4.062 21.533 5.009 27.837 9.069 6.303 21.533 4.061 27.837-5.009 14.976-21.549 39.553-34.414 65.743-34.414h192c44.112 0 80 35.888 80 80v156c0 11.046 8.954 20 20 20s20-8.954 20-20z" fill="#1428bf"/><path d="m216.007 373.953c-22.013 0-44.024-6.906-62.396-20.724l-65.611-49.203c-8.837-6.627-10.628-19.163-4.001-28 6.627-8.836 19.162-10.629 28-4.001l65.634 49.22c22.6 16.998 54.135 16.998 76.711.017l65.656-49.237c8.835-6.628 21.372-4.835 28 4.001 6.627 8.837 4.835 21.373-4.001 28l-65.633 49.22c-18.351 13.803-40.356 20.707-62.359 20.707z" fill="#ff5cf0"/></g></svg>