<svg id="Layer_1" enable-background="new 0 0 513.347 513.347" height="512" viewBox="0 0 513.347 513.347" width="512" xmlns="http://www.w3.org/2000/svg"><g><path d="m196.577 464.095c-14-67.095-60-117.095-87.275-185.096-33.694-84.003-18.078-170.268-9.109-219.741 1.136-18.381-10.042-35.177-28.166-38.58l-.385-.072c-18.777-3.523-36.927 8.696-40.654 27.433-9.511 47.813-20.612 136.708 7.356 228.961 20.081 66.237 79.173 126.359 95.942 185.096 5.055 17.704 21.238 29.904 39.65 29.904 14.723 0 18.913-7.711 26.207-19.282-1.487-2.69-2.918-5.517-3.566-8.623z" fill="#cee1f2"/><path d="m501.979 44.156c-5.837-29.351-34.531-48.736-63.98-43.204l-.369.069c-27.756 5.212-46.436 30.395-44.415 59.878.313 4.561.757 9.718 1.229 15.179 2.547 29.523 6.44 74.706-2.529 123.533-1.001-.996-2.025-1.969-3.1-2.89-11.959-10.254-27.629-15.021-44.115-13.414-17.999 1.751-34.014 11.706-43.937 27.313-4.739 7.455-6.863 15.217-8.736 22.065-.296 1.081-.593 2.167-.903 3.256-13.688 48.09-33.641 75.176-52.936 101.369-15.27 20.728-29.691 40.306-37.75 66.885-.115.38-.22.764-.312 1.151-3.341 13.966-4.785 28.258-4.547 44.976.081 5.669-2.106 11.055-6.158 15.165-4.14 4.199-9.639 6.511-15.485 6.511-9.434 0-17.83-6.331-20.418-15.395-9.031-31.637-27.994-61.625-48.07-93.374-18.946-29.964-38.539-60.948-47.963-92.034-25.199-83.117-17.65-165.11-6.881-219.257 1.577-7.938 9.361-13.182 17.322-11.683 9.498 1.794 12.809 10.492 12.301 17.91-.288 4.207-.6 8.972-1.174 14.469-17.476 167.366 47.015 245.789 47.792 247.022 3.802 6.038 10.3 9.346 16.943 9.346 3.643 0 7.328-.994 10.638-3.078 9.348-5.885 12.153-18.234 6.269-27.581-16.663-26.465-18.367-44.364-17.899-52.678.453-8.07 3.215-14.667 7.775-18.579 3.718-3.187 8.495-4.524 14.204-3.966 7.361.716 11.706 5.269 14.054 8.961 1.506 2.369 2.676 6.644 3.913 11.17.331 1.209.664 2.424 1.01 3.641 3.529 12.401 8.165 25.506 13.405 37.897 4.304 10.174 16.037 14.933 26.211 10.63s14.933-16.037 10.631-26.21c-4.614-10.91-8.686-22.414-11.774-33.267-.309-1.084-.604-2.167-.899-3.245-1.874-6.852-3.999-14.618-8.74-22.078-9.923-15.606-25.938-25.562-43.937-27.313-16.497-1.605-32.157 3.16-44.115 13.414-1.074.921-2.098 1.894-3.1 2.89-8.969-48.829-5.076-94.013-2.528-123.536.472-5.459.916-10.616 1.229-15.176 2.016-29.483-17.075-54.743-44.805-59.95-29.431-5.523-58.124 13.852-63.959 43.189-11.66 58.628-19.767 147.626 7.834 238.665 10.997 36.276 32.063 69.59 52.435 101.807 18.494 29.248 35.963 56.873 43.415 82.977 7.465 26.15 31.678 44.414 58.88 44.414 16.639 0 32.255-6.545 43.97-18.429 11.63-11.796 17.904-27.358 17.67-43.817-.187-13.06.868-24.048 3.315-34.517 6.113-19.737 17.889-35.721 31.502-54.201 19.396-26.331 43.536-59.099 59.202-114.141.348-1.22.682-2.439 1.014-3.652 1.237-4.522 2.405-8.794 3.91-11.16 2.348-3.693 6.692-8.246 14.054-8.962 5.709-.555 10.487.78 14.204 3.967 4.561 3.911 7.322 10.509 7.775 18.579.468 8.314-1.236 26.213-17.899 52.678-5.885 9.347-3.079 21.696 6.269 27.581 9.347 5.884 21.695 3.08 27.581-6.269.777-1.233 68.075-79.656 47.793-247.016-.665-5.489-.886-10.265-1.174-14.473-.508-7.418 2.996-16.162 11.906-17.835l.369-.069c7.989-1.501 15.771 3.747 17.351 11.695 10.767 54.143 18.313 136.128-6.885 219.241-9.412 31.045-28.96 62.246-47.865 92.419-27.472 43.846-53.42 85.261-53.42 129.73 0 11.046 8.954 20 20 20s20-8.954 20-20c0-32.973 22.983-69.656 47.316-108.493 20.299-32.397 41.288-65.897 52.248-102.051 27.599-91.035 19.496-180.026 7.838-238.649z" fill="#1428bf"/><path d="m310.077 130c0-28.038-23.5-50-53.5-50-9.691 0-17-4.299-17-10 0-5.514 4.486-10 10-10 7.104 0 15.745.804 30.751 6.64 10.293 4.002 21.885-1.096 25.889-11.391s-1.096-21.886-11.391-25.889c-6.409-2.492-12.11-4.325-17.249-5.68v-3.68c0-11.046-8.954-20-20-20s-20 8.954-20 20v1.466c-21.792 5.39-38 25.101-38 48.534 0 28.505 24.505 50 57 50 7.57 0 13.5 4.393 13.5 10 0 5.514-4.486 10-10 10-4.18 0-18.457-1.363-34.112-7.585-10.263-4.078-21.893.934-25.974 11.198-4.08 10.265.934 21.893 11.198 25.973 9.153 3.638 18.236 6.154 26.388 7.807v2.607c0 11.046 8.954 20 20 20s20-8.954 20-20v-3.168c18.964-7.109 32.5-25.417 32.5-46.832z" fill="#ff5cf0"/></g></svg>