<svg id="Layer_1" enable-background="new 0 0 512 512" height="512" viewBox="0 0 512 512" width="512" xmlns="http://www.w3.org/2000/svg"><g><path d="m80 392v-20c0-27.614 22.386-50 50-50h-60c-27.614 0-50 22.386-50 50v20c0 55.228 44.771 100 100 100h60c-55.229 0-100-44.772-100-100z" fill="#cee1f2"/><path d="m444 267c-11.046 0-20-8.954-20-20v-47c0-44.112-35.888-80-80-80h-174c-44.112 0-80 35.888-80 80v47c0 11.046-8.954 20-20 20s-20-8.954-20-20v-47c0-66.168 53.832-120 120-120h174c66.168 0 120 53.832 120 120v47c0 11.046-8.954 20-20 20zm68 125v-20c0-38.598-31.402-70-70-70h-64.882c-30.394 0-58.536 17.34-71.698 44.176-9.324 19.013-28.262 30.824-49.42 30.824s-40.096-11.811-49.42-30.824c-13.162-26.836-41.305-44.176-71.698-44.176h-64.882c-38.598 0-70 31.402-70 70v20c0 66.168 53.832 120 120 120h272c66.168 0 120-53.832 120-120zm-377.118-50c15.246 0 29.293 8.553 35.784 21.79 7.708 15.716 19.601 28.997 34.391 38.408 15.219 9.683 32.836 14.802 50.943 14.802s35.724-5.119 50.943-14.803c14.79-9.411 26.683-22.692 34.391-38.408 6.491-13.237 20.538-21.79 35.784-21.79h64.882c16.542 0 30 13.458 30 30v20c0 44.112-35.888 80-80 80h-272c-44.112 0-80-35.888-80-80v-20c0-16.542 13.458-30 30-30h64.882zm314.331-267.162c8.747-6.745 10.37-19.304 3.625-28.051-22.929-29.734-57.575-46.787-95.058-46.787h-202.78c-37.482 0-72.129 17.053-95.058 46.787-6.745 8.747-5.122 21.306 3.625 28.051 8.748 6.746 21.308 5.122 28.051-3.625 15.296-19.837 38.399-31.213 63.382-31.213h202.78c24.983 0 48.086 11.376 63.382 31.213 3.94 5.11 9.863 7.788 15.853 7.788 4.262 0 8.561-1.358 12.198-4.163z" fill="#1428bf"/><path d="m336 239h-22c-11.046 0-20-8.954-20-20s8.954-20 20-20h22c11.046 0 20 8.954 20 20s-8.954 20-20 20zm-78-20c0-11.046-8.954-20-20-20h-60c-11.046 0-20 8.954-20 20s8.954 20 20 20h60c11.046 0 20-8.954 20-20z" fill="#ff5cf0"/></g></svg>