<svg id="Layer_1" enable-background="new 0 0 512.027 512.027" height="512" viewBox="0 0 512.027 512.027" width="512" xmlns="http://www.w3.org/2000/svg"><g><path d="m81.518 276.026c.001-92.546 58.206-171.491 140.004-202.242-9.156-7.602-21.636-11.157-34.424-8.197-95.737 22.157-167.097 107.964-167.098 210.439-.001 119.646 96.355 216.002 216.001 216.001 10.426 0 20.676-.751 30.707-2.179-104.951-14.873-185.191-104.643-185.19-213.822z" fill="#cee1f2"/><path d="m236.002 512.027c-63.209 0-122.521-24.501-167.011-68.991-44.49-44.49-68.992-103.802-68.991-167.01 0-53.648 18.492-106.166 52.068-147.879 33.066-41.081 79.42-70.218 130.521-82.045 17.859-4.135 36.349.047 50.721 11.474 14.42 11.464 22.69 28.6 22.69 47.016v131.437c0 11.028 8.972 20 20 20h131.437c18.415 0 35.552 8.271 47.016 22.69 11.426 14.373 15.608 32.86 11.475 50.721-11.828 51.101-40.966 97.454-82.047 130.521-41.714 33.574-94.232 52.066-147.879 52.066zm-39.907-427.471c-1.492 0-2.996.17-4.486.515-89.264 20.66-151.608 99.183-151.609 190.955 0 52.524 20.341 101.792 57.275 138.726 36.935 36.935 86.202 57.276 138.727 57.275 91.771 0 170.294-62.344 190.955-151.608 1.367-5.911-.023-12.038-3.816-16.81-3.831-4.818-9.555-7.582-15.704-7.582h-131.437c-33.084 0-60-26.916-60-60v-131.436c0-6.149-2.764-11.874-7.582-15.704-3.568-2.837-7.896-4.331-12.323-4.331zm-8.996-18.97h.01z" fill="#1428bf"/><path d="m450.588 216.027h-93.168c-33.867 0-61.42-27.553-61.42-61.42v-93.168c0-19.694 9.087-37.688 24.93-49.371 15.919-11.737 35.905-15.11 54.84-9.25 31.304 9.686 60.088 27.045 83.242 50.199 23.152 23.153 40.511 51.937 50.198 83.24 5.858 18.933 2.487 38.921-9.251 54.84-11.682 15.843-29.677 24.93-49.371 24.93zm-93.156-175.992c-4.543 0-8.983 1.44-12.764 4.228-5.509 4.062-8.668 10.322-8.668 17.176v93.168c0 11.811 9.609 21.42 21.42 21.42h93.168c6.854 0 13.114-3.16 17.177-8.669 4.117-5.584 5.296-12.61 3.232-19.276-7.772-25.116-21.697-48.208-40.271-66.781-18.573-18.574-41.666-32.499-66.781-40.271-2.153-.666-4.345-.995-6.513-.995z" fill="#ff5cf0"/></g></svg>