<svg id="Layer_1" enable-background="new 0 0 512 512" height="512" viewBox="0 0 512 512" width="512" xmlns="http://www.w3.org/2000/svg"><g><path d="m388.2 168.838-15.87-9.287c3.155-9.279 4.868-19.219 4.868-29.551 0-10.319-1.708-20.247-4.856-29.516l15.891-9.341c9.522-5.598 12.704-17.855 7.106-27.377-5.598-9.523-17.854-12.705-27.377-7.107l-16.432 9.659c-12.334-12.842-28.351-22.119-46.333-26.122v-20.196c0-11.046-8.954-20-20-20s-20 8.954-20 20v20.196c-18.367 4.088-34.681 13.681-47.118 26.954l-17.847-10.491c-9.524-5.596-21.779-2.415-27.377 7.107-5.598 9.521-2.416 21.779 7.106 27.377l17.737 10.427c-2.918 8.958-4.502 18.512-4.502 28.431 0 9.933 1.589 19.501 4.515 28.47l-17.716 10.368c-9.533 5.579-12.739 17.83-7.16 27.363 3.721 6.358 10.409 9.901 17.28 9.901 3.431 0 6.908-.884 10.083-2.741l17.909-10.48c12.433 13.257 28.737 22.838 47.09 26.923v20.195c0 11.046 8.954 20 20 20s20-8.954 20-20v-20.196c17.969-4 33.975-13.266 46.306-26.095l16.492 9.652c3.175 1.857 6.651 2.741 10.083 2.741 6.871 0 13.56-3.543 17.28-9.901 5.581-9.533 2.375-21.784-7.158-27.363zm-103.001 13.162c-28.673 0-52-23.327-52-52s23.327-52 52-52 52 23.327 52 52-23.328 52-52 52z" fill="#ff5cf0"/><g fill="#1428bf"><path d="m267.098 434c-.303.003.741 0 0 0z"/><path d="m505.705 381.553c-13.04-25.049-42.559-35.613-70.189-25.132-19.27 7.314-42.832 16.254-68.478 23.327 2.367-11.388 1.187-23.447-3.544-34.913-6.897-16.717-21.07-29.154-38.886-34.122-9.11-2.54-18.996-3.112-29.384-1.699-68.521 9.318-109.323-13.851-145.323-34.295-24.195-13.74-47.049-26.719-73.803-26.719-31.231 0-61.974 10.913-61.974 10.913-10.542 3.299-16.413 14.52-13.113 25.061 3.299 10.542 14.521 16.41 25.061 13.113 0 0 25.565-9.087 50.026-9.087 16.188 0 32.897 9.488 54.051 21.502 31.676 17.988 73.265 41.611 135.088 41.609 11.116 0 22.895-.765 35.379-2.463 4.887-.664 9.469-.459 13.247.594 4.216 1.176 9.833 4.013 12.654 10.849 2.188 5.302 2.297 10.263.325 14.745-2.419 5.499-7.933 10.056-15.523 12.831-10.934 3.998-26.53 6.132-44.221 6.333-19.026.12-37.597-2.054-53.916-6.343-10.684-2.81-21.62 3.577-24.427 14.26-2.808 10.683 3.577 21.619 14.26 24.426 19.117 5.024 41.083 7.657 64.083 7.657 76.034-.325 141.127-24.437 182.611-40.182 6.952-2.636 16.525-1.46 20.697 6.554 3.752 7.207.99 16.178-6.158 19.996-50.195 26.817-108.442 51.632-194.037 51.632-76.199 0-146.387-29.404-191.849-54.072-35.022-19.004-60.612-13.001-63.415-12.253l.034.126c-8.562 2.264-14.882 10.041-14.882 19.314 0 11.046 8.954 20 20 20 1.928 0 3.786-.288 5.551-.797 3.416-.405 15.745-.94 33.636 8.768 49.533 26.876 126.335 58.914 210.925 58.914 107.408 0 178.649-38.061 212.885-56.351 26.395-14.1 36.431-47.545 22.609-74.096z"/></g></g></svg>