<svg id="Layer_1" enable-background="new 0 0 512 512" height="512" viewBox="0 0 512 512" width="512" xmlns="http://www.w3.org/2000/svg"><g><path d="m80 392v-109.447c0-11.652 5.229-21.342 13.017-27.733l-15.523-11.633c-6.087-4.53-12.83-6.786-19.494-7.137-19.336-1.019-38 13.999-38 36.016v119.934c0 55.228 44.771 100 100 100h60c-55.229 0-100-44.772-100-100z" fill="#cee1f2"/><path d="m392 512h-272c-66.168 0-120-53.832-120-120v-119.935c0-15.549 6.142-29.938 17.294-40.52 11.214-10.639 26.428-16.279 41.758-15.47 10.922.575 21.429 4.401 30.383 11.065l117.914 88.365c.045.034.09.068.135.103 28.565 21.787 68.467 21.787 97.032 0 .045-.034.09-.068.135-.103l117.861-88.326c9.007-6.703 19.514-10.529 30.438-11.104 15.328-.803 30.542 4.831 41.756 15.47 11.152 10.582 17.294 24.972 17.294 40.52v119.935c0 66.168-53.832 120-120 120zm-335.835-255.999c-4.106 0-8.293 1.674-11.339 4.564-2.201 2.088-4.825 5.778-4.825 11.5v119.935c0 44.112 35.888 80 80 80h272c44.112 0 80-35.888 80-80v-119.935c0-5.722-2.624-9.412-4.825-11.5-3.24-3.075-7.78-4.77-12.123-4.544-3.067.161-5.961 1.24-8.605 3.208l-117.748 88.242c-42.82 32.609-102.579 32.609-145.399 0l-117.801-88.281c-2.591-1.929-5.485-3.008-8.551-3.169-.261-.013-.522-.02-.784-.02zm402.835-99.001v-37c0-66.168-53.832-120-120-120h-164c-66.168 0-120 53.832-120 120v36.979c0 11.046 8.954 20 20 20s20-8.954 20-20v-36.979c0-44.112 35.888-80 80-80h164c44.112 0 80 35.888 80 80v37c0 11.046 8.954 20 20 20s20-8.954 20-20zm-137.851 102.278c10.647-2.939 16.896-13.954 13.955-24.602-9.54-34.547-41.246-58.676-77.104-58.676s-67.564 24.129-77.104 58.677c-2.94 10.647 3.308 21.662 13.955 24.602 10.648 2.942 21.662-3.308 24.602-13.955 4.767-17.265 20.618-29.324 38.547-29.324s33.78 12.059 38.547 29.323c2.448 8.867 10.495 14.682 19.267 14.682 1.762 0 3.555-.234 5.335-.727z" fill="#1428bf"/><path d="m155 154c-11.046 0-20-8.954-20-20s8.954-20 20-20c8.271 0 15-6.729 15-15 0-11.046 8.954-20 20-20s20 8.954 20 20c0 30.327-24.673 55-55 55zm224-20c0-11.046-8.954-20-20-20-8.271 0-15-6.729-15-15 0-11.046-8.954-20-20-20s-20 8.954-20 20c0 30.327 24.673 55 55 55 11.046 0 20-8.954 20-20z" fill="#ff5cf0"/></g></svg>