<svg id="Layer_1" enable-background="new 0 0 513 513" height="512" viewBox="0 0 513 513" width="512" xmlns="http://www.w3.org/2000/svg"><g><path d="m170.739 135c0-51.123 33.362-94.446 79.5-109.407-11.182-3.625-23.11-5.593-35.5-5.593-63.513 0-115 51.487-115 115s51.487 115 115 115c12.39 0 24.318-1.968 35.5-5.593-46.138-14.961-79.5-58.284-79.5-109.407z" fill="#cee1f2"/><path d="m50.5 512c-11.046 0-20-8.954-20-20 0-100.355 81.645-182 182-182h30c22.033 0 43.578 3.899 64.038 11.591 10.339 3.887 15.57 15.419 11.684 25.758-3.887 10.341-15.419 15.572-25.759 11.684-15.944-5.994-32.755-9.033-49.963-9.033h-30c-78.299 0-142 63.701-142 142 0 11.046-8.954 20-20 20zm310-377c0-74.439-60.561-135-135-135s-135 60.561-135 135 60.561 135 135 135 135-60.561 135-135zm-40 0c0 52.383-42.617 95-95 95s-95-42.617-95-95 42.617-95 95-95 95 42.617 95 95z" fill="#1428bf"/><path d="m462.5 472c-11.046 0-20-8.954-20-20v-52.823c0-11.677-9.5-21.177-21.176-21.177h-52.824c-11.046 0-20-8.954-20-20s8.954-20 20-20h52.824c33.733 0 61.176 27.443 61.176 61.177v52.823c0 11.046-8.954 20-20 20zm-49.545-32.197c7.628-7.988 7.336-20.648-.652-28.276-7.989-7.628-20.648-7.336-28.277.651-36.912 38.653-88.734 60.822-142.181 60.822h-9.345c-11.046 0-20 8.954-20 20s8.954 20 20 20h9.345c64.321 0 126.688-26.68 171.11-73.197z" fill="#ff5cf0"/></g></svg>