<svg id="Layer_1" enable-background="new 0 0 512 512" height="512" viewBox="0 0 512 512" width="512" xmlns="http://www.w3.org/2000/svg"><g><path d="m81 392v-272c0-55.229 44.771-100 100-100h-61c-55.229 0-100 44.771-100 100v272c0 55.228 44.771 100 100 100h61c-55.229 0-100-44.772-100-100z" fill="#cee1f2"/><path d="m392 512h-272c-66.168 0-120-53.832-120-120v-272c0-66.168 53.832-120 120-120h272c66.168 0 120 53.832 120 120v272c0 66.168-53.832 120-120 120zm-272-472c-44.112 0-80 35.888-80 80v272c0 44.112 35.888 80 80 80h272c44.112 0 80-35.888 80-80v-272c0-44.112-35.888-80-80-80zm185 102c-13.807 0-25 11.193-25 25s11.193 25 25 25 25-11.193 25-25-11.193-25-25-25zm-86 26c-13.807 0-25 11.193-25 25s11.193 25 25 25 25-11.193 25-25-11.193-25-25-25zm5.029 157.08c-15.404-1.215-28.163 11.544-26.949 26.948.956 12.118 10.773 21.936 22.891 22.891 15.404 1.215 28.163-11.544 26.948-26.948-.955-12.118-10.772-21.935-22.89-22.891zm-101.029 26.92c-13.807 0-25 11.193-25 25s11.193 25 25 25 25-11.193 25-25-11.193-25-25-25zm27-91c-13.807 0-25 11.193-25 25s11.193 25 25 25 25-11.193 25-25-11.193-25-25-25zm118-14c-13.807 0-25 11.193-25 25s11.193 25 25 25 25-11.193 25-25-11.193-25-25-25zm95-22c-13.807 0-25 11.193-25 25s11.193 25 25 25 25-11.193 25-25-11.193-25-25-25z" fill="#1428bf"/><circle cx="389" cy="130" fill="#ff5cf0" r="25"/></g></svg>