<svg id="Layer_1" enable-background="new 0 0 512 512" height="512" viewBox="0 0 512 512" width="512" xmlns="http://www.w3.org/2000/svg"><g><path d="m80 256c0-120.176 89.826-219.372 206-234.11-9.824-1.247-19.837-1.89-30-1.89-130.339 0-236 105.661-236 236s105.661 236 236 236c10.163 0 20.176-.643 30-1.89-116.174-14.738-206-113.934-206-234.11z" fill="#cee1f2"/><path d="m256 512c-68.38 0-132.667-26.629-181.02-74.98-48.351-48.353-74.98-112.64-74.98-181.02s26.629-132.667 74.98-181.02c48.353-48.351 112.64-74.98 181.02-74.98s132.667 26.629 181.02 74.98c48.351 48.353 74.98 112.64 74.98 181.02 0 11.046-8.954 20-20 20s-20-8.954-20-20c0-119.103-96.897-216-216-216s-216 96.897-216 216 96.897 216 216 216c34.845 0 68.098-8.035 98.835-23.883 9.819-5.063 21.88-1.207 26.941 8.611 5.062 9.817 1.206 21.88-8.611 26.941-35.946 18.534-76.462 28.331-117.165 28.331z" fill="#1428bf"/><path d="m487.862 328.782c-7.963-7.656-20.625-7.407-28.279.555-8.472 8.81-19.865 13.663-32.083 13.663-24.537 0-44.5-19.963-44.5-44.5v-42.5c0-70.028-56.972-127-127-127s-127 56.972-127 127 56.972 127 127 127c38.776 0 73.542-17.474 96.856-44.953 14.211 26.715 42.332 44.953 74.644 44.953 23.199 0 44.834-9.212 60.917-25.938 7.655-7.963 7.407-20.624-.555-28.28zm-231.862 14.218c-47.972 0-87-39.028-87-87s39.028-87 87-87 87 39.028 87 87-39.028 87-87 87z" fill="#ff5cf0"/></g></svg>