<svg id="Layer_1" enable-background="new 0 0 512 512" height="512" viewBox="0 0 512 512" width="512" xmlns="http://www.w3.org/2000/svg"><g><path d="m116.024 468.589c0-84.589-36.024-128.589-36.024-128.589v-84.356c0-29.602 18.738-54.827 45-64.462-7.371-2.704-15.335-4.182-23.644-4.182h-12.712c-37.911 0-68.644 30.733-68.644 68.644v84.356s36.024 44 36.024 128.589c0 13.289 12.213 23.411 25.502 23.411h26.948c6.094 0 11.958-2.133 16.526-5.72-5.392-4.234-8.976-10.496-8.976-17.691z" fill="#cee1f2"/><path d="m419.5 442h-201.5c-11.046 0-20-8.954-20-20s8.954-20 20-20h201.5c28.948 0 52.5-23.552 52.5-52.5 0-19.599-10.811-37.432-28.213-46.54-9.027-4.725-13.06-15.481-9.362-24.977 3.036-7.797 4.575-16.034 4.575-24.483 0-37.22-30.28-67.5-67.5-67.5-2.801 0-5.637.176-8.429.521-10.671 1.322-20.492-6.039-22.206-16.663-6.902-42.796-43.434-73.858-86.865-73.858-9.779 0-19.375 1.588-28.521 4.72-10.445 3.576-21.821-1.992-25.4-12.443-3.578-10.45 1.993-21.822 12.443-25.4 13.326-4.564 27.282-6.877 41.478-6.877 30.597 0 60.211 10.971 83.388 30.891 18.359 15.78 31.805 36.378 38.889 59.214 57.07 2.505 102.723 49.718 102.723 107.395 0 7.846-.838 15.585-2.5 23.144 22.223 17.346 35.5 44.013 35.5 72.856 0 51.005-41.495 92.5-92.5 92.5zm-265.523 26.589c0-74.273 30.275-114.334 31.545-115.974 3.002-3.594 4.478-7.927 4.478-12.615v-84.356c0-48.878-39.766-88.644-88.644-88.644h-12.712c-48.878 0-88.644 39.766-88.644 88.645v84.355c0 4.619 1.599 9.096 4.525 12.67.314.385 31.498 40.58 31.498 115.919 0 23.937 20.412 43.411 45.502 43.411h26.949c25.09 0 45.503-19.475 45.503-43.411zm-113.977-212.945c0-26.823 21.821-48.644 48.644-48.644h12.713c26.822 0 48.643 21.821 48.643 48.644v77.954c-10.618 15.926-36.023 61.693-36.023 134.991 0 1.316-2.518 3.411-5.502 3.411h-26.95c-2.984 0-5.502-2.095-5.502-3.411 0-73.298-25.405-119.065-36.023-134.991z" fill="#1428bf"/><path d="m94 136c-37.495 0-68-30.505-68-68s30.505-68 68-68 68 30.505 68 68-30.505 68-68 68zm0-96c-15.439 0-28 12.561-28 28s12.561 28 28 28 28-12.561 28-28-12.561-28-28-28z" fill="#ff5cf0"/></g></svg>