<svg id="Layer_1" enable-background="new 0 0 512 512" height="512" viewBox="0 0 512 512" width="512" xmlns="http://www.w3.org/2000/svg"><g><path d="m80 391.543v-167c0-55.229 45.402-100 100.63-100h-58c-55.229 0-100 44.771-100 100v167c0 55.229 44.771 100 100 100h58c-55.228 0-100.63-44.771-100.63-100z" fill="#cee1f2"/><path d="m392 512h-272c-66.168 0-120-53.832-120-120v-164c0-66.168 53.832-120 120-120h272c66.168 0 120 53.832 120 120v164c0 66.168-53.832 120-120 120zm-272-364c-44.112 0-80 35.888-80 80v164c0 44.112 35.888 80 80 80h272c44.112 0 80-35.888 80-80v-164c0-44.112-35.888-80-80-80z" fill="#1428bf"/><path d="m182 80c-11.046 0-20-8.954-20-20 0-11.028-8.972-20-20-20s-20 8.972-20 20c0 11.046-8.954 20-20 20s-20-8.954-20-20c0-33.084 26.916-60 60-60s60 26.916 60 60c0 11.046-8.954 20-20 20zm250-20c0-33.084-26.916-60-60-60s-60 26.916-60 60c0 11.046 8.954 20 20 20s20-8.954 20-20c0-11.028 8.972-20 20-20s20 8.972 20 20c0 11.046 8.954 20 20 20s20-8.954 20-20zm-155 253v-82c0-11.046-8.954-20-20-20s-20 8.954-20 20v82c0 11.046 8.954 20 20 20s20-8.954 20-20zm-20 49c-13.807 0-25 11.193-25 25s11.193 25 25 25 25-11.193 25-25-11.193-25-25-25z" fill="#ff5cf0"/></g></svg>