<svg id="Layer_1" enable-background="new 0 0 512.138 512.138" height="512" viewBox="0 0 512.138 512.138" width="512" xmlns="http://www.w3.org/2000/svg"><g><path d="m130.069 307.138c0-91.956 67.096-168.23 155-182.566-9.766-1.593-19.784-2.434-30-2.434-102.173 0-185 82.827-185 185s82.827 185 185 185c10.216 0 20.234-.841 30-2.434-87.904-14.337-155-90.61-155-182.566z" fill="#cee1f2"/><path d="m255.069 512.138c-113.038 0-205-91.963-205-205s91.962-205 205-205 205 91.963 205 205-91.963 205-205 205zm0-370c-90.981 0-165 74.019-165 165s74.019 165 165 165 165-74.019 165-165-74.019-165-165-165z" fill="#1428bf"/><path d="m314.402 59.879c0 11.046-8.954 20-20 20s-20-8.954-20-20c0-10.961-8.972-19.879-20-19.879s-20 8.972-20 20c0 11.046-8.954 20-20 20s-20-8.954-20-20c0-33.084 26.916-60 60-60s60 26.861 60 59.879zm163.809 72.116-50-50c-7.811-7.809-20.474-7.809-28.284 0-7.811 7.811-7.811 20.475 0 28.285l50 50c3.905 3.904 9.023 5.857 14.142 5.857s10.237-1.953 14.142-5.857c7.81-7.81 7.81-20.474 0-28.285zm-394.284-49-50 50c-7.811 7.811-7.811 20.475 0 28.285 3.905 3.904 9.023 5.857 14.142 5.857s10.237-1.953 14.142-5.857l50-50c7.811-7.811 7.811-20.475 0-28.285-7.811-7.808-20.474-7.808-28.284 0zm211.533 217.963c-10.055-8.912-23.333-13.82-37.391-13.82-9.691 0-17-4.299-17-10 0-5.514 4.486-10 10-10 7.104 0 15.745.805 30.751 6.64 10.295 4.004 21.885-1.098 25.889-11.391 4.003-10.295-1.097-21.886-11.391-25.889-6.409-2.493-12.11-4.325-17.249-5.68v-3.68c0-11.046-8.954-20-20-20s-20 8.954-20 20v1.466c-21.792 5.39-38 25.1-38 48.534 0 28.505 24.505 50 57 50 7.589 0 14 4.579 14 10s-4.809 10-10.5 10c-4.18 0-18.456-1.363-34.113-7.586-10.266-4.079-21.893.935-25.973 11.199-4.08 10.265.934 21.893 11.199 25.973 9.153 3.638 18.236 6.153 26.387 7.807v2.607c0 11.046 8.954 20 20 20s20-8.954 20-20v-3.099c19.246-7.063 33-25.419 33-46.901 0-13.638-6.054-26.825-16.609-36.18z" fill="#ff5cf0"/></g></svg>