<svg id="Layer_1" enable-background="new 0 0 512 512" height="512" viewBox="0 0 512 512" width="512" xmlns="http://www.w3.org/2000/svg"><g><path d="m80 392v-272c0-55.229 44.771-100 100-100l211.95-.779.05-.221-272 1c-55.229 0-100 44.771-100 100v272c0 55.228 44.771 100 100 100l52.058-.314c-51.515-4.048-92.058-47.131-92.058-99.686z" fill="#cee1f2"/><path d="m392 512h-272c-66.168 0-120-53.832-120-120v-272c0-66.168 53.832-120 120-120h272c66.168 0 120 53.832 120 120v72c0 11.046-8.954 20-20 20s-20-8.954-20-20v-72c0-44.112-35.888-80-80-80h-272c-44.112 0-80 35.888-80 80v272c0 44.112 35.888 80 80 80h272c20.387 0 39.803-7.67 54.673-21.598 8.062-7.551 20.718-7.137 28.269.926s7.137 20.719-.925 28.27c-22.31 20.894-51.437 32.402-82.017 32.402zm40-383c0-11.046-8.954-20-20-20h-312c-11.046 0-20 8.954-20 20s8.954 20 20 20h312c11.046 0 20-8.954 20-20zm22.121 270.164 40.289-40.166c11.342-11.309 17.59-26.349 17.59-42.35s-6.247-31.042-17.59-42.352c-.042-.041-.084-.083-.126-.124l-40.289-39.461c-7.891-7.729-20.555-7.597-28.283.294-7.729 7.891-7.598 20.554.293 28.282l40.213 39.387c3.729 3.743 5.781 8.703 5.781 13.974 0 5.293-2.071 10.272-5.832 14.021l-40.289 40.166c-7.822 7.799-7.842 20.462-.043 28.284 3.907 3.92 9.035 5.88 14.164 5.88 5.109.001 10.218-1.944 14.122-5.835zm-21.121-84.164c0-11.046-8.954-20-20-20h-63c-11.046 0-20 8.954-20 20s8.954 20 20 20h63c11.046 0 20-8.954 20-20z" fill="#1428bf"/><path d="m300.29 347.85-13.323-7.994c2.611-8.158 4.033-16.843 4.033-25.856 0-9.014-1.423-17.698-4.034-25.856l13.324-7.995c9.472-5.683 12.543-17.968 6.86-27.439s-17.968-12.546-27.44-6.859l-13.569 8.142c-10.877-10.901-24.695-18.853-40.141-22.593v-17.4c0-11.046-8.954-20-20-20s-20 8.954-20 20v17.399c-15.798 3.826-29.881 12.071-40.869 23.356l-14.841-8.905c-9.471-5.686-21.757-2.612-27.44 6.859-5.683 9.472-2.612 21.757 6.86 27.439l15.004 9.002c-2.409 7.866-3.714 16.207-3.714 24.85s1.305 16.984 3.714 24.848l-15.003 9.002c-9.472 5.684-12.543 17.969-6.86 27.44 3.75 6.25 10.374 9.713 17.169 9.713 3.501 0 7.049-.92 10.271-2.853l14.842-8.905c10.987 11.286 25.07 19.53 40.868 23.356v17.399c0 11.046 8.954 20 20 20s20-8.954 20-20v-17.399c15.445-3.741 29.263-11.692 40.14-22.593l13.57 8.142c3.222 1.933 6.769 2.853 10.271 2.853 6.794 0 13.419-3.463 17.169-9.713 5.682-9.472 2.61-21.757-6.861-27.44zm-94.29 11.15c-24.813 0-45-20.187-45-45s20.187-45 45-45 45 20.187 45 45-20.187 45-45 45z" fill="#ff5cf0"/></g></svg>