<svg id="Layer_1" enable-background="new 0 0 512 512" height="512" viewBox="0 0 512 512" width="512" xmlns="http://www.w3.org/2000/svg"><g><path d="m102 482.901c-8.581 5.745-16.898 9.099-28 9.099-29.824 0-54-24.177-54-54v-82c0-29.823 24.176-54 54-54 11.102 0 19.419 3.354 28 9.099-14.47 9.688-24 26.18-24 44.901v82c0 18.721 9.53 35.213 24 44.901zm158-44.901v-225c0-18.721 9.53-35.213 24-44.901-8.581-5.745-16.898-9.099-28-9.099-29.824 0-54 24.176-54 54v225c0 29.823 24.176 54 54 54 11.102 0 19.419-3.354 28-9.099-14.47-9.688-24-26.18-24-44.901zm182 0v-364c0-18.721 9.53-35.213 24-44.901-8.581-5.745-16.898-9.099-28-9.099-29.823 0-54 24.176-54 54v364c0 29.823 24.177 54 54 54 11.102 0 19.419-3.354 28-9.099-14.47-9.688-24-26.18-24-44.901z" fill="#cee1f2"/><path d="m438 512c-40.804 0-74-33.196-74-74v-364c0-40.804 33.196-74 74-74s74 33.196 74 74v364c0 40.804-33.196 74-74 74zm0-472c-18.748 0-34 15.252-34 34v364c0 18.748 15.252 34 34 34s34-15.252 34-34v-364c0-18.748-15.252-34-34-34zm-364 472c-40.804 0-74-33.196-74-74v-82c0-40.804 33.196-74 74-74s74 33.196 74 74v82c0 40.804-33.196 74-74 74zm0-190c-18.748 0-34 15.252-34 34v82c0 18.748 15.252 34 34 34s34-15.252 34-34v-82c0-18.748-15.252-34-34-34zm182 190c-40.804 0-74-33.196-74-74v-225c0-40.804 33.196-74 74-74s74 33.196 74 74v225c0 40.804-33.196 74-74 74zm0-333c-18.748 0-34 15.252-34 34v225c0 18.748 15.252 34 34 34s34-15.252 34-34v-225c0-18.748-15.252-34-34-34z" fill="#1428bf"/><path d="m139 162.333c0-31.246-27.788-56.666-61.944-56.666-14.518 0-25.056-7.01-25.056-16.667 0-9.19 7.402-16.667 16.5-16.667 9.172 0 21.12 1 40.195 8.418 10.294 4.004 21.886-1.098 25.889-11.391 4.003-10.295-1.097-21.886-11.391-25.889-9.929-3.861-18.587-6.394-26.193-8.061v-15.41c0-11.046-8.954-20-20-20s-20 8.954-20 20v13.516c-25.658 5.342-45 28.189-45 55.484 0 32.306 27.968 56.667 65.056 56.667 11.895 0 21.944 7.632 21.944 16.666 0 8.879-8.255 16.667-17.667 16.667-7.343 0-25.767-2.692-43.946-9.919-10.265-4.079-21.894.934-25.973 11.198-4.08 10.265.934 21.894 11.198 25.974 11.582 4.604 23.665 7.888 34.387 9.969v11.778c0 11.046 8.954 20 20 20s20-8.954 20-20v-11.169c9.145-2.572 17.596-7.382 24.639-14.169 11.196-10.789 17.362-25.111 17.362-40.329z" fill="#ff5cf0"/></g></svg>