<svg id="Layer_1" enable-background="new 0 0 512 512" height="512" viewBox="0 0 512 512" width="512" xmlns="http://www.w3.org/2000/svg"><g><path d="m219.739 244.407c-11.182 3.625-23.11 5.593-35.5 5.593-63.513 0-115-51.487-115-115s51.487-115 115-115c12.39 0 24.318 1.968 35.5 5.593-46.138 14.961-79.5 58.284-79.5 109.407s33.362 94.446 79.5 109.407zm104.261 131.593c0-51.123 33.362-94.446 79.5-109.407-11.182-3.625-23.11-5.593-35.5-5.593-63.513 0-115 51.487-115 115s51.487 115 115 115c12.39 0 24.318-1.968 35.5-5.593-46.138-14.961-79.5-58.284-79.5-109.407z" fill="#cee1f2"/><path d="m195 270c-74.439 0-135-60.561-135-135s60.561-135 135-135 135 60.561 135 135-60.561 135-135 135zm0-230c-52.383 0-95 42.617-95 95s42.617 95 95 95 95-42.617 95-95-42.617-95-95-95zm182 471c-74.439 0-135-60.561-135-135s60.561-135 135-135 135 60.561 135 135-60.561 135-135 135zm0-230c-52.383 0-95 42.617-95 95s42.617 95 95 95 95-42.617 95-95-42.617-95-95-95z" fill="#1428bf"/><g fill="#ff5cf0"><path d="m410.987 356h-13.987v-21c0-11.046-8.954-20-20-20s-20 8.954-20 20v41c0 11.046 8.954 20 20 20h33.987c11.046 0 20-8.954 20-20s-8.954-20-20-20z"/><path d="m185 310h-.256c-106.052 0-184.744 81.645-184.744 182 0 11.046 8.954 20 20 20s20-8.954 20-20c0-78.299 60-142 145-142 11.046 0 20-8.954 20-20s-8.954-20-20-20z"/></g></g></svg>