<svg id="Layer_1" enable-background="new 0 0 512 512" height="512" viewBox="0 0 512 512" width="512" xmlns="http://www.w3.org/2000/svg"><g><path d="m80 256c0-120.176 89.826-219.372 206-234.11-9.824-1.247-19.837-1.89-30-1.89-130.339 0-236 105.661-236 236s105.661 236 236 236c10.163 0 20.176-.643 30-1.89-116.174-14.738-206-113.934-206-234.11z" fill="#cee1f2"/><path d="m437.02 74.98c-48.353-48.351-112.64-74.98-181.02-74.98s-132.667 26.629-181.02 74.98c-48.351 48.353-74.98 112.64-74.98 181.02s26.629 132.667 74.98 181.02c48.353 48.351 112.64 74.98 181.02 74.98s132.667-26.629 181.02-74.98c48.351-48.353 74.98-112.64 74.98-181.02s-26.629-132.667-74.98-181.02zm-161.02 396.085v-42.065c0-11.046-8.954-20-20-20s-20 8.954-20 20v42.065c-103.173-9.518-185.547-91.893-195.066-195.065h42.066c11.046 0 20-8.954 20-20s-8.954-20-20-20h-42.066c9.519-103.172 91.893-185.547 195.066-195.065v41.065c0 11.046 8.954 20 20 20s20-8.954 20-20v-41.065c103.173 9.518 185.547 91.893 195.066 195.065h-42.066c-11.046 0-20 8.954-20 20s8.954 20 20 20h42.066c-9.519 103.172-91.893 185.547-195.066 195.065z" fill="#1428bf"/><path d="m314 291.75c0-14.843-6.337-28.633-17.844-38.832-10.853-9.62-25.203-14.918-40.406-14.918-12.399 0-21.75-5.911-21.75-13.75 0-7.582 6.225-13.75 13.875-13.75 6.958 0 17.323.925 35.876 8.14 10.292 4.004 21.885-1.097 25.889-11.391 4.004-10.295-1.096-21.886-11.391-25.889-7.974-3.101-15.298-5.482-22.249-7.222v-11.138c0-11.046-8.954-20-20-20s-20 8.954-20 20v8.832c-24.01 5.412-42 26.852-42 52.418 0 30.643 26.547 53.75 61.75 53.75 10.063 0 18.25 6.168 18.25 13.75 0 7.453-6.555 13.75-14.313 13.75-6.356 0-22.647-2.467-39.301-9.086-10.262-4.076-21.893.934-25.973 11.199-4.08 10.264.935 21.893 11.199 25.973 10.022 3.983 20.191 6.893 29.387 8.844v9.57c0 11.046 8.954 20 20 20s20-8.954 20-20v-8.689c22.515-6.561 39.001-27.185 39.001-51.561z" fill="#ff5cf0"/></g></svg>