<svg id="Layer_1" enable-background="new 0 0 512 512" height="512" viewBox="0 0 512 512" width="512" xmlns="http://www.w3.org/2000/svg"><g><path d="m81 392v-272c0-55.229 44.771-100 100-100h-61c-55.229 0-100 44.771-100 100v272c0 55.228 44.771 100 100 100h61c-55.229 0-100-44.772-100-100z" fill="#cee1f2"/><path d="m392 512h-272c-66.168 0-120-53.832-120-120v-272c0-66.168 53.832-120 120-120h272c66.168 0 120 53.832 120 120v272c0 66.168-53.832 120-120 120zm-272-472c-44.112 0-80 35.888-80 80v272c0 44.112 35.888 80 80 80h272c44.112 0 80-35.888 80-80v-272c0-44.112-35.888-80-80-80zm1 365v-84c0-11.046-8.954-20-20-20s-20 8.954-20 20v84c0 11.046 8.954 20 20 20s20-8.954 20-20zm233 0v-167c0-11.046-8.954-20-20-20s-20 8.954-20 20v167c0 11.046 8.954 20 20 20s20-8.954 20-20zm78 0v-44c0-11.046-8.954-20-20-20s-20 8.954-20 20v44c0 11.046 8.954 20 20 20s20-8.954 20-20z" fill="#1428bf"/><path d="m256 425c-11.046 0-20-8.954-20-20v-297c0-11.046 8.954-20 20-20s20 8.954 20 20v297c0 11.046-8.954 20-20 20zm-57-20v-227c0-11.046-8.954-20-20-20s-20 8.954-20 20v227c0 11.046 8.954 20 20 20s20-8.954 20-20z" fill="#ff5cf0"/></g></svg>