<svg id="Layer_1" enable-background="new 0 0 513 513" height="512" viewBox="0 0 513 513" width="512" xmlns="http://www.w3.org/2000/svg"><g><path d="m80.498 184c0-85.969 62.169-149.059 144-161.68-9.745-1.503-19.769-2.289-30-2.314-96.143.234-174 67.788-174 163.995 0 119.5 123 208 123 208h86c0-.001-149-88.501-149-208.001z" fill="#cee1f2"/><path d="m234.498 512h-81c-8.68 0-16.369-5.599-19.034-13.86l-10-31c-3.391-10.512 2.382-21.783 12.895-25.174 10.51-3.394 21.783 2.381 25.174 12.895l5.529 17.14h51.873l5.529-17.14c3.391-10.512 14.658-16.285 25.174-12.895 10.513 3.391 16.285 14.662 12.895 25.174l-10 31c-2.666 8.261-10.355 13.86-19.035 13.86zm30-120c0-11.046-8.954-20-20-20h-94.199c-21.924-17.453-109.801-93.34-109.801-188 0-81.938 66.169-143.766 154-143.999 87.831.233 154 62.061 154 143.999 0 16.092-2.588 32.605-7.691 49.082-3.269 10.552 2.636 21.754 13.187 25.022 10.545 3.267 21.755-2.635 25.022-13.187 6.292-20.314 9.482-40.81 9.482-60.918 0-51.638-20.454-98.829-57.594-132.882-35.625-32.663-83.687-50.786-135.476-51.112-.144-.003-.286-.005-.43-.005h-1c-.144 0-.286.002-.43.005-51.788.326-99.85 18.449-135.476 51.113-37.14 34.053-57.594 81.244-57.594 132.882 0 53.582 22.859 109.457 66.108 161.583 32.016 38.588 63.87 61.687 65.211 62.651 3.402 2.448 7.488 3.766 11.681 3.766h101c11.046 0 20-8.954 20-20zm-9.068-228.05c-2.868-2.132-28.931-20.948-62.931-20.948-33 0-60.064 18.816-62.933 20.948-8.864 6.59-10.708 19.119-4.118 27.983 3.925 5.28 9.956 8.069 16.066 8.069 4.148 0 8.333-1.286 11.917-3.951.115-.085 7.849-5.649 19.067-9.483v106.432c0 11.046 8.954 20 20 20s20-8.954 20-20v-106.432c11.217 3.834 18.951 9.397 19.066 9.482 3.584 2.665 7.769 3.951 11.917 3.951 6.11 0 12.141-2.789 16.066-8.069 6.591-8.864 4.747-21.392-4.117-27.982z" fill="#1428bf"/><path d="m502.788 426.85-13.324-7.994c2.611-8.158 4.034-16.842 4.034-25.855 0-9.014-1.422-17.698-4.034-25.856l13.324-7.995c9.472-5.683 12.543-17.968 6.859-27.439-5.684-9.473-17.971-12.545-27.439-6.859l-13.569 8.142c-10.876-10.901-24.695-18.853-40.141-22.593v-17.401c0-11.046-8.954-20-20-20s-20 8.954-20 20v17.399c-15.798 3.826-29.881 12.071-40.869 23.356l-14.841-8.905c-9.469-5.684-21.755-2.612-27.439 6.859-5.684 9.472-2.612 21.757 6.859 27.439l15.004 9.002c-2.409 7.864-3.714 16.206-3.714 24.848s1.305 16.984 3.714 24.848l-15.004 9.002c-9.472 5.684-12.543 17.969-6.86 27.44 3.751 6.25 10.375 9.713 17.169 9.713 3.502 0 7.05-.92 10.271-2.853l14.842-8.905c10.988 11.286 25.07 19.53 40.868 23.356v17.401c0 11.046 8.954 20 20 20s20-8.954 20-20v-17.399c15.445-3.741 29.263-11.692 40.14-22.592l13.57 8.142c3.222 1.933 6.769 2.853 10.271 2.853 6.794 0 13.419-3.463 17.169-9.713 5.683-9.473 2.612-21.758-6.86-27.441zm-94.29 11.15c-24.813 0-45-20.187-45-45s20.187-45 45-45 45 20.187 45 45-20.186 45-45 45z" fill="#ff5cf0"/></g></svg>