<svg id="Layer_1" enable-background="new 0 0 512.4 512.4" height="512" viewBox="0 0 512.4 512.4" width="512" xmlns="http://www.w3.org/2000/svg"><g><path d="m245.489 439.167-52.253-52.253c-44.203-44.203-69.036-104.156-69.036-166.669v-79.655c0-61.289 55.194-109.079 115.462-97.934 16.192 2.994 32.007-4.361 47.718-16.002-35.862 2.528-71.481.903-106.859-4.849-60.946-9.908-116.321 36.906-116.321 98.651v101.299c0 76.913 30.554 150.675 84.939 205.061l36.35 36.35c35.258 35.257 90.29 33.679 129.391 5.273-25.15-.328-50.2-10.081-69.391-29.272z" fill="#cee1f2"/><path d="m256.2 512.4c-30.73 0-61.459-11.696-84.853-35.09l-36.351-36.351c-28.932-28.933-51.542-62.771-67.199-100.572-15.658-37.802-23.597-77.716-23.597-118.632v-101.299c0-35.215 15.381-68.494 42.199-91.304 26.917-22.896 62.39-32.767 97.331-27.089 47.889 7.787 96.749 7.638 145.224-.439 34.581-5.766 69.812 3.975 96.657 26.717 27.066 22.928 42.589 56.415 42.589 91.873v101.542c0 40.916-7.939 80.83-23.597 118.631-15.658 37.803-38.267 71.64-67.2 100.572l-36.35 36.35c-23.394 23.394-54.124 35.091-84.853 35.091zm-91.877-471.905c-18.946 0-37.374 6.679-52.008 19.126-17.868 15.198-28.115 37.372-28.115 60.835v101.299c0 72.119 28.085 139.923 79.081 190.92l36.351 36.35c31.192 31.193 81.945 31.191 113.137 0l36.35-36.35c50.996-50.997 79.081-118.8 79.081-190.919v-101.542c0-23.677-10.368-46.039-28.444-61.353-17.855-15.128-41.266-21.605-64.227-17.782-52.785 8.797-106.018 8.953-158.218.467-4.329-.704-8.673-1.051-12.988-1.051zm167.918-19.143h.01z" fill="#1428bf"/><path d="m320.2 278.789c0-31.246-27.788-56.666-61.944-56.666-14.518 0-25.056-7.01-25.056-16.667 0-9.19 7.402-16.667 16.5-16.667 9.172 0 21.12 1 40.195 8.418 10.293 4.004 21.886-1.097 25.889-11.391 4.003-10.295-1.097-21.886-11.391-25.889-9.929-3.861-18.587-6.394-26.193-8.061v-15.411c0-11.046-8.954-20-20-20s-20 8.954-20 20v13.516c-25.658 5.342-45 28.189-45 55.484 0 32.306 27.968 56.667 65.056 56.667 11.895 0 21.944 7.632 21.944 16.666 0 8.879-8.255 16.667-17.667 16.667-7.343 0-25.767-2.692-43.946-9.919-10.266-4.078-21.893.934-25.973 11.198-4.08 10.265.934 21.894 11.198 25.974 11.582 4.604 23.665 7.888 34.387 9.969v11.778c0 11.046 8.954 20 20 20s20-8.954 20-20v-11.169c9.145-2.572 17.595-7.382 24.639-14.169 11.196-10.788 17.362-25.11 17.362-40.328z" fill="#ff5cf0"/></g></svg>