<svg id="Layer_1" enable-background="new 0 0 512 512" height="512" viewBox="0 0 512 512" width="512" xmlns="http://www.w3.org/2000/svg"><g><path d="m80 100v-20c0-33.137 26.863-60 60-60h-60c-33.137 0-60 26.863-60 60v20c0 33.137 26.863 60 60 60h60c-33.137 0-60-26.863-60-60z" fill="#cee1f2"/><path d="m432 180h-352c-44.112 0-80-35.888-80-80v-20c0-44.112 35.888-80 80-80h352c44.112 0 80 35.888 80 80v20c0 44.112-35.888 80-80 80zm-352-140c-22.056 0-40 17.944-40 40v20c0 22.056 17.944 40 40 40h352c22.056 0 40-17.944 40-40v-20c0-22.056-17.944-40-40-40zm402 352v-152c0-11.046-8.954-20-20-20s-20 8.954-20 20v152c0 44.112-35.888 80-80 80h-212c-44.112 0-80-35.888-80-80v-152c0-11.046-8.954-20-20-20s-20 8.954-20 20v152c0 66.168 53.832 120 120 120h212c66.168 0 120-53.832 120-120z" fill="#1428bf"/><path d="m202 240c13.807 0 25 11.193 25 25s-11.193 25-25 25-25-11.193-25-25 11.193-25 25-25zm84 138c0 13.807 11.193 25 25 25s25-11.193 25-25-11.193-25-25-25-25 11.193-25 25zm-73.567 18.846 118-123c7.646-7.971 7.384-20.632-.587-28.278-7.971-7.647-20.631-7.386-28.278.587l-118 123c-7.646 7.971-7.384 20.632.587 28.278 3.877 3.72 8.863 5.567 13.843 5.567 5.257 0 10.507-2.061 14.435-6.154z" fill="#ff5cf0"/></g></svg>