<svg id="Layer_1" enable-background="new 0 0 512 512" height="512" viewBox="0 0 512 512" width="512" xmlns="http://www.w3.org/2000/svg"><g><path d="m393.5 431.968c-9.056 3.878-19.025 6.032-29.5 6.032-41.421 0-75-33.579-75-75s33.579-75 75-75c10.475 0 20.444 2.154 29.5 6.032-26.754 11.459-45.5 38.021-45.5 68.968 0 30.946 18.746 57.509 45.5 68.968zm-313.5-40.425v-144c0-55.229 45.402-100 100.63-100h-58c-55.229 0-100 44.771-100 100v144c0 55.229 44.771 100 100 100h58c-55.228 0-100.63-44.771-100.63-100z" fill="#cee1f2"/><g fill="#1428bf"><path d="m138 268c0-11.046-8.954-20-20-20s-20 8.954-20 20c0 60.103 45.615 109 112 109 11.046 0 20-8.954 20-20s-8.954-20-20-20c-41.308 0-72-30.953-72-69z"/><path d="m364 268c-52.383 0-95 42.617-95 95s42.617 95 95 95 95-42.617 95-95-42.617-95-95-95zm0 150c-30.327 0-55-24.673-55-55s24.673-55 55-55 55 24.673 55 55-24.673 55-55 55z"/><path d="m392 128h-272c-66.168 0-120 53.832-120 120v144c0 66.168 53.832 120 120 120h162c11.046 0 20-8.954 20-20s-8.954-20-20-20h-162c-44.112 0-80-35.888-80-80v-144c0-44.112 35.888-80 80-80h272c44.112 0 80 35.888 80 80v27c0 11.046 8.954 20 20 20s20-8.954 20-20v-27c0-66.168-53.832-120-120-120z"/></g><path d="m492 512c-5.119 0-10.237-1.952-14.142-5.857l-28-28c-7.811-7.811-7.811-20.475 0-28.285s20.474-7.811 28.284 0l28 28c7.811 7.811 7.811 20.475 0 28.285-3.905 3.905-9.023 5.857-14.142 5.857zm-141-443c0-38.047-30.953-69-69-69h-52c-38.047 0-69 30.953-69 69 0 11.046 8.954 20 20 20s20-8.954 20-20c0-15.99 13.009-29 29-29h52c15.991 0 29 13.01 29 29 0 11.046 8.954 20 20 20s20-8.954 20-20zm-94.667 165c-13.807 0-25 11.193-25 25s11.193 25 25 25 25-11.193 25-25-11.193-25-25-25z" fill="#ff5cf0"/></g></svg>