<svg id="Layer_1" enable-background="new 0 0 512 512" height="512" viewBox="0 0 512 512" width="512" xmlns="http://www.w3.org/2000/svg"><g><path d="m359 462.528v17.972c-42.349 0-86.538-24.251-116.975-45.355-21.367-14.815-21.367-46.474 0-61.289 30.437-21.105 74.626-45.356 116.975-45.356v17.972c-22.928 6.175-45.066 20.499-61.553 33.374-15.262 11.919-15.262 37.389 0 49.308 16.487 12.876 38.625 27.199 61.553 33.374zm-239-431.028c-55.229 0-100 44.771-100 100v172c0 55.228 44.771 100 100 100l32.665-.197c.045-1.185.091-2.37.134-3.555-42.008-11.848-72.799-50.449-72.799-96.248v-172c0-55.229 44.771-100 100-100z" fill="#cee1f2"/><path d="m146 423.5h-26c-66.168 0-120-53.832-120-120v-172c0-66.168 53.832-120 120-120h272c66.168 0 120 53.832 120 120v162c0 11.046-8.954 20-20 20s-20-8.954-20-20v-162c0-44.112-35.888-80-80-80h-272c-44.112 0-80 35.888-80 80v172c0 44.112 35.888 80 80 80h26c11.046 0 20 8.954 20 20s-8.954 20-20 20zm341.371 28.08c15.422-10.693 24.629-28.293 24.629-47.08s-9.207-36.387-24.629-47.08c-32.185-22.317-80.583-48.92-128.371-48.92s-96.186 26.603-128.371 48.92c-15.422 10.693-24.629 28.293-24.629 47.08s9.207 36.387 24.629 47.08c32.185 22.317 80.583 48.92 128.371 48.92s96.186-26.603 128.371-48.92zm-22.793-61.289c4.717 3.271 7.422 8.449 7.422 14.209s-2.705 10.938-7.422 14.209c-27.495 19.064-68.131 41.791-105.578 41.791s-78.083-22.727-105.578-41.791c-4.717-3.271-7.422-8.449-7.422-14.209s2.705-10.938 7.422-14.209c27.495-19.064 68.131-41.791 105.578-41.791s78.083 22.727 105.578 41.791zm-222.553-16.436h.01z" fill="#1428bf"/><path d="m412 150.5h-312c-11.046 0-20-8.954-20-20s8.954-20 20-20h312c11.046 0 20 8.954 20 20s-8.954 20-20 20zm20 60c0-11.046-8.954-20-20-20h-312c-11.046 0-20 8.954-20 20s8.954 20 20 20h312c11.046 0 20-8.954 20-20zm-72 219c13.807 0 25-11.193 25-25s-11.193-25-25-25-25 11.193-25 25 11.193 25 25 25z" fill="#ff5cf0"/></g></svg>