<svg id="Layer_1" enable-background="new 0 0 512 512" height="512" viewBox="0 0 512 512" width="512" xmlns="http://www.w3.org/2000/svg"><g><path d="m296 452v-.903c0-1.223.081-2.431.199-3.63-6.175-5.578-13.511-9.895-21.609-12.531-2.354-13.671-7.623-26.69-15.573-38.306-11.057-16.154-26.541-28.478-44.782-35.642-10.694-4.198-20.678-10.015-29.675-17.287-13.858-11.202-30.294-18.334-47.806-20.792 6.928-16.188 9.294-33.809 6.844-51.313-.729-5.208-1.098-10.539-1.098-15.847 0-5.53.402-11.087 1.195-16.51 2.562-17.498.309-35.128-6.515-51.369 17.131-2.303 33.738-9.211 48.005-20.577 8.82-7.027 18.58-12.669 29.006-16.768 18.219-7.161 33.693-19.462 44.754-35.571 7.887-11.487 13.145-24.349 15.55-37.86 8.158-2.641 15.546-6.985 21.756-12.607-.149-1.347-.251-2.706-.251-4.085v-.402c0-22.091-17.909-40-40-40s-40 17.909-40 40c0 15.359-9.465 29.068-23.759 34.687-16.14 6.345-31.094 15.046-44.442 25.679-11.986 9.549-28.499 11.035-41.824 3.467l-1.147-.651c-19.27-10.857-43.727-4.099-54.626 15.097-10.9 19.195-4.115 43.558 15.155 54.416l.322.183c13.328 7.57 20.869 22.508 18.649 37.674-1.204 8.226-1.828 16.639-1.828 25.199 0 8.2.572 16.266 1.677 24.161 2.1 15.002-5.338 29.738-18.511 37.219l-.309.175c-19.27 10.858-26.055 35.221-15.155 54.417 10.9 19.195 35.356 25.955 54.626 15.097l.057-.033c13.38-7.599 29.99-6.096 41.956 3.577 13.606 10.999 28.912 19.976 45.464 26.476 14.272 5.604 23.695 19.327 23.695 34.66v.5c0 22.091 17.909 40 40 40s40-17.909 40-40z" fill="#cee1f2"/><path d="m256 512c-33.084 0-60-26.916-60-60v-.502c0-7.121-4.319-13.419-11.005-16.044-18.305-7.188-35.372-17.125-50.727-29.537-5.656-4.572-13.313-5.256-19.506-1.74-.038.022-.076.043-.114.064-9.308 5.245-19.444 7.735-29.445 7.736-20.964.002-41.351-10.936-52.393-30.38-7.908-13.927-9.907-30.093-5.628-45.518 4.288-15.456 14.358-28.312 28.356-36.199l.27-.153c6.058-3.44 9.506-10.295 8.562-17.046-1.241-8.868-1.87-17.929-1.87-26.932 0-9.393.686-18.844 2.039-28.093 1.004-6.863-2.507-13.851-8.736-17.388l-.319-.183c-13.969-7.89-24.019-20.731-28.301-36.166-4.279-15.426-2.28-31.592 5.628-45.519 16.31-28.724 53.023-38.88 81.835-22.646l1.203.684c6.149 3.491 13.798 2.815 19.487-1.717 15.058-11.995 31.74-21.635 49.587-28.65 6.729-2.643 11.077-8.952 11.077-16.071 0-33.084 26.916-60 60-60s60 26.916 60 60v.401c0 7.08 4.314 13.377 10.992 16.041 17.651 7.044 34.15 16.659 49.038 28.578 5.703 4.564 13.361 5.259 19.512 1.766l1.753-.995c28.873-16.273 65.586-6.11 81.895 22.612 7.908 13.926 9.907 30.092 5.628 45.518-4.288 15.456-14.358 28.311-28.357 36.198l-1.371.778c-6.108 3.47-9.559 10.323-8.584 17.054 1.324 9.153 1.995 18.506 1.995 27.799 0 8.826-.604 17.71-1.794 26.404-.927 6.764 2.521 13.618 8.578 17.059l1.227.695c13.972 7.891 24.024 20.734 28.307 36.171 4.279 15.426 2.28 31.591-5.628 45.519-16.311 28.723-53.021 38.882-81.835 22.646l-.707-.401c-6.2-3.521-13.9-2.805-19.611 1.829-15.174 12.313-32.034 22.21-50.115 29.415-6.635 2.644-10.921 8.929-10.921 16.011v.902c-.002 33.084-26.918 60-60.002 60zm-132.77-150.101c12.841 0 25.609 4.362 36.184 12.91 12.176 9.842 25.701 17.719 40.201 23.412 22.104 8.68 36.385 29.592 36.385 53.276v.503c0 11.028 8.972 20 20 20s20-8.972 20-20v-.903c0-23.557 14.175-44.427 36.112-53.169 14.323-5.708 27.687-13.553 39.718-23.316 18.595-15.091 43.939-17.269 64.574-5.55l.647.368c9.602 5.408 21.9 2.022 27.354-7.584 2.62-4.614 3.283-9.968 1.867-15.074-1.425-5.136-4.78-9.412-9.449-12.043-.018-.01-.036-.02-.054-.03l-1.235-.701c-20.465-11.622-31.634-34.102-28.459-57.271.944-6.901 1.424-13.959 1.424-20.977 0-7.383-.532-14.809-1.583-22.07-3.313-22.893 8.106-46.026 28.417-57.563l1.432-.813c4.728-2.663 8.083-6.939 9.507-12.075 1.417-5.105.754-10.459-1.866-15.073-5.454-9.606-17.755-12.992-27.417-7.548l-1.694.962c-20.475 11.628-45.7 9.538-64.264-5.322-11.805-9.451-24.88-17.072-38.863-22.652-21.971-8.768-36.168-29.648-36.168-53.195v-.401c0-11.028-8.972-20-20-20s-20 8.972-20 20c0 23.676-14.305 44.598-36.442 53.3-14.137 5.558-27.357 13.197-39.297 22.709-18.543 14.774-43.729 16.821-64.163 5.215l-1.143-.649c-9.608-5.412-21.905-2.026-27.361 7.579-2.62 4.615-3.283 9.969-1.866 15.074 1.424 5.136 4.779 9.412 9.447 12.042.035.021.07.04.105.06l.321.184c20.411 11.591 31.89 34.884 28.516 57.936-1.073 7.336-1.617 14.84-1.617 22.302 0 7.155.499 14.352 1.484 21.389 3.246 23.201-7.917 45.726-28.441 57.382l-.328.187c-4.707 2.652-8.063 6.93-9.487 12.065-1.417 5.106-.754 10.459 1.866 15.073 5.456 9.608 17.757 12.995 27.417 7.548.009-.005.033-.019.058-.032 8.827-5.002 18.515-7.465 28.161-7.465z" fill="#1428bf"/><path d="m317 289.75c0-14.843-6.337-28.633-17.844-38.832-10.853-9.62-25.203-14.918-40.406-14.918-12.399 0-21.75-5.911-21.75-13.75 0-7.582 6.225-13.75 13.875-13.75 6.958 0 17.323.925 35.876 8.14 10.292 4.004 21.885-1.097 25.889-11.391 4.004-10.295-1.096-21.886-11.391-25.889-7.974-3.101-15.298-5.482-22.249-7.222v-11.138c0-11.046-8.954-20-20-20s-20 8.954-20 20v8.832c-24.01 5.412-42 26.852-42 52.418 0 30.643 26.547 53.75 61.75 53.75 10.063 0 18.25 6.168 18.25 13.75 0 7.453-6.555 13.75-14.313 13.75-6.356 0-22.647-2.467-39.301-9.086-10.263-4.077-21.893.935-25.973 11.199s.935 21.893 11.199 25.973c10.022 3.983 20.191 6.893 29.387 8.844v9.57c0 11.046 8.954 20 20 20s20-8.954 20-20v-8.689c22.515-6.561 39.001-27.185 39.001-51.561z" fill="#ff5cf0"/></g></svg>