<svg id="Layer_1" enable-background="new 0 0 512 512" height="512" viewBox="0 0 512 512" width="512" xmlns="http://www.w3.org/2000/svg"><g><path d="m124 392.041v-272.082c0-55.206 44.644-99.959 99.716-99.959h-60.716c-55.229 0-100 44.771-100 100v272c0 55.228 44.771 100 100 100h60.716c-55.072 0-99.716-44.753-99.716-99.959z" fill="#cee1f2"/><path d="m348 512h-184c-66.168 0-120-53.832-120-120v-272c0-66.168 53.832-120 120-120h184c66.168 0 120 53.832 120 120v272c0 66.168-53.832 120-120 120zm-184-472c-44.112 0-80 35.888-80 80v272c0 44.112 35.888 80 80 80h184c44.112 0 80-35.888 80-80v-272c0-44.112-35.888-80-80-80zm223 144c0-11.046-8.954-20-20-20h-34c-16.542 0-30-13.458-30-30v-34c0-11.046-8.954-20-20-20s-20 8.954-20 20v34c0 38.598 31.402 70 70 70h34c11.046 0 20-8.954 20-20z" fill="#1428bf"/><path d="m237.122 387c-16.647 0-32.288-6.529-44.043-18.386l-38.282-38.612c-7.776-7.844-7.722-20.507.122-28.284 7.845-7.777 20.507-7.721 28.284.122l38.281 38.612c4.186 4.222 9.74 6.548 15.638 6.548s11.452-2.326 15.639-6.548l79.053-79.55c7.788-7.837 20.45-7.873 28.284-.089 7.835 7.786 7.875 20.449.089 28.284l-79.037 79.533c-11.74 11.841-27.38 18.37-44.028 18.37z" fill="#ff5cf0"/></g></svg>