<svg id="Layer_1" enable-background="new 0 0 512.068 512.068" height="512" viewBox="0 0 512.068 512.068" width="512" xmlns="http://www.w3.org/2000/svg"><g><path d="m104.352 403.337-23.929-196.831c-2.252-19.76 4.44-38.28 16.68-51.787l-11.106-13.685c-39.41 0-70.037 34.315-65.574 73.472l21.521 188.851c5.757 50.521 48.51 88.677 99.357 88.677h62.411l-.004-.02c-50.847.001-93.599-38.157-99.356-88.677z" fill="#cee1f2"/><g fill="#1428bf"><path d="m163.146 304.034c11.046 0 20-8.954 20-20v-171c0-40.252 32.748-73 73-73s73 32.748 73 73v8h-86c-11.046 0-20 8.954-20 20s8.954 20 20 20h106c11.046 0 20-8.954 20-20v-28c0-62.309-50.691-113-113-113s-113 50.691-113 113v171c0 11.046 8.955 20 20 20z"/><path d="m468.524 421.383c-9.75-5.192-21.861-1.502-27.056 8.247-13.935 26.156-41 42.404-70.634 42.404h-229.532c-40.705 0-74.877-30.499-79.486-70.942l-21.522-188.851c-1.504-13.199 2.539-25.927 11.386-35.838 8.846-9.911 21.033-15.369 34.318-15.369 11.046 0 20-8.954 20-20s-8.954-20-20-20c-24.477 0-47.863 10.474-64.161 28.734-16.299 18.261-24.057 42.682-21.285 67.003l21.521 188.851c6.914 60.665 58.171 106.413 119.229 106.413h229.533c44.444 0 85.037-24.368 105.937-63.596 5.193-9.75 1.5-21.862-8.248-27.056z"/><path d="m493.062 221.009c-.609.045.598 0 0 0z"/><path d="m511.803 199.248c-1.897-21.168-11.581-40.825-27.268-55.351-15.921-14.743-36.66-22.863-58.396-22.863-11.046 0-20 8.954-20 20s8.954 20 20 20c23.595 0 43.724 18.354 45.824 41.786.932 10.395 9.054 18.188 21.099 18.188 13.006-.974 19.727-10.758 18.741-21.76z"/></g><path d="m181.063 434.152c-4.859 0-9.73-1.76-13.578-5.32-8.107-7.501-8.599-20.155-1.097-28.263 0 0 34.433-37.172 34.888-37.581 25.441-22.883 63.389-24.086 90.23-2.859.086.068.171.137.256.206l30.41 24.871c12.337 9.663 30.155 8.154 40.692-3.44l45.113-51.858c7.249-8.334 19.881-9.214 28.217-1.963 8.333 7.25 9.212 19.883 1.963 28.217 0 0-45.385 52.169-45.46 52.252-24.639 27.376-66.566 30.922-95.452 8.078-.086-.068-.171-.137-.256-.206l-30.408-24.87c-11.284-8.84-27.096-8.479-37.953.784l-32.881 35.536c-3.94 4.259-9.305 6.416-14.684 6.416zm331.005-68.118v-52.823c0-33.733-27.443-61.177-61.177-61.177h-52.823c-11.046 0-20 8.954-20 20s8.954 20 20 20h52.823c11.677 0 21.177 9.5 21.177 21.177v52.823c0 11.046 8.954 20 20 20s20-8.954 20-20z" fill="#ff5cf0"/></g></svg>