<svg id="Layer_1" enable-background="new 0 0 512.913 512.913" height="512" viewBox="0 0 512.913 512.913" width="512" xmlns="http://www.w3.org/2000/svg"><g><path d="m200 489.453c-9.694 1.968-19.726 3.003-30 3.003-82.843 0-150-67.157-150-150s67.157-150 150-150c10.274 0 20.306 1.036 30 3.003-68.467 13.898-120 74.428-120 146.997s51.533 133.098 120 146.997zm207-364.997c-80.634 0-146-21.49-146-48s65.366-48 146-48c5.56 0 11.045.106 16.444.305-22.254-5.265-48.465-8.305-76.531-8.305-80.634 0-146 25.072-146 56s65.366 56 146 56c28.066 0 54.277-3.04 76.531-8.305-5.399.199-10.884.305-16.444.305z" fill="#cee1f2"/><path d="m346.913 152.456c-41.387 0-80.594-6.296-110.4-17.729-48.377-18.556-55.6-44.474-55.6-58.271s7.223-39.716 55.6-58.271c29.806-11.433 69.013-17.729 110.4-17.729s80.594 6.296 110.4 17.729c48.377 18.556 55.6 44.474 55.6 58.271s-7.223 39.716-55.6 58.271c-29.806 11.433-69.013 17.729-110.4 17.729zm0-112c-36.079 0-71.097 5.495-96.075 15.075-22.61 8.673-29.925 17.843-29.925 20.925s7.314 12.252 29.925 20.925c24.979 9.58 59.997 15.075 96.075 15.075s71.097-5.495 96.075-15.075c22.61-8.673 29.925-17.843 29.925-20.925s-7.314-12.252-29.925-20.925c-24.978-9.58-59.996-15.075-96.075-15.075zm153.241 443.263c10.086-4.503 14.612-16.33 10.109-26.416-4.503-10.087-16.331-14.615-26.417-10.109-37.461 16.727-89.788 25.914-143.588 25.226-11.017-.14-20.114 8.694-20.257 19.74-.143 11.044 8.695 20.113 19.74 20.256 2.144.028 4.283.042 6.418.042 57.871-.001 112.341-10.143 153.995-28.739zm-109.384-62.352c41.224-3.89 79.048-13.104 109.384-26.648 10.086-4.503 14.612-16.33 10.109-26.416-4.503-10.088-16.331-14.614-26.417-10.109-26.408 11.791-59.893 19.865-96.834 23.352-10.997 1.037-19.07 10.793-18.033 21.79.978 10.358 9.689 18.122 19.888 18.122.629-.001 1.264-.03 1.903-.091zm6.389-90.648c38.694-4.202 74.309-13.192 102.995-26 10.086-4.504 14.612-16.33 10.108-26.416-4.503-10.087-16.331-14.614-26.416-10.109-24.931 11.131-56.4 19.001-91.005 22.76-10.981 1.192-18.917 11.062-17.724 22.042 1.113 10.248 9.781 17.843 19.859 17.843.72-.001 1.45-.04 2.183-.12zm-32.392-88.626c50.734-1.97 98.815-12.046 135.387-28.374 10.086-4.503 14.612-16.33 10.109-26.416s-16.331-14.614-26.416-10.109c-32.028 14.3-74.87 23.153-120.632 24.929-11.037.429-19.638 9.724-19.209 20.761.418 10.773 9.283 19.225 19.971 19.225.262-.002.525-.006.79-.016zm-194.767 270.363c-93.738 0-170-76.262-170-170s76.262-170 170-170 170 76.262 170 170-76.262 170-170 170zm0-300c-71.682 0-130 58.317-130 130s58.318 130 130 130 130-58.317 130-130-58.318-130-130-130z" fill="#1428bf"/><path d="m226 372.456c0-13.638-6.054-26.824-16.609-36.18-10.055-8.912-23.333-13.82-37.391-13.82-9.691 0-17-4.299-17-10 0-5.514 4.486-10 10-10 7.104 0 15.745.805 30.751 6.64 10.295 4.004 21.886-1.097 25.889-11.391 4.003-10.295-1.097-21.886-11.391-25.889-6.409-2.493-12.11-4.325-17.249-5.68v-3.68c0-11.046-8.954-20-20-20s-20 8.954-20 20v1.466c-21.792 5.39-38 25.1-38 48.534 0 28.505 24.505 50 57 50 7.589 0 14 4.579 14 10s-4.809 10-10.5 10c-4.18 0-18.456-1.363-34.113-7.586-10.265-4.078-21.893.935-25.973 11.199-4.08 10.265.934 21.893 11.199 25.973 9.153 3.638 18.236 6.153 26.387 7.807v2.607c0 11.046 8.954 20 20 20s20-8.954 20-20v-3.099c19.246-7.063 33-25.419 33-46.901z" fill="#ff5cf0"/></g></svg>