<svg id="Layer_1" enable-background="new 0 0 512.073 512.073" height="512" viewBox="0 0 512.073 512.073" width="512" xmlns="http://www.w3.org/2000/svg"><g><path d="m122.037 467.125c-8.63 5.629-18.929 8.912-30 8.912-30.376 0-55-24.624-55-55 0-30.375 24.624-55 55-55 11.071 0 21.37 3.283 30 8.912-15.046 9.814-25 26.784-25 46.088s9.953 36.274 25 46.088zm-31-322.088c11.071 0 21.37-3.283 30-8.912-15.046-9.814-25-26.784-25-46.088s9.954-36.274 25-46.088c-8.63-5.629-18.929-8.912-30-8.912-30.376 0-55 24.625-55 55s24.624 55 55 55zm338 277c0-19.304 9.954-36.274 25-46.088-8.63-5.629-18.929-8.912-30-8.912-30.376 0-55 24.625-55 55 0 30.376 24.624 55 55 55 11.071 0 21.37-3.283 30-8.912-15.047-9.814-25-26.784-25-46.088zm-6-277c11.071 0 21.37-3.283 30-8.912-15.046-9.814-25-26.784-25-46.088s9.954-36.274 25-46.088c-8.63-5.629-18.929-8.912-30-8.912-30.376 0-55 24.625-55 55s24.624 55 55 55z" fill="#cee1f2"/><path d="m424.037 497.037c-41.355 0-75-33.645-75-75s33.645-75 75-75 75 33.645 75 75-33.645 75-75 75zm0-110c-19.299 0-35 15.701-35 35s15.701 35 35 35 35-15.701 35-35-15.701-35-35-35zm-333-222c-41.355 0-75-33.645-75-75s33.645-75 75-75 75 33.645 75 75-33.645 75-75 75zm0-110c-19.299 0-35 15.701-35 35s15.701 35 35 35 35-15.701 35-35-15.701-35-35-35zm332 110c-41.355 0-75-33.645-75-75s33.645-75 75-75 75 33.645 75 75-33.645 75-75 75zm0-110c-19.299 0-35 15.701-35 35s15.701 35 35 35 35-15.701 35-35-15.701-35-35-35zm-331 441c-41.355 0-75-33.645-75-75s33.645-75 75-75 75 33.645 75 75-33.645 75-75 75zm0-110c-19.299 0-35 15.701-35 35s15.701 35 35 35 35-15.701 35-35-15.701-35-35-35zm414.698-77.75c7.17-34.653 7.117-69.783-.158-104.413-2.271-10.811-12.876-17.733-23.685-15.462-10.81 2.271-17.732 12.875-15.461 23.685 6.137 29.216 6.182 58.852.134 88.087-2.238 10.816 4.716 21.399 15.533 23.637 1.368.283 2.729.419 4.073.419 9.285-.001 17.61-6.504 19.564-15.953zm-198.449 198.449c10.817-2.237 17.771-12.819 15.534-23.637-2.237-10.816-12.822-17.777-23.637-15.533-29.236 6.047-58.874 6.002-88.087-.135-10.81-2.266-21.414 4.652-23.684 15.462-2.271 10.81 4.652 21.413 15.461 23.685 17.444 3.664 35.009 5.495 52.582 5.495 17.314 0 34.634-1.78 51.831-5.337zm15.375-477.556c2.271-10.81-4.652-21.413-15.461-23.685-34.63-7.273-69.759-7.326-104.413-.158-10.817 2.237-17.771 12.819-15.534 23.637 2.238 10.816 12.823 17.775 23.637 15.533 29.236-6.046 58.874-6.002 88.087.135 1.387.291 2.769.431 4.131.431 9.261-.001 17.574-6.47 19.553-15.893zm-294.48 294.482c10.81-2.271 17.732-12.875 15.461-23.685-6.137-29.216-6.182-58.852-.134-88.087 2.238-10.816-4.716-21.399-15.533-23.637-10.824-2.243-21.4 4.717-23.637 15.533-7.17 34.654-7.117 69.784.158 104.414 1.979 9.424 10.292 15.893 19.553 15.893 1.362-.001 2.746-.14 4.132-.431z" fill="#1428bf"/><path d="m317.037 291.787c0-14.843-6.337-28.633-17.843-38.832-10.854-9.62-25.204-14.918-40.407-14.918-12.399 0-21.75-5.911-21.75-13.75 0-7.582 6.224-13.75 13.875-13.75 6.958 0 17.324.925 35.876 8.14 10.296 4.004 21.885-1.097 25.889-11.391 4.003-10.295-1.097-21.886-11.391-25.889-7.974-3.101-15.298-5.482-22.249-7.222v-11.139c0-11.046-8.954-20-20-20s-20 8.954-20 20v8.832c-24.01 5.412-42 26.852-42 52.418 0 30.643 26.547 53.75 61.75 53.75 10.063 0 18.25 6.168 18.25 13.75 0 7.453-6.554 13.75-14.313 13.75-6.356 0-22.647-2.467-39.3-9.086-10.265-4.079-21.893.934-25.973 11.199-4.08 10.264.934 21.893 11.199 25.973 10.023 3.983 20.192 6.893 29.387 8.844v9.57c0 11.046 8.954 20 20 20s20-8.954 20-20v-8.689c22.513-6.56 39-27.184 39-51.56z" fill="#ff5cf0"/></g></svg>