<svg id="Layer_1" enable-background="new 0 0 512 512" height="512" viewBox="0 0 512 512" width="512" xmlns="http://www.w3.org/2000/svg"><g><path d="m277.024 468.589c0-84.589-36.024-128.589-36.024-128.589v-84.356c0-29.602 18.738-54.827 45-64.462-7.371-2.704-15.335-4.182-23.644-4.182h-12.712c-37.911 0-68.644 30.733-68.644 68.644v84.356s36.024 44 36.024 128.589c0 13.289 12.213 23.411 25.502 23.411h26.948c6.094 0 11.958-2.133 16.526-5.72-5.392-4.234-8.976-10.496-8.976-17.691z" fill="#cee1f2"/><path d="m269.474 512h-26.948c-25.09 0-45.502-19.475-45.502-43.411 0-75.339-31.184-115.534-31.499-115.919-2.926-3.574-4.525-8.051-4.525-12.67v-84.355c0-48.879 39.766-88.645 88.644-88.645h12.712c48.878 0 88.644 39.766 88.644 88.644v84.356c0 4.688-1.476 9.021-4.479 12.615-1.269 1.64-31.545 41.7-31.545 115.974 0 23.936-20.412 43.411-45.502 43.411zm-68.474-178.402c10.619 15.926 36.023 61.693 36.023 134.991 0 1.316 2.518 3.411 5.502 3.411h26.948c2.984 0 5.502-2.095 5.502-3.411 0-73.298 25.405-119.065 36.024-134.991v-77.954c.001-26.823-21.821-48.644-48.643-48.644h-12.712c-26.822 0-48.644 21.821-48.644 48.644zm130 6.402h.01zm-76-204c-37.495 0-68-30.505-68-68s30.505-68 68-68 68 30.505 68 68-30.505 68-68 68zm0-96c-15.439 0-28 12.561-28 28s12.561 28 28 28 28-12.561 28-28-12.561-28-28-28z" fill="#1428bf"/><path d="m434 349c-5.128 0-10.254-1.959-14.161-5.877-7.8-7.82-7.783-20.484.038-28.284l46.289-46.166c3.764-3.752 5.834-8.731 5.834-14.024 0-5.273-2.055-10.236-5.788-13.98l-46.226-45.398c-7.88-7.74-7.995-20.402-.255-28.283s20.402-7.994 28.283-.256l46.289 45.461c.036.035.071.07.106.105 11.344 11.31 17.591 26.351 17.59 42.352 0 16.001-6.248 31.041-17.591 42.35l-46.286 46.163c-3.902 3.891-9.013 5.837-14.122 5.837zm-341.839-5.877c7.8-7.82 7.783-20.484-.038-28.284l-46.292-46.169c-3.76-3.749-5.831-8.729-5.831-14.021 0-5.273 2.055-10.236 5.788-13.98l46.226-45.398c7.88-7.74 7.995-20.402.255-28.283-7.74-7.882-20.402-7.994-28.283-.256l-46.289 45.461c-.036.035-.071.07-.106.105-11.344 11.308-17.591 26.349-17.591 42.35s6.248 31.041 17.588 42.347l46.289 46.166c3.903 3.894 9.013 5.839 14.123 5.839 5.127 0 10.254-1.96 14.161-5.877z" fill="#ff5cf0"/></g></svg>