<svg id="Layer_1" enable-background="new 0 0 512 512" height="512" viewBox="0 0 512 512" width="512" xmlns="http://www.w3.org/2000/svg"><g><path d="m80 392v-272c0-55.229 44.771-100 100-100l211.95-.779.05-.221-272 1c-55.229 0-100 44.771-100 100v272c0 55.228 44.771 100 100 100l52.058-.314c-51.515-4.048-92.058-47.131-92.058-99.686z" fill="#cee1f2"/><path d="m392 512h-272c-66.168 0-120-53.832-120-120v-272c0-66.168 53.832-120 120-120h272c66.168 0 120 53.832 120 120v272c0 66.168-53.832 120-120 120zm-272-472c-44.112 0-80 35.888-80 80v272c0 44.112 35.888 80 80 80h272c44.112 0 80-35.888 80-80v-272c0-44.112-35.888-80-80-80zm312 89c0-11.046-8.954-20-20-20h-312c-11.046 0-20 8.954-20 20s8.954 20 20 20h312c11.046 0 20-8.954 20-20z" fill="#1428bf"/><path d="m351.29 347.85-13.324-7.994c2.612-8.158 4.034-16.843 4.034-25.856 0-9.014-1.423-17.698-4.034-25.856l13.324-7.995c9.472-5.683 12.543-17.968 6.859-27.439-5.684-9.473-17.972-12.545-27.439-6.859l-13.569 8.142c-10.877-10.901-24.695-18.853-40.141-22.593v-17.4c0-11.046-8.954-20-20-20s-20 8.954-20 20v17.399c-15.798 3.826-29.881 12.071-40.869 23.356l-14.841-8.905c-9.469-5.684-21.756-2.613-27.439 6.859-5.684 9.472-2.612 21.757 6.859 27.439l15.004 9.002c-2.409 7.866-3.714 16.207-3.714 24.85 0 8.642 1.305 16.984 3.714 24.848l-15.004 9.002c-9.472 5.684-12.543 17.969-6.86 27.44 3.751 6.25 10.375 9.713 17.169 9.713 3.502 0 7.05-.92 10.271-2.853l14.842-8.905c10.987 11.286 25.07 19.53 40.868 23.356v17.399c0 11.046 8.954 20 20 20s20-8.954 20-20v-17.399c15.445-3.741 29.263-11.692 40.14-22.592l13.57 8.142c3.222 1.933 6.769 2.853 10.271 2.853 6.794 0 13.419-3.463 17.169-9.713 5.683-9.473 2.612-21.758-6.86-27.441zm-94.29 11.15c-24.813 0-45-20.187-45-45s20.187-45 45-45 45 20.187 45 45-20.187 45-45 45z" fill="#ff5cf0"/></g></svg>