<svg id="Layer_1" enable-background="new 0 0 512 512" height="512" viewBox="0 0 512 512" width="512" xmlns="http://www.w3.org/2000/svg"><g><path d="m112 318.5v-20c-16.562.023-30-13.397-30-29.958v-134.084c0-55.205 44.644-99.958 99.716-99.958h-60.716c-55.229 0-100 44.771-100 100v164c.011 11 9.02 20 20.02 20z" fill="#cee1f2"/><path d="m392 418.5h-152c-11.046 0-20-8.954-20-20s8.954-20 20-20h152c44.112 0 80-35.888 80-80v-164c0-44.112-35.888-80-80-80h-272c-44.112 0-80 35.888-80 80v154c0 5.514 4.486 10 10 10h60c11.046 0 20 8.954 20 20s-8.954 20-20 20h-60c-27.57 0-50-22.43-50-50v-154c0-66.168 53.832-120 120-120h272c66.168 0 120 53.832 120 120v164c0 66.168-53.832 120-120 120zm-212-20.021c0-11.046-8.954-20-20-20h-140c-11.046 0-20 8.954-20 20s8.954 20 20 20h140c11.046 0 20-8.954 20-20zm60 79.021c0-11.046-8.954-20-20-20h-200c-11.046 0-20 8.954-20 20s8.954 20 20 20h200c11.046 0 20-8.954 20-20z" fill="#1428bf"/><path d="m256.513 276.429c-25.677 0-51.357-8.17-72.786-24.515-.033-.025-.066-.05-.099-.075l-93.855-72.512c-8.741-6.754-10.353-19.313-3.6-28.055 6.752-8.741 19.313-10.353 28.055-3.6l93.807 72.474c28.56 21.751 68.43 21.737 96.981-.037l96.893-73.54c8.8-6.679 21.347-4.958 28.022 3.839 6.679 8.799 4.959 21.345-3.839 28.022l-96.855 73.512c-21.401 16.323-47.061 24.487-72.724 24.487z" fill="#ff5cf0"/></g></svg>