<svg id="Layer_1" enable-background="new 0 0 512 512" height="512" viewBox="0 0 512 512" width="512" xmlns="http://www.w3.org/2000/svg"><g><path d="m80 452c0-22.091 17.909-40 40-40h-60c-22.091 0-40 17.909-40 40 0 22.091 17.909 40 40 40h60c-22.091 0-40-17.909-40-40z" fill="#cee1f2"/><path d="m452 357c-11.046 0-20-8.954-20-20v-147c0-26.664-13.226-51.491-35.379-66.411-9.161-6.171-11.586-18.6-5.416-27.762 6.17-9.161 18.599-11.585 27.762-5.416 33.208 22.366 53.033 59.596 53.033 99.589v147c0 11.046-8.954 20-20 20zm-372-20v-147c0-26.664 13.226-51.491 35.379-66.411 9.161-6.171 11.586-18.6 5.416-27.762-6.172-9.16-18.599-11.587-27.762-5.416-33.208 22.366-53.033 59.596-53.033 99.589v147c0 11.046 8.954 20 20 20s20-8.954 20-20zm432 115c0-33.084-26.916-60-60-60h-392c-33.084 0-60 26.916-60 60s26.916 60 60 60h392c33.084 0 60-26.916 60-60zm-60-20c11.028 0 20 8.972 20 20s-8.972 20-20 20h-392c-11.028 0-20-8.972-20-20s8.972-20 20-20z" fill="#1428bf"/><path d="m352.29 153.85-13.324-7.994c2.612-8.158 4.034-16.843 4.034-25.856 0-9.014-1.423-17.698-4.034-25.856l13.324-7.995c9.472-5.683 12.543-17.968 6.859-27.439s-17.971-12.545-27.439-6.859l-13.569 8.142c-10.877-10.902-24.695-18.853-40.141-22.594v-17.399c0-11.046-8.954-20-20-20s-20 8.954-20 20v17.399c-15.798 3.826-29.881 12.071-40.869 23.356l-14.841-8.905c-9.47-5.684-21.756-2.612-27.439 6.859s-2.612 21.757 6.859 27.439l15.004 9.002c-2.409 7.866-3.714 16.207-3.714 24.85 0 8.642 1.305 16.984 3.714 24.848l-15.004 9.002c-9.472 5.684-12.543 17.969-6.86 27.44 3.751 6.25 10.375 9.713 17.169 9.713 3.502 0 7.05-.92 10.271-2.853l14.842-8.905c10.987 11.286 25.07 19.53 40.868 23.356v17.399c0 11.046 8.954 20 20 20s20-8.954 20-20v-17.399c15.445-3.741 29.263-11.692 40.14-22.592l13.57 8.142c3.222 1.933 6.769 2.853 10.271 2.853 6.794 0 13.419-3.463 17.169-9.713 5.683-9.473 2.612-21.758-6.86-27.441zm-94.29 11.15c-24.813 0-45-20.187-45-45s20.187-45 45-45 45 20.187 45 45-20.187 45-45 45z" fill="#ff5cf0"/></g></svg>