<svg id="Layer_1" enable-background="new 0 0 512 512" height="512" viewBox="0 0 512 512" width="512" xmlns="http://www.w3.org/2000/svg"><g><path d="m147.241 184c0-85.969 59.31-149.059 137.379-161.68-9.297-1.503-18.86-2.289-28.621-2.314-91.722.234-165.999 67.788-165.999 163.994 0 119.5 117.345 208 117.345 208h89.655s-149.759-95-149.759-208z" fill="#cee1f2"/><path d="m296 512h-81c-8.68 0-16.369-5.599-19.034-13.86l-10-31c-3.391-10.512 2.382-21.783 12.895-25.174 10.513-3.394 21.782 2.382 25.174 12.895l5.529 17.14h51.873l5.529-17.14c3.392-10.512 14.66-16.281 25.174-12.895 10.513 3.391 16.285 14.662 12.895 25.174l-10 31c-2.666 8.261-10.355 13.86-19.035 13.86zm19.682-103.985c1.292-.966 31.982-24.105 62.802-62.728 41.552-52.073 63.516-107.846 63.516-161.287 0-51.458-19.498-98.535-54.901-132.561-34.198-32.865-80.386-51.101-130.188-51.434-.144-.003-.29-.005-.434-.005h-.953c-.145 0-.29.002-.435.005-49.802.333-95.99 18.569-130.188 51.435-35.403 34.025-54.901 81.102-54.901 132.56 0 53.413 21.781 109.163 62.99 161.226 30.576 38.629 61.03 61.775 62.312 62.742 3.47 2.617 7.697 4.032 12.043 4.032h96.356c4.32 0 8.523-1.398 11.981-3.985zm-205.682-224.015c0-81.938 62.73-143.766 146-143.999 83.27.233 146 62.061 146 143.999 0 94.475-83.837 170.162-105.32 188h-82.266c-21.429-17.95-104.414-93.585-104.414-188z" fill="#1428bf"/><path d="m237.983 302.001c-4.084 0-8.205-1.246-11.759-3.835-8.928-6.503-10.894-19.013-4.391-27.941l35.856-49.225h-43.689c-7.492 0-14.355-4.187-17.783-10.849-3.429-6.661-2.846-14.68 1.509-20.776l60-84c6.421-8.989 18.912-11.071 27.899-4.649 8.988 6.42 11.07 18.911 4.649 27.899l-37.41 52.375h44.136c7.525 0 14.413 4.224 17.825 10.931 3.413 6.707 2.771 14.762-1.659 20.845l-59 81c-3.914 5.373-10.007 8.225-16.183 8.225zm224.017-177.001c0 13.807 11.193 25 25 25s25-11.193 25-25-11.193-25-25-25-25 11.193-25 25zm-3 113c0 13.807 11.193 25 25 25s25-11.193 25-25-11.193-25-25-25-25 11.193-25 25zm-459-113c0 13.807 11.193 25 25 25s25-11.193 25-25-11.193-25-25-25-25 11.193-25 25zm4 113c0 13.807 11.193 25 25 25s25-11.193 25-25-11.193-25-25-25-25 11.193-25 25zm46-213c0 13.807 11.193 25 25 25s25-11.193 25-25-11.193-25-25-25-25 11.193-25 25zm364 0c0 13.807 11.193 25 25 25s25-11.193 25-25-11.193-25-25-25-25 11.193-25 25z" fill="#ff5cf0"/></g></svg>