<svg id="Layer_1" enable-background="new 0 0 512 512" height="512" viewBox="0 0 512 512" width="512" xmlns="http://www.w3.org/2000/svg"><g><path d="m286 254.48c-8.827 5.108-19.068 8.047-30 8.047-33.137 0-60-26.863-60-60s26.863-60 60-60c10.932 0 21.173 2.939 30 8.047-17.929 10.376-30 29.749-30 51.953s12.071 41.577 30 51.953zm63 109.468c0-30.752 18.516-57.166 45-68.741-9.189-4.016-19.33-6.259-30-6.259-41.421 0-75 33.579-75 75s33.579 75 75 75c10.67 0 20.811-2.242 30-6.258-26.484-11.576-45-37.99-45-68.742zm-267-79.88v-164.082c0-55.206 44.644-99.959 99.716-99.959h-60.716c-55.229 0-100 44.771-100 100v164c0 55.229 44.771 100 100 100h60.716c-55.072 0-99.716-44.753-99.716-99.959z" fill="#cee1f2"/><path d="m212 404.027h-92.021c-66.156 0-119.979-53.822-119.979-119.979v-164.021c0-66.168 53.832-120 120-120h272c66.168 0 120 53.832 120 120v164c0 11.046-8.954 20-20 20s-20-8.954-20-20v-164c0-44.112-35.888-80-80-80h-272c-44.112 0-80 35.888-80 80v164.021c0 44.101 35.879 79.979 79.979 79.979h92.021c11.046 0 20 8.954 20 20s-8.954 20-20 20zm247-40.079c0-52.383-42.617-95-95-95s-95 42.617-95 95 42.617 95 95 95 95-42.617 95-95zm-40 0c0 30.327-24.673 55-55 55s-55-24.673-55-55 24.673-55 55-55 55 24.673 55 55zm-83-161.421c0-44.112-35.888-80-80-80s-80 35.888-80 80 35.888 80 80 80 80-35.887 80-80zm-40 0c0 22.056-17.944 40-40 40s-40-17.944-40-40 17.944-40 40-40 40 17.945 40 40z" fill="#1428bf"/><path d="m492 511.973c-5.112 0-10.224-1.947-14.128-5.844l-28-27.945c-7.818-7.803-7.831-20.467-.027-28.284 7.802-7.819 20.466-7.83 28.284-.028l28 27.945c7.818 7.803 7.831 20.467.027 28.284-3.906 3.914-9.031 5.872-14.156 5.872zm-59-376.946c0-11.046-8.954-20-20-20-8.271 0-15-6.729-15-15 0-11.046-8.954-20-20-20s-20 8.954-20 20c0 30.327 24.673 55 55 55 11.046 0 20-8.954 20-20zm-277-33c0-11.046-8.954-20-20-20s-20 8.954-20 20c0 8.271-6.729 15-15 15-11.046 0-20 8.954-20 20s8.954 20 20 20c30.327 0 55-24.673 55-55zm0 200c0-30.327-24.673-55-55-55-11.046 0-20 8.954-20 20s8.954 20 20 20c8.271 0 15 6.729 15 15 0 11.046 8.954 20 20 20s20-8.954 20-20z" fill="#ff5cf0"/></g></svg>