<svg id="Layer_1" enable-background="new 0 0 512 512" height="512" viewBox="0 0 512 512" width="512" xmlns="http://www.w3.org/2000/svg"><g><path d="m80 392v-272c0-55.229 44.771-100 100-100l211.95-.779.05-.221-272 1c-55.229 0-100 44.771-100 100v272c0 55.228 44.771 100 100 100l52.058-.314c-51.515-4.048-92.058-47.131-92.058-99.686z" fill="#cee1f2"/><path d="m392 512h-272c-66.168 0-120-53.832-120-120v-272c0-66.168 53.832-120 120-120h272c66.168 0 120 53.832 120 120v272c0 66.168-53.832 120-120 120zm-272-472c-44.112 0-80 35.888-80 80v272c0 44.112 35.888 80 80 80h272c44.112 0 80-35.888 80-80v-272c0-44.112-35.888-80-80-80zm312 89c0-11.046-8.954-20-20-20h-312c-11.046 0-20 8.954-20 20s8.954 20 20 20h312c11.046 0 20-8.954 20-20zm1 187c0-11.046-8.954-20-20-20h-117c-11.046 0-20 8.954-20 20s8.954 20 20 20h117c11.046 0 20-8.954 20-20zm-196 0c0-11.046-8.954-20-20-20h-117c-11.046 0-20 8.954-20 20s8.954 20 20 20h117c11.046 0 20-8.954 20-20zm0 80c0-11.046-8.954-20-20-20h-117c-11.046 0-20 8.954-20 20s8.954 20 20 20h117c11.046 0 20-8.954 20-20zm155 0c0-11.046-8.954-20-20-20h-76c-11.046 0-20 8.954-20 20s8.954 20 20 20h76c11.046 0 20-8.954 20-20z" fill="#1428bf"/><path d="m413 256h-224c-11.046 0-20-8.954-20-20s8.954-20 20-20h224c11.046 0 20 8.954 20 20s-8.954 20-20 20zm-333-22c0 13.807 11.193 25 25 25s25-11.193 25-25-11.193-25-25-25-25 11.193-25 25z" fill="#ff5cf0"/></g></svg>