<svg id="Layer_1" enable-background="new 0 0 512 512" height="512" viewBox="0 0 512 512" width="512" xmlns="http://www.w3.org/2000/svg"><g><path d="m161.272 489.625h-38.898c-55.229 0-100-44.771-100-100v-76.27c0-44.662 20.481-86.857 55.57-114.486l71.43-56.244-49.744-77.726c-13.085-20.445 1.598-47.274 25.871-47.274h84.218l.281 22.375c-42 0-38.956 27.829-29.616 45.547l26.135 44.397c11.147 16.727 7.906 39.166-7.519 52.056l-93.192 75c-15.071 12.594-23.707 31.278-23.533 50.918l.725 84.082c0 47.766 33.492 87.703 78.272 97.625zm230.728-208.625c0-20.981 20.686-38.933 50-46.352-9.267-2.345-19.388-3.648-30-3.648-44.183 0-80 22.386-80 50s35.817 50 80 50c10.612 0 20.733-1.303 30-3.648-29.314-7.419-50-25.371-50-46.352z" fill="#cee1f2"/><path d="m412 351c-56.075 0-100-30.748-100-70s43.925-70 100-70 100 30.748 100 70-43.925 70-100 70zm0-100c-17.414 0-34.168 4.229-45.968 11.604-8.918 5.574-14.032 12.279-14.032 18.396s5.114 12.822 14.032 18.396c11.8 7.375 28.554 11.604 45.968 11.604s34.168-4.229 45.968-11.604c8.918-5.574 14.032-12.279 14.032-18.396s-5.114-12.822-14.032-18.396c-11.8-7.375-28.554-11.604-45.968-11.604zm-135 241c0-11.046-8.954-20-20-20h-137c-44.112 0-80-35.888-80-80v-76.271c0-38.78 17.475-74.781 47.943-98.771l71.43-56.244c8.084-6.366 10.02-17.828 4.472-26.495l-49.745-77.727c-3.09-4.828-1.291-9.245-.374-10.92.917-1.676 3.668-5.572 9.4-5.572h248.125c5.714 0 8.467 3.878 9.386 5.545s2.725 6.066-.328 10.896l-49.216 77.874c-5.426 8.586-3.555 19.877 4.352 26.253l29 23.387c8.598 6.934 21.189 5.585 28.124-3.014 6.934-8.598 5.584-21.189-3.013-28.123l-15.127-12.199 39.694-62.808c9.874-15.622 10.467-35.383 1.549-51.569s-25.94-26.242-44.421-26.242h-248.125c-18.541 0-35.588 10.104-44.49 26.369-8.901 16.265-8.222 36.069 1.773 51.686l39.969 62.451-57.18 45.024c-19.58 15.417-35.681 35.417-46.563 57.836-10.883 22.42-16.635 47.443-16.635 72.363v76.271c0 66.168 53.832 120 120 120h137c11.046 0 20-8.954 20-20z" fill="#1428bf"/><path d="m411 512c-34.4 0-66.978-9.874-91.731-27.802-8.946-6.479-10.945-18.984-4.466-27.93 6.479-8.945 18.984-10.946 27.929-4.467 37.006 26.803 99.531 26.803 136.537 0 8.944-6.479 21.451-4.479 27.929 4.467 6.479 8.945 4.479 21.45-4.466 27.93-24.754 17.928-57.332 27.802-91.732 27.802zm91.731-108.802c8.946-6.479 10.945-18.984 4.466-27.93s-18.985-10.946-27.929-4.467c-37.006 26.803-99.531 26.803-136.537 0-8.945-6.479-21.451-4.479-27.929 4.467-6.479 8.945-4.479 21.45 4.466 27.93 24.754 17.928 57.332 27.802 91.732 27.802s66.978-9.874 91.731-27.802zm-208.731-258.198c0-11.046-8.954-20-20-20h-53c-11.046 0-20 8.954-20 20s8.954 20 20 20h53c11.046 0 20-8.954 20-20z" fill="#ff5cf0"/></g></svg>