<svg id="Layer_1" enable-background="new 0 0 512 512" height="512" viewBox="0 0 512 512" width="512" xmlns="http://www.w3.org/2000/svg"><g><path d="m286.261 423h-31.261c-29.823 0-54-24.177-54-54v-227c0-29.823 24.176-54 54-54 10.889 0 21.018 3.234 29.5 8.779-14.748 9.64-24.5 26.287-24.5 45.221v227c0 19.782 10.647 37.059 26.515 46.46-.081 2.513-.169 5.027-.254 7.54zm-207.261-221v-128c0-18.934 9.752-35.581 24.5-45.221-8.482-5.545-18.61-8.779-29.5-8.779-29.823 0-54 24.177-54 54v128c0 29.823 24.177 54 54 54h58l-.001-.025c-29.36-.536-52.999-24.488-52.999-53.975z" fill="#cee1f2"/><path d="m256 443c-40.804 0-74-33.196-74-74v-226c0-40.804 33.196-74 74-74s74 33.196 74 74v226c0 40.804-33.196 74-74 74zm0-334c-18.748 0-34 15.252-34 34v226c0 18.748 15.252 34 34 34s34-15.252 34-34v-226c0-18.748-15.252-34-34-34zm256 329v-128c0-40.804-33.196-74-74-74h-53c-11.046 0-20 8.954-20 20s8.954 20 20 20h53c18.748 0 34 15.252 34 34v128c0 18.748-15.252 34-34 34s-34-15.252-34-34v-102c0-11.046-8.954-20-20-20s-20 8.954-20 20v102c0 40.804 33.196 74 74 74s74-33.196 74-74zm-360-182c0-11.046-8.954-20-20-20h-58c-18.748 0-34-15.252-34-34v-128c0-18.748 15.252-34 34-34s34 15.252 34 34v103c0 11.046 8.954 20 20 20s20-8.954 20-20v-103c0-40.804-33.196-74-74-74s-74 33.196-74 74v128c0 40.804 33.196 74 74 74h58c11.046 0 20-8.954 20-20z" fill="#1428bf"/><path d="m150 461c0 11.046-8.954 20-20 20h-110c-11.046 0-20-8.954-20-20s8.954-20 20-20h110c11.046 0 20 8.954 20 20zm342-405h-36v-36c0-11.046-8.954-20-20-20s-20 8.954-20 20v36h-34c-11.046 0-20 8.954-20 20s8.954 20 20 20h34v34c0 11.046 8.954 20 20 20s20-8.954 20-20v-34h36c11.046 0 20-8.954 20-20s-8.954-20-20-20z" fill="#ff5cf0"/></g></svg>