<svg id="Layer_1" enable-background="new 0 0 512.021 512.021" height="512" viewBox="0 0 512.021 512.021" width="512" xmlns="http://www.w3.org/2000/svg"><g><path d="m166.977 417.964h-46.966c-22.091 0-40-17.909-40-40s17.909-40 40-40h60c-22.091 0-40 17.909-40 40 0 17.39 11.101 32.182 26.601 37.693.113.697.238 1.396.372 2.094-.002.071-.005.142-.007.213zm-26.269-238c-4.157 8.237-15.902 11.132-23.309 3.789l-29.081-28.828c-11.075-10.978-11.075-28.943 0-39.921l29.081-28.828c7.979-7.909 20.991-3.94 24.131 5.789h13.481v-40.482c0-27.929-34.078-42.007-53.876-22.382l-63.102 62.552c-24.031 23.821-24.031 62.801 0 86.622l63.102 62.552c19.798 19.625 53.876 5.547 53.876-22.382v-38.481z" fill="#cee1f2"/><path d="m389.278 512.021c-6.603 0-13.294-1.317-19.765-4.014-19.137-7.976-31.503-26.645-31.503-47.562v-42.481c0-11.046 8.954-20 20-20s20 8.954 20 20v42.481c0 7.011 4.819 9.776 6.892 10.64 1.993.831 7.146 2.255 11.904-2.462l63.102-62.551c7.805-7.737 12.103-18.074 12.103-29.107s-4.298-21.371-12.103-29.107l-63.102-62.552c-4.759-4.718-9.911-3.292-11.904-2.462-2.072.864-6.892 3.629-6.892 10.64v44.481c0 11.046-8.954 20-20 20h-238c-11.028 0-20 8.972-20 20s8.972 20 20 20h32c11.046 0 20 8.954 20 20s-8.954 20-20 20h-32c-33.084 0-60-26.916-60-60s26.916-60 60-60h218v-24.481c0-20.917 12.366-39.585 31.503-47.562 19.274-8.035 40.521-3.826 55.453 10.976l63.102 62.552c15.439 15.305 23.942 35.731 23.942 57.515s-8.503 42.21-23.942 57.515l-63.102 62.552c-9.918 9.831-22.625 14.989-35.688 14.989zm-246.028-246.116c19.591-8.165 31.761-26.351 31.761-47.46v-22.481h217c33.084 0 60-26.916 60-60s-26.916-60-60-60h-217v-24.481c0-21.109-12.17-39.295-31.761-47.46-19.343-8.062-41.4-3.793-56.195 10.874l-63.102 62.552c-15.44 15.305-23.942 35.731-23.942 57.515s8.503 42.21 23.942 57.515l63.102 62.552c9.829 9.743 22.861 14.897 36.174 14.897 6.727 0 13.528-1.317 20.021-4.023zm-15.389-224.96c2.149.896 7.149 3.716 7.149 10.539v44.481c0 11.046 8.954 20 20 20h237c11.028 0 20 8.972 20 20s-8.972 20-20 20h-237c-11.046 0-20 8.954-20 20v42.481c0 6.822-5 9.643-7.149 10.539-2.173.906-7.754 2.49-12.646-2.361l-63.102-62.552c-7.805-7.736-12.103-18.074-12.103-29.107s4.298-21.371 12.103-29.107l63.102-62.551c2.619-2.596 5.436-3.349 7.82-3.349 2.07-.001 3.816.566 4.826.987zm-89.828 50.708h.01z" fill="#1428bf"/><path d="m282.01 437.964h-54c-11.046 0-20-8.954-20-20s8.954-20 20-20h54c11.046 0 20 8.954 20 20s-8.954 20-20 20z" fill="#ff5cf0"/></g></svg>